<svg width="99" height="60" viewBox="0 0 99 60" fill="none" xmlns="http://www.w3.org/2000/svg">
<g clip-path="url(#clip0)">
<g opacity="0.8">
<path fill-rule="evenodd" clip-rule="evenodd" d="M16.5898 31.9974C16.5898 23.4467 19.9194 15.6792 25.344 9.93866L36.8341 21.5122C34.3449 24.2864 32.8292 27.9637 32.8292 31.9974L32.8293 32.0623H16.59L16.5898 31.9974Z" fill="white"/>
<path fill-rule="evenodd" clip-rule="evenodd" d="M59.7158 21.3267C62.3053 24.1215 63.8899 27.8731 63.8899 31.9975L63.8899 32.0624H80.1291L80.1292 31.9975C80.1292 23.3562 76.7287 15.5148 71.2021 9.75708L59.7158 21.3267Z" fill="white"/>
<path fill-rule="evenodd" clip-rule="evenodd" d="M58.9897 20.5908L70.4755 9.02172C64.8563 3.53341 57.2301 0.11799 48.8125 0V16.3604C49.242 16.3727 49.6874 16.3999 50.1232 16.4445C50.6021 16.4935 51.0675 16.233 51.2486 15.7838L55.2856 5.76526C55.3429 5.62302 55.4954 5.54496 55.6433 5.58219L52.109 16.8124C54.7279 17.466 57.0846 18.789 58.9897 20.5908Z" fill="white"/>
<path fill-rule="evenodd" clip-rule="evenodd" d="M47.7802 0.00158691C39.3242 0.154098 31.6746 3.63422 26.0674 9.19718L37.551 20.7641C40.2175 18.1601 43.8085 16.511 47.7802 16.3641V0.00158691Z" fill="white"/>
<path d="M55.6415 5.58228L56.157 5.71204L48.3596 36.479C47.1345 36.1613 46.4257 34.8727 46.8078 33.6581L55.6415 5.58228Z" fill="white"/>
<path fill-rule="evenodd" clip-rule="evenodd" d="M1.77579 54.6559V59.3279H0V44.9542H6.50709C9.37396 44.9542 12.0095 46.4176 12.0095 49.805C12.0095 52.1949 10.6764 53.6271 8.89951 54.2634L12.6061 59.9859C11.4119 60.1 10.2541 59.5337 9.60493 58.5176L7.12219 54.6323C6.91854 54.648 6.71326 54.6559 6.50709 54.6559H1.77579ZM1.77579 53.0612H6.29313C7.98334 53.0612 10.1697 51.9406 10.1697 49.805C10.1697 47.6695 7.98334 46.549 6.29313 46.549H1.77579V53.0612Z" fill="white"/>
<path fill-rule="evenodd" clip-rule="evenodd" d="M70.9525 54.655V59.3272H69.1768V44.9534H75.6838C78.5507 44.9534 81.1864 46.4167 81.1864 49.8042C81.1864 52.1941 79.8532 53.6262 78.0763 54.2625L81.783 59.9851C80.5887 60.0992 79.431 59.5329 78.7817 58.5168L76.2989 54.6315C76.0953 54.6472 75.89 54.655 75.6838 54.655H70.9525ZM70.9525 53.0603H75.4699C77.1601 53.0603 79.3464 51.9397 79.3464 49.8042C79.3464 47.6687 77.1601 46.5481 75.4699 46.5481H70.9525V53.0603Z" fill="white"/>
<path d="M21.8564 59.5858C25.7289 59.5858 27.8046 57.3015 27.8046 53.7242V44.9534H26.0289V53.7026C26.0289 56.3317 24.488 57.991 21.8564 57.991C19.225 57.991 17.684 56.3317 17.684 53.7026V44.9534H15.9082V53.7457C15.9082 57.2799 17.984 59.5858 21.8564 59.5858Z" fill="white"/>
<path d="M46.5604 59.3272L50.8832 44.9534H48.9149L45.5121 56.9351L41.9809 44.9534H40.5047L36.9735 56.9351L33.5494 44.9534H31.5811L35.9038 59.3272H37.8294L41.2321 47.7333L44.6349 59.3272H46.5604Z" fill="white"/>
<path d="M66.1448 59.3272L60.3896 44.9534H58.1859L52.4521 59.3272H54.4847L56.1581 55.0431H62.28L64.1122 59.3272H66.1448ZM61.829 53.5502H56.6736L59.2985 46.8067L61.829 53.5502Z" fill="white"/>
<path d="M90.6005 59.3272C96.0606 59.3272 98.5624 56.2455 98.5624 52.151C98.5624 48.0781 96.0606 44.9534 90.6005 44.9534H86.1094V59.3272H90.6005ZM90.6005 57.7324H88.0139V46.5481H90.6005C94.646 46.5481 96.5933 49.0479 96.5933 52.151C96.5933 55.2326 94.5823 57.7324 90.6005 57.7324Z" fill="white"/>
</g>
</g>
<defs>
<clipPath id="clip0">
<rect width="99" height="60" fill="white"/>
</clipPath>
</defs>
</svg>
