<svg width="65" height="80" viewBox="0 0 65 80" fill="none" xmlns="http://www.w3.org/2000/svg">
<path opacity="0.8" d="M32.181 28.324C29.679 28.324 27.429 27.325 25.431 25.327L26.835 23.788C28.617 25.516 30.408 26.38 32.208 26.38C33.558 26.38 34.656 25.984 35.502 25.192C36.348 24.4 36.771 23.383 36.771 22.141C36.771 20.971 36.33 20.017 35.448 19.279C34.584 18.541 33.459 18.172 32.073 18.172C30.777 18.172 29.454 18.532 28.104 19.252L26.673 18.307L27.213 9.1H38.094V11.071H29.076L28.671 17.119C29.949 16.561 31.191 16.282 32.397 16.282C34.287 16.282 35.844 16.813 37.068 17.875C38.31 18.919 38.931 20.332 38.931 22.114C38.931 23.95 38.301 25.444 37.041 26.596C35.781 27.748 34.161 28.324 32.181 28.324Z" fill="white"/>
<path opacity="0.8" fill-rule="evenodd" clip-rule="evenodd" d="M13.9122 20.1453C12.6673 20.4895 11.6063 21.1143 10.6503 22.0658C8.89044 23.8174 8.01488 26.1907 8.20425 28.6958C8.33144 30.3782 8.32655 30.4207 7.79637 32.1784C7.5198 33.0953 7.17899 34.384 7.03897 35.0421L6.78447 36.2389L6.59303 35.0485C6.27418 33.0646 5.66061 31.4635 4.66905 30.0276C4.21637 29.3722 2.8615 28.0727 2.72028 28.1585C2.55667 28.2578 2.08312 29.5486 1.89363 30.4115C1.63109 31.6078 1.65545 33.556 1.94701 34.6771C2.0692 35.1471 2.39719 35.9882 2.67603 36.5463C3.30385 37.803 4.43847 38.9865 5.52015 39.5127L6.20558 39.8462L6.23841 43.0294C6.27092 46.184 6.31625 46.6882 6.79806 49.2566C6.86057 49.59 6.82242 49.5554 6.44497 48.9362C4.74591 46.1494 2.88867 44.3762 0.79086 43.5379C0.211752 43.3066 0.154027 43.3008 0.0861903 43.4676C-0.136234 44.0144 0.0967343 46.2786 0.500273 47.4905C1.61087 50.826 4.49718 53.1969 7.45925 53.2068C7.96856 53.2084 8.02444 53.233 8.08847 53.4839C8.18653 53.8677 9.07732 55.7433 9.70785 56.8935C10.38 58.1198 11.4851 59.7566 12.3566 60.8174C12.7313 61.2734 13.0201 61.6465 12.9982 61.6465C12.9764 61.6465 12.6717 61.4585 12.3211 61.2287C10.8289 60.2507 8.60997 59.3446 6.9495 59.0351C5.5744 58.7788 4.01939 58.8266 4.01939 59.1252C4.01939 59.3661 4.88767 60.9133 5.36133 61.5162C5.93772 62.2499 6.93048 63.1877 7.6221 63.6519C10.002 65.2492 12.9254 65.6163 15.008 64.5794L15.5561 64.3065L15.9174 64.6054C16.1161 64.7697 16.7184 65.27 17.2557 65.7172C18.7048 66.923 21.8326 68.9934 23.3668 69.7624C23.6194 69.889 23.8091 70.0073 23.7883 70.0254C23.7676 70.0434 23.3103 69.9674 22.7722 69.8563C21.44 69.5815 19.0841 69.5607 17.8258 69.8126C16.4337 70.0914 14.5515 70.8967 14.5714 71.2052C14.5855 71.4245 15.9237 72.4248 16.8326 72.8954C17.349 73.1627 18.2117 73.5134 18.7499 73.6745C19.6159 73.934 19.9094 73.9685 21.3046 73.9753C22.7602 73.9824 22.9542 73.9594 23.8382 73.6748C24.8932 73.335 25.8 72.8086 26.5545 72.098L27.048 71.6332L27.6279 71.8883C27.9469 72.0286 28.8406 72.3989 29.614 72.7112C30.9375 73.2457 31.0026 73.2855 30.7211 73.3907C30.5567 73.4522 30.3976 73.5024 30.3674 73.5024C30.2402 73.5024 26.4767 75.0153 25.3269 75.5286C23.731 76.2412 22.6509 76.8174 21.6509 77.4898C20.9138 77.9856 20 78.8601 20 79.0701C20 79.1761 21.4516 79.9118 21.6552 79.9091C21.7314 79.908 21.9042 79.7519 22.0391 79.562C22.9927 78.2203 26.8841 75.9991 31.3333 74.2569L32.5019 73.7993L33.6706 74.2578C38.1337 76.0091 41.9002 78.1437 42.9314 79.5063L43.3051 80L44.1544 79.5805C44.6216 79.3496 45.0038 79.1201 45.0038 79.0703C45.0038 78.8614 44.0914 77.986 43.3463 77.4799C41.659 76.334 37.6183 74.5141 34.1378 73.3324C34.0509 73.3029 34.5646 73.046 35.2793 72.7612C35.994 72.4766 36.8909 72.1045 37.2726 71.9346L37.9665 71.6257L38.57 72.1953C39.3176 72.9011 40.8276 73.6555 41.9599 73.889C43.1369 74.1317 44.9739 74.0386 46.2303 73.6726C47.5155 73.2982 48.7122 72.6902 49.7339 71.8924L50.5809 71.2312L50.3199 71.0303C49.4852 70.3876 47.7168 69.8187 46.0812 69.6667C44.9211 69.5588 42.914 69.6784 41.9064 69.9153C41.5482 69.9995 41.2417 70.0553 41.2254 70.0394C41.2092 70.0234 41.649 69.7574 42.2029 69.4483C44.3352 68.2586 47.2961 66.2047 48.7043 64.9388C49.4756 64.2453 49.379 64.2723 49.9929 64.578C51.8993 65.5271 54.6261 65.3038 56.8288 64.018C57.7002 63.5094 58.9509 62.4012 59.6255 61.5397C60.1279 60.8983 60.9844 59.3881 60.9844 59.1439C60.9844 58.6254 58.1823 58.8482 56.2423 59.5209C55.0912 59.9201 53.5588 60.6616 52.6952 61.2375C52.3513 61.4669 52.0701 61.6289 52.0701 61.5976C52.0701 61.5664 52.3175 61.2401 52.6199 60.8727C53.3165 60.0262 54.4859 58.3286 55.1604 57.1846C55.6952 56.2773 56.9587 53.5809 56.9609 53.3421C56.9617 53.2526 57.1504 53.2079 57.5328 53.2068C60.7483 53.1963 63.7016 50.5584 64.6964 46.8085C64.9341 45.9123 65.0927 43.7275 64.9396 43.4587C64.8516 43.3044 64.7784 43.3124 64.212 43.5386C63.1446 43.9648 62.4029 44.4633 61.3033 45.4937C60.2749 46.4575 59.2358 47.7646 58.5045 49.0149C58.2203 49.5006 58.1569 49.5628 58.2041 49.31C58.4368 48.0636 58.5967 47.0088 58.6991 46.0468C58.8202 44.9086 58.86 40.5742 58.7531 40.1466C58.7025 39.9437 58.7954 39.8596 59.4195 39.5443C61.1741 38.6578 62.4787 36.9111 63.0543 34.6771C63.5372 32.8033 63.294 30.0524 62.5123 28.5469L62.2802 28.0999L61.9853 28.3063C61.8231 28.4197 61.4377 28.7752 61.1287 29.0961C59.7326 30.5464 58.8104 32.5745 58.4146 35.0651L58.2216 36.2793L58.0901 35.585C57.8967 34.5645 57.4387 32.8162 57.0001 31.4246C56.642 30.288 56.6232 30.1601 56.7341 29.6177C57.1078 27.7893 56.6407 25.2826 55.6075 23.5721C54.9266 22.4445 53.588 21.2243 52.3663 20.6174C51.6791 20.276 50.463 19.9315 50.3484 20.0456C50.3088 20.0853 50.2841 20.7019 50.2937 21.416C50.3203 23.4078 50.8443 25.0408 52.0872 27.0064C52.7433 28.0437 54.3283 29.6971 55.1804 30.2325L55.7359 30.5816L56.1313 31.8283C56.4894 32.9574 57.2909 36.1245 57.285 36.3861C57.2836 36.4448 57.1254 36.2045 56.9335 35.852C56.7281 35.4749 56.2036 34.834 55.659 34.2949C54.9183 33.5615 54.549 33.2892 53.8094 32.931C52.749 32.4174 51.5706 32.1438 50.6136 32.1891L49.9502 32.2205L49.9804 32.587C50.1035 34.0766 51.5863 36.438 53.2403 37.7785C54.5137 38.8103 56.144 39.6196 57.5215 39.9034L57.8091 39.9627L57.8861 41.4855C57.9308 42.3676 57.9127 43.7272 57.8431 44.7172C57.7232 46.4229 57.332 49.1263 57.1816 49.2893C57.1379 49.3367 57.0685 49.0535 57.0274 48.66C56.8772 47.2184 56.0101 45.5894 54.867 44.6008C53.9644 43.8201 52.0414 42.9753 51.8521 43.2762C51.7029 43.5134 51.6425 44.7859 51.7442 45.5513C52.0535 47.8803 53.2172 50.098 55.0857 51.9196L56.119 52.927L55.767 53.7888C54.9663 55.7496 53.4655 58.271 51.9959 60.1245C51.6116 60.6092 51.2847 61.0057 51.2694 61.0057C51.2542 61.0057 51.3871 60.5852 51.565 60.0711C51.8382 59.2819 51.8887 58.9703 51.8898 58.0684C51.8921 56.3043 51.3635 55.0018 50.1366 53.747L49.4534 53.0484L49.2356 53.3154C49.1159 53.4622 48.8542 53.8948 48.6541 54.2767C47.4034 56.6632 47.2964 60.1987 48.3962 62.802L48.7264 63.5836L48.4143 63.9082C47.9892 64.3502 45.7011 66.1542 44.5689 66.94C43.6439 67.582 42.1653 68.5029 41.1445 69.0727L40.6009 69.3761L41.2871 68.6395C42.1605 67.702 42.8623 66.3298 43.1135 65.0681C43.2619 64.3227 43.2735 64.0035 43.1792 63.2523C43.0375 62.1238 42.6733 61.1125 42.4086 61.1125C42.1174 61.1125 41.0021 61.962 40.2174 62.7816C39.3235 63.7153 38.5422 65.0177 38.0848 66.3365C37.63 67.6485 37.4763 68.607 37.5211 69.8547L37.557 70.8533L36.4155 71.3328C35.7877 71.5967 34.6522 72.0219 33.8921 72.2777L32.5103 72.7428L31.283 72.3297C29.7882 71.8265 29.0769 71.5565 28.1534 71.142L27.4468 70.8248L27.4406 69.4133C27.4337 67.8064 27.2734 67.0435 26.6395 65.5985C25.917 63.9516 24.8243 62.5747 23.4524 61.5824C22.7098 61.0453 22.4771 61.0035 22.3043 61.3763C21.8048 62.4535 21.6675 64.3751 22.0028 65.5985C22.2828 66.6202 22.9724 67.8407 23.727 68.6498L24.3919 69.3627L23.7452 69.0104C21.8057 67.9539 18.5819 65.6841 16.9602 64.2333L16.2577 63.6049L16.5492 62.967C17.4626 60.9672 17.6279 57.8827 16.9393 55.689C16.6727 54.8401 16.1738 53.8118 15.8202 53.3821L15.5674 53.0752L15.0653 53.5299C13.2214 55.1997 12.6174 57.8685 13.5265 60.3289C13.664 60.7011 13.7633 61.0057 13.7473 61.0057C13.6722 61.0057 12.0286 58.8241 11.494 58.015C10.7469 56.8843 9.70045 54.9252 9.23658 53.7888L8.88479 52.927L9.9181 51.9196C11.7848 50.0998 12.9395 47.9189 13.2636 45.6018C13.3857 44.7284 13.3325 43.5636 13.1578 43.2859C13.0839 43.1683 12.9646 43.176 12.4845 43.329C11.4738 43.6512 10.6204 44.1598 9.88613 44.8774C8.77499 45.9635 8.14077 47.2512 7.95422 48.7998L7.86703 49.5237L7.73114 48.9362C7.28846 47.0225 7.0231 43.7292 7.13061 41.4844L7.20367 39.9605L7.48686 39.9009C8.30166 39.7292 9.58294 39.2171 10.3918 38.7399C12.1096 37.7259 13.5383 36.2252 14.3435 34.5889C14.7944 33.673 15.1678 32.4553 15.0535 32.2738C14.9553 32.1176 13.7561 32.147 12.8794 32.3272C11.6048 32.5893 10.4201 33.2395 9.39769 34.2382C8.88022 34.7437 8.34601 35.3935 8.11489 35.7986C7.89714 36.1805 7.7182 36.462 7.71722 36.4242C7.71635 36.3865 7.8592 35.7377 8.03466 34.9823C8.30079 33.8367 8.53039 33.0086 9.20407 30.7639C9.23288 30.6676 9.50912 30.4285 9.81775 30.2324C10.5146 29.7899 11.8758 28.473 12.4882 27.6491C13.8825 25.7733 14.7843 23.2493 14.7803 21.2341C14.7787 20.3607 14.7011 19.9867 14.5245 20.0004C14.4568 20.0057 14.1812 20.0709 13.9122 20.1453Z" fill="white"/>
</svg>
