<svg width="51" height="66" viewBox="0 0 51 66" fill="none" xmlns="http://www.w3.org/2000/svg">
<g opacity="0.8" clip-path="url(#clip0)">
<path d="M50.9968 27.4983C50.9968 26.947 50.8738 26.8182 50.3119 26.8118C49.75 26.8055 49.1372 26.7907 48.5519 26.8118C48.1575 26.8309 47.9794 26.7421 48.0112 26.2965C48.0536 25.686 48.024 25.0693 48.0112 24.4546C48.0112 23.9287 47.9201 23.8379 47.3751 23.8358H45.2547C45.1148 23.8358 44.9091 23.8717 44.9621 23.6245C45.1084 22.9571 45.0066 22.2833 45.0257 21.6137C45.0448 20.9801 44.9176 20.8744 44.3005 20.8744H39.3833C39.0716 20.8744 38.9592 20.7836 38.9719 20.4647C38.9953 19.831 38.9719 19.1974 38.9719 18.5764C38.9719 17.9554 38.9465 17.9026 38.2743 17.9026H30.6218C30.0599 17.9026 30.0853 17.9026 30.1171 17.3555C30.1532 16.7219 30.1341 16.0882 30.1171 15.4693C30.1171 15.1377 29.9645 14.9856 29.5849 14.9898C27.9607 15.0131 26.3364 14.9898 24.708 15.0046C24.3072 15.0046 24.1652 14.8821 24.1673 14.4576C24.1842 10.8668 24.1673 7.27608 24.1673 3.67267C24.1673 3.13617 24.0167 2.98198 23.4739 2.97564C22.9311 2.9693 22.3607 2.97564 21.8051 2.97564C21.1945 2.97564 21.1945 2.97564 21.1945 2.39056V0.457893C21.1945 0.155848 21.0906 -0.00679159 20.7428 -0.00467939C18.9518 0.00940196 17.1544 0.0108101 15.3506 -0.000454985C15.0771 -0.000454985 14.9774 0.092482 14.9817 0.362844C14.9923 1.05142 14.9583 1.74211 14.9944 2.42858C15.0177 2.88059 14.8396 3.00099 14.4198 2.98198C13.8048 2.95663 13.1878 2.98198 12.5708 2.98198C12.3948 2.98198 12.1997 2.94396 12.0979 3.15095C11.9346 3.31359 12.0067 3.52059 12.0067 3.70646V29.3317C12.0067 29.6992 11.8965 29.7964 11.5466 29.7816C10.9614 29.7563 10.374 29.7584 9.78668 29.7816C9.41985 29.7943 9.27142 29.6802 9.28838 29.2958C9.31595 28.6833 9.29898 28.0665 9.28838 27.454C9.28838 26.985 9.12935 26.8203 8.6777 26.8203H0.601079C0.115506 26.8203 -0.0117188 26.9555 -0.0117188 27.4349C-0.00465073 30.1259 -0.00111672 32.819 -0.00111672 35.5141C-0.00111672 36.0063 0.13671 36.1478 0.635005 36.1478C1.27113 36.1478 1.90725 36.1605 2.53065 36.1478C2.86143 36.1478 2.99078 36.2597 2.98229 36.5935C2.96533 37.2271 2.98229 37.8819 2.98229 38.5261C2.98229 38.9359 3.18161 39.1281 3.59085 39.126C4.22697 39.126 4.86309 39.1408 5.48649 39.126C5.87029 39.1112 5.97419 39.2633 5.97207 39.6287C5.9551 41.2319 5.97207 42.835 5.97207 44.4382C5.97207 44.9895 6.05264 45.0718 6.59123 45.0718H8.5314C8.88126 45.0718 9.0509 45.1901 9.04454 45.6062C9.01485 47.2242 9.04454 48.8421 9.02545 50.4643C9.02545 50.8656 9.14207 51.0346 9.56615 51.0156C10.2023 50.9881 10.8596 51.0156 11.5063 51.0008C11.8944 50.986 12.0301 51.1085 12.0258 51.512C12.0046 53.1595 12.0258 54.8091 12.011 56.4566C12.011 56.8305 12.1403 56.9614 12.5114 56.9488C13.1263 56.9276 13.7455 56.9488 14.3604 56.9488C14.9753 56.9488 14.9965 56.9488 14.9965 57.5571V65.4229C14.9965 65.9805 15.0389 66.0207 15.5775 66.0207H44.415C44.907 66.0207 45.0512 65.8749 45.0512 65.387C45.0512 64.578 45.0639 63.7691 45.0512 62.9601C45.013 60.9577 45.1466 58.9469 44.9748 56.9509H47.4112C48.0282 56.9509 48.0303 56.9509 48.0303 56.3172V48.5422C48.0303 48.162 48.1469 48.0395 48.518 48.0522C49.1541 48.0733 49.7903 48.0522 50.4137 48.0522C50.9883 48.0522 51.0201 48.0141 51.0201 47.4291C51.006 40.777 50.9982 34.1334 50.9968 27.4983ZM44.6843 48.3838V56.1609C44.6843 56.5622 44.5507 56.689 44.1627 56.6742C43.5266 56.6509 42.8693 56.6742 42.2225 56.6742C41.8515 56.6742 41.6861 56.8157 41.6903 57.2128C41.7073 58.8603 41.6903 60.5099 41.7073 62.1575C41.7073 62.5186 41.597 62.6179 41.2429 62.6158C33.707 62.6059 26.1711 62.6059 18.6351 62.6158C18.2386 62.6158 18.1432 62.4468 18.1496 62.1047C18.1736 60.5557 18.192 59.0138 18.2047 57.4789C18.2047 56.6826 18.2047 56.6742 17.4074 56.6763C16.8201 56.6763 16.2327 56.6615 15.6475 56.6763C15.2637 56.6911 15.1619 56.5369 15.1683 56.1694C15.2022 54.5113 15.2064 52.8511 15.2319 51.193C15.2319 50.8128 15.0198 50.741 14.7103 50.741C14.0487 50.741 13.385 50.722 12.7256 50.741C12.3163 50.7558 12.1743 50.6291 12.1785 50.2045C12.2018 48.5866 12.1891 46.9686 12.1891 45.3464C12.1891 44.8036 12.1424 44.7614 11.5933 44.7698C11.0441 44.7782 10.4801 44.8015 9.9245 44.7888C9.27566 44.774 9.27566 44.7592 9.27354 44.1256V39.4513C9.27354 38.8303 9.27354 38.8303 8.65226 38.8303H6.80115C6.43644 38.8303 6.28377 38.6803 6.29013 38.317C6.30285 37.6284 6.29013 36.9377 6.30073 36.2492C6.30073 35.9598 6.19895 35.8267 5.9233 35.8267C5.26173 35.8267 4.60016 35.7993 3.94072 35.8267C3.42334 35.8415 3.31732 35.776 3.31732 35.2776V30.5568C3.31732 30.2188 3.41274 30.1217 3.7414 30.1343C5.30485 30.1498 6.869 30.1498 8.43386 30.1343C8.80705 30.1343 8.94276 30.2569 8.93215 30.6286C8.91095 31.3467 8.93215 32.067 8.91731 32.7852C8.91731 33.0935 9.00001 33.2076 9.32231 33.2076C10.0136 33.1865 10.7069 33.2203 11.3982 33.1928C11.8053 33.1759 11.9198 33.3301 11.905 33.7145C11.8795 34.4031 11.905 35.0938 11.8901 35.7824C11.8901 36.0717 11.9728 36.1795 12.2739 36.1731C13.1009 36.1562 13.93 36.152 14.7548 36.1731C15.1428 36.1837 15.2404 36.0316 15.2382 35.6725C15.2255 33.2604 15.2382 30.8483 15.2382 28.4361V19.7613V3.98316C15.2382 3.36217 15.2382 3.36428 15.8744 3.36428H20.1576C20.9061 3.36428 20.9421 3.40442 20.9421 4.14791C20.9421 8.89826 20.9676 13.6528 20.9124 18.3968C20.87 22.184 20.8849 25.9691 20.8446 29.7563C20.8446 30.1343 20.9379 30.2442 21.3153 30.2315C22.138 30.2019 22.9629 30.2146 23.7877 30.2167C23.9998 30.2167 24.0973 30.128 24.1079 29.9273V29.4774V18.8235C24.1079 18.2574 24.1079 18.2574 24.6889 18.2574H29.3368C29.7143 18.2574 29.9263 18.3292 29.8118 18.7644C29.7913 18.8979 29.7878 19.0334 29.8012 19.1678V29.4162C29.8012 30.1238 29.8309 30.1512 30.5306 30.1491H32.4263C32.9818 30.1491 33.02 30.1069 33.02 29.5619V21.7848C33.02 21.1892 33.02 21.1871 33.6158 21.1871H37.9923C38.7239 21.1871 38.7217 21.1871 38.7217 21.901V32.5106C38.7217 33.0619 38.7917 33.1294 39.3579 33.1294H41.4783C41.79 33.1294 41.9023 33.0091 41.9023 32.707C41.9808 30.0858 41.9617 27.4666 41.9723 24.8454C41.9723 24.1526 41.9617 24.1526 42.689 24.1526C43.1852 24.1526 43.6814 24.1653 44.1733 24.1526C44.5486 24.1399 44.6822 24.3068 44.6758 24.6659C44.6631 25.3544 44.6758 26.0451 44.6758 26.7337C44.6758 27.0273 44.7734 27.1308 45.066 27.1245C45.7572 27.1097 46.4506 27.1245 47.1419 27.1245C47.5511 27.1139 47.7165 27.3124 47.7377 27.6842V27.9989C47.7377 33.4674 47.7377 38.938 47.7271 44.4065C47.7271 45.452 47.6084 46.4976 47.7271 47.541C47.761 47.8283 47.5596 47.8114 47.3794 47.8135H45.3035C44.7395 47.7691 44.6843 47.8367 44.6843 48.3817V48.3838Z" fill="white"/>
</g>
<defs>
<clipPath id="clip0">
<rect width="51" height="66" fill="white"/>
</clipPath>
</defs>
</svg>
