<svg width="57" height="62" viewBox="0 0 57 62" fill="none" xmlns="http://www.w3.org/2000/svg">
<path opacity="0.8" d="M9.7317 61.9767C7.12243 62.055 7.12243 62.055 6.34756 59.9556C4.30759 54.519 2.28341 49.0824 0.211813 43.6615C0.0554154 43.3239 -0.0162151 42.9537 0.00307765 42.5827C0.0223704 42.2117 0.131954 41.8509 0.32251 41.5308C7.61787 27.9525 14.8976 14.374 22.1613 0.795635C22.6041 -0.0504025 22.8887 -0.254078 23.7427 0.341282C34.5704 7.54828 45.4233 14.7187 56.3032 21.8526C57.0622 22.3539 57.2204 22.6673 56.6827 23.4193C48.7015 35.5145 40.7472 47.6254 32.8198 59.7519C32.717 60.0037 32.5462 60.2221 32.3264 60.3825C32.105 60.5431 31.844 60.6395 31.5705 60.6606C24.2329 61.115 16.8479 61.5693 9.7317 61.9767ZM15.4088 43.6615C14.6186 43.6387 13.8316 43.7712 13.0934 44.0518C12.3552 44.3323 11.6804 44.755 11.1084 45.2956C10.5363 45.8362 10.078 46.4839 9.76031 47.2011C9.44262 47.9184 9.27151 48.6909 9.25728 49.4741C9.20399 50.2785 9.31627 51.0852 9.587 51.8452C9.85773 52.6054 10.2815 53.3031 10.8326 53.8961C11.3836 54.4893 12.0505 54.9652 12.7928 55.2953C13.5351 55.6255 14.3373 55.8026 15.1507 55.8164C15.9642 55.8304 16.772 55.6803 17.5253 55.3756C18.2785 55.0708 18.9614 54.6177 19.5326 54.0438C20.1039 53.4698 20.5515 52.7868 20.8484 52.0364C21.1453 51.2859 21.2854 50.4836 21.2599 49.6778C21.277 48.1148 20.6731 46.6078 19.5783 45.4821C18.4837 44.3565 16.9861 43.7026 15.4088 43.6615Z" fill="white"/>
</svg>
