<svg width="118" height="30" viewBox="0 0 118 30" fill="none" xmlns="http://www.w3.org/2000/svg">
<g opacity="0.8">
<path fill-rule="evenodd" clip-rule="evenodd" d="M0.576793 0H9.28982C9.64164 0.0727886 9.87364 0.421497 9.86089 0.769359C9.86514 2.54168 9.86684 4.314 9.86344 6.08631C9.87873 6.46888 9.59065 6.86667 9.19125 6.89122C8.83773 6.91661 8.48166 6.90307 8.12729 6.90984C8.12899 8.31229 8.13494 9.71389 8.12559 11.1163C8.54709 11.1375 8.97455 11.0901 9.39095 11.168C9.73342 11.2552 9.88638 11.6182 9.86599 11.9433C9.86599 13.7384 9.87364 15.5353 9.86174 17.3305C9.87874 17.6512 9.67733 17.9779 9.35016 18.0431C8.93545 18.1024 8.5131 18.0592 8.09585 18.0787C8.08735 21.5344 8.09925 24.9902 8.0899 28.446C8.12474 28.8522 7.79927 29.1408 7.4551 29.2847H0.689817C0.330351 29.1535 -0.0172188 28.8607 0.0159235 28.4417C0.00657572 19.2424 0.0023267 10.0431 0.00317651 0.84384C-0.0299658 0.469741 0.198631 0.0880234 0.576793 0ZM11.2903 0H21.3392C21.4819 0.131189 21.6417 0.261531 21.7165 0.446042C21.7896 0.684721 21.7811 0.936942 21.7853 1.18408C21.7845 2.76258 21.7768 4.34193 21.787 5.92042C21.8338 6.347 21.5975 6.87768 21.1148 6.89799C17.9757 6.9073 14.8356 6.90307 11.6965 6.90476C11.2444 6.942 10.8594 6.52812 10.8798 6.08716C10.8722 4.50951 10.8824 2.93186 10.8756 1.35421C10.8781 1.08929 10.8569 0.821834 10.8976 0.55861C10.9333 0.321624 11.1211 0.152348 11.2903 0ZM24.5268 0H30.857C31.0873 0.193821 31.3125 0.444349 31.2895 0.767666C31.3023 2.5366 31.2929 4.30638 31.298 6.07616C31.2938 6.34361 31.2547 6.64916 31.032 6.82943C30.8604 6.99194 30.6105 6.99363 30.3896 6.99532C28.6296 6.99786 26.8705 6.99617 25.1106 7.00125C24.8854 6.99702 24.6296 7.00548 24.4546 6.83959C24.2345 6.66185 24.1605 6.3707 24.1724 6.09901C24.1784 4.31823 24.169 2.5366 24.1767 0.75497C24.1631 0.46043 24.2693 0.164198 24.5268 0ZM35.6108 0H43.44C43.6924 0.10749 43.9397 0.256453 44.0841 0.496825C45.5756 2.86499 47.0381 5.25263 48.5431 7.61234C50.105 5.2137 51.6763 2.82098 53.2408 0.42319C53.3631 0.247143 53.5365 0.114261 53.7167 0H62.0668C62.2529 0.166737 62.4484 0.366482 62.4832 0.625474C62.4815 0.857382 62.3719 1.07236 62.2529 1.26534C59.786 4.79051 57.313 8.31144 54.8469 11.8366C54.6523 12.1464 54.2903 12.3165 53.9283 12.2911C50.3854 12.2903 46.8426 12.2894 43.2998 12.3013C43.0593 12.3013 42.8077 12.2623 42.608 12.1202C42.4083 11.9746 42.2894 11.7528 42.1508 11.5556C39.7722 8.14132 37.3919 4.72787 35.0108 1.31527C34.7831 1.01735 34.7355 0.572999 34.9862 0.272534C35.1247 0.0677103 35.3847 0.0355479 35.6108 0ZM24.6347 8.07361C24.7622 8.0423 24.8956 8.04568 25.0273 8.0423C26.8442 8.03891 28.6602 8.04145 30.4763 8.0406C30.93 7.99828 31.3337 8.43502 31.2963 8.87936C31.3099 15.3719 31.2997 21.8645 31.3031 28.3571C31.3227 28.6821 31.1799 29.035 30.8689 29.1755C30.5723 29.2526 30.2621 29.2229 29.9596 29.2255C28.2608 29.2162 26.5612 29.2263 24.8625 29.2145C24.5404 29.2339 24.2625 28.9741 24.2081 28.6694C24.1554 28.3689 24.1801 28.0634 24.1758 27.7612C24.1767 21.6114 24.1741 15.4608 24.1724 9.31102C24.1554 8.86752 24.1376 8.27166 24.6347 8.07361ZM11.303 11.2035C11.4449 11.1231 11.6174 11.1392 11.7746 11.129C14.494 11.1214 17.2134 11.1265 19.9336 11.1223C20.1562 11.1138 20.3823 11.1731 20.565 11.3034C20.7503 11.4896 20.7758 11.7655 20.7724 12.0144C20.7656 13.8205 20.7775 15.6275 20.7622 17.4337C20.763 17.8222 20.3933 18.093 20.0211 18.0643C17.3001 18.0685 14.5781 18.0651 11.8562 18.0719C11.3676 18.1531 10.8475 17.7773 10.8798 17.2619C10.873 15.4879 10.8807 13.7139 10.8764 11.9407C10.8603 11.6369 11.0464 11.3542 11.303 11.2035ZM43.2496 13.7435C43.4731 13.377 43.9371 13.3618 44.3204 13.3762C46.105 13.3787 47.8904 13.388 49.6758 13.3669C50.8392 13.3584 52.0018 13.3923 53.1651 13.3669C53.4575 13.3508 53.7693 13.4481 53.9206 13.7156C57.1116 18.3546 60.2865 23.0046 63.4792 27.6427C63.695 27.9568 63.9933 28.3292 63.831 28.732C63.7562 29.0274 63.469 29.1713 63.2141 29.2847H55.4214C55.2098 29.1434 54.9616 29.0333 54.8248 28.8091C53.5127 26.815 52.2091 24.815 50.8885 22.8268C50.1118 21.6724 49.3776 20.4883 48.5788 19.3491C46.4848 22.4468 44.4334 25.5742 42.3616 28.6872C42.1695 28.9597 41.8517 29.1654 41.5092 29.1569C39.0754 29.1578 36.6407 29.1595 34.206 29.1628C34.0199 29.1561 33.8262 29.1603 33.652 29.0875C33.3324 28.9072 33.1591 28.4891 33.2993 28.143C33.403 27.8916 33.5806 27.6808 33.731 27.4574C36.9025 22.8852 40.079 18.3165 43.2496 13.7435ZM109.175 19.0562C110.148 17.9094 111.66 17.2932 113.154 17.3017C113.82 17.3745 114.49 17.4913 115.1 17.7824C116.028 18.2022 116.815 18.9183 117.335 19.79C117.657 20.3097 117.829 20.9005 118 21.4811V22.9741C117.798 24.6474 116.681 26.1743 115.141 26.8751C113.646 27.597 111.796 27.5039 110.384 26.6322C109.044 25.8374 108.112 24.3876 107.976 22.8379C107.828 21.4828 108.274 20.0812 109.175 19.0562Z" fill="white"/>
<path fill-rule="evenodd" clip-rule="evenodd" d="M64.9041 3.48807C67.0575 1.67767 70.4873 1.6472 72.6764 3.4102C73.4421 4.07292 74.1797 4.82535 74.5477 5.78684C74.97 6.6713 75.0601 7.6658 75.0389 8.63321C75.0363 9.56423 75.083 10.513 74.8357 11.4212C74.4516 12.8829 73.4693 14.1973 72.1291 14.9193C70.8136 15.7047 69.2126 15.8901 67.7127 15.6878C66.9428 15.5278 66.1712 15.3052 65.5075 14.8719C65.1582 14.6772 64.8752 14.3877 64.5293 14.1888C64.4928 16.0204 64.5251 17.8537 64.5166 19.6861C63.8818 19.6785 63.247 19.6759 62.6122 19.6844C62.5544 19.2756 62.579 18.8626 62.5756 18.4512C62.5773 17.3788 62.5714 16.3065 62.5782 15.2341C62.6351 14.4453 62.6028 13.6548 62.6122 12.8651C62.6266 11.2299 62.6139 9.5947 62.6419 7.95949C62.6649 6.98954 62.8875 5.98997 63.456 5.18591C63.7705 4.50034 64.3483 3.98151 64.9041 3.48807ZM68.2421 4.03483C66.4023 4.2532 64.7554 5.81646 64.5922 7.68103C64.5506 8.49948 64.5999 9.32047 64.5693 10.1398C64.5098 10.4148 64.6415 10.6755 64.6984 10.9387C65.0919 12.5587 66.5808 13.8232 68.2345 14.012C69.0001 14.0763 69.799 14.045 70.5111 13.731C71.847 13.163 72.9186 11.9011 73.0767 10.4402C73.1268 9.69796 73.0817 8.95314 73.0962 8.21002C73.1098 7.65395 73.0257 7.0928 72.8115 6.57736C72.2617 5.31964 71.0762 4.35561 69.7242 4.08308C69.2364 3.99421 68.7359 4.00098 68.2421 4.03483ZM79.4706 3.1072C81.3928 1.85879 84.0204 1.75384 86.0124 2.90576C86.6191 3.21215 87.1095 3.68697 87.5853 4.16179C87.2743 4.52742 86.8953 4.82535 86.5673 5.1749C86.4577 5.27562 86.3642 5.40512 86.2248 5.46521C85.8925 5.21553 85.6469 4.86005 85.2679 4.66962C84.3094 4.0306 83.0984 3.88841 81.9817 4.09239C80.7359 4.35561 79.6558 5.21299 79.0559 6.3226C78.7771 6.85074 78.6616 7.44828 78.6386 8.0399C78.6293 10.5985 78.6531 13.1563 78.6276 15.714C77.9936 15.7081 77.3605 15.7073 76.7274 15.714C76.7308 13.5227 76.7274 11.3323 76.7291 9.14104C76.7385 8.38945 76.6696 7.62263 76.888 6.89221C77.0291 5.78176 77.6341 4.77795 78.4364 4.01113C78.778 3.70644 79.0244 3.27648 79.4706 3.1072ZM93.6028 6.85581C94.1254 4.32514 96.4785 2.32938 99.0526 2.13386C100.031 2.02553 101.034 2.16518 101.955 2.5105C102.19 2.62053 102.399 2.78558 102.656 2.85159C103.273 3.19522 103.848 3.62688 104.325 4.14825C103.908 4.59598 103.46 5.0124 103.022 5.43898C102.688 5.31964 102.496 5.00055 102.221 4.79827C101.396 4.17702 100.335 3.92903 99.3135 4.01875C98.3778 4.03145 97.5263 4.49188 96.8032 5.04626C96.1123 5.70643 95.5387 6.54519 95.418 7.51007C95.378 8.58751 95.3101 9.67426 95.4732 10.7449C95.8242 12.6146 97.6564 14.0543 99.5548 14.034C100.637 14.0898 101.752 13.7047 102.529 12.9447C102.673 12.8059 102.823 12.6747 102.964 12.5333C103.312 12.7999 103.573 13.1605 103.925 13.4254C104.049 13.5795 104.321 13.6971 104.284 13.9248C104.066 14.1931 103.768 14.3793 103.49 14.5799C103.106 14.8423 102.706 15.0936 102.261 15.2384C101.927 15.3475 101.617 15.5295 101.267 15.5837C99.8964 15.8943 98.4339 15.8029 97.1235 15.2917C96.1021 14.877 95.1596 14.2109 94.5376 13.2917C93.76 12.254 93.4388 10.932 93.4685 9.65056C93.4983 8.7187 93.3903 7.77329 93.6028 6.85581ZM108.126 3.21808C109.737 2.07292 111.902 1.79616 113.769 2.42417C113.989 2.4995 114.158 2.68232 114.389 2.73056C114.958 2.84228 115.371 3.27563 115.817 3.60826C116.333 3.99928 116.705 4.53673 117.096 5.04372C117.582 5.87232 117.886 6.82281 117.904 7.78598C117.919 8.51049 117.969 9.23753 117.898 9.96033C115.325 9.94764 112.753 9.95779 110.182 9.95441C109.28 9.97388 108.375 9.91548 107.476 9.98488C107.468 10.7043 107.669 11.4195 108.039 12.0365C108.466 12.7297 109.114 13.2671 109.839 13.6302C111.266 14.3014 113.066 14.1558 114.317 13.1757C114.576 12.9938 114.77 12.7339 115.029 12.5528C115.145 12.618 115.238 12.7178 115.336 12.8092C115.693 13.1639 116.111 13.461 116.405 13.8757C115.075 15.2028 113.158 15.8892 111.284 15.7411C109.731 15.6615 108.178 15.0369 107.104 13.8994C106.207 13.0412 105.775 11.8241 105.511 10.6408C105.58 9.54645 105.489 8.44616 105.562 7.35095C105.764 5.68527 106.778 4.19057 108.126 3.21808ZM110.262 4.23796C109.441 4.54435 108.7 5.08942 108.193 5.80461C107.689 6.42755 107.476 7.24092 107.474 8.03059C107.92 8.09576 108.372 8.05175 108.822 8.0619C111.197 8.05513 113.573 8.07629 115.949 8.05175C116.009 6.98023 115.499 5.93326 114.722 5.21299C114.127 4.59767 113.327 4.16687 112.476 4.04668C111.737 3.98828 110.963 3.9595 110.262 4.23796ZM89.2535 2.359C89.8985 2.34715 90.5537 2.2879 91.1936 2.39286C91.1792 6.82788 91.214 11.2638 91.1851 15.6979C90.5384 15.7089 89.8875 15.736 89.2425 15.6776C89.2323 12.8499 89.2399 10.0221 89.234 7.19352C89.2476 5.58201 89.2034 3.96966 89.2535 2.359ZM84.2941 17.3873C85.4421 17.1994 86.6523 17.4356 87.6499 18.0297C88.1284 18.3158 88.617 18.6222 88.9688 19.0615C89.1932 19.4626 89.483 19.8266 89.6665 20.2506C90.0948 21.1892 90.2053 22.2523 90.0387 23.2663C89.7583 24.7474 88.781 26.0923 87.4307 26.7804C85.8364 27.6607 83.7782 27.5269 82.2724 26.5214C81.0886 25.7148 80.249 24.4038 80.062 22.9819C80.0255 22.3022 79.9957 21.5964 80.2396 20.948C80.3722 20.6239 80.441 20.2743 80.6204 19.9696C80.9084 19.4398 81.3478 19.0166 81.7752 18.5985C82.444 17.9248 83.3627 17.5329 84.2941 17.3873ZM98.2308 17.3899C100.128 17.0623 102.167 17.9425 103.217 19.5507C104.191 20.9379 104.338 22.8338 103.642 24.3699C103.144 25.5752 102.108 26.5189 100.902 27.0005C100.378 27.2569 99.7877 27.2959 99.22 27.3704C98.4178 27.3864 97.6037 27.2222 96.8788 26.8778C95.7978 26.3919 94.9378 25.4821 94.4305 24.4224C94.179 23.8985 94.0999 23.3179 93.9232 22.7694C93.8526 22.601 93.9903 22.441 93.9869 22.2718C94.0209 21.5701 94.1492 20.8625 94.4594 20.2261C94.8546 19.4753 95.3483 18.75 96.0732 18.2786C96.7335 17.8664 97.4422 17.4745 98.2308 17.3899Z" fill="white"/>
</g>
</svg>
