<svg width="171" height="44" viewBox="0 0 171 44" fill="none" xmlns="http://www.w3.org/2000/svg">
<g opacity="0.8">
<path fill-rule="evenodd" clip-rule="evenodd" d="M15.4948 23.8502H9.21882L12.5521 13.0305L15.4948 23.8502ZM6.27603 34.7888L8.23909 28.1961H16.2793L18.2424 34.7888H24.9125L17.8447 9.76294C17.4543 8.11835 16.6698 7.5918 14.9019 7.5918H5.10108V9.84229H5.88558C7.06053 9.84229 7.64981 10.2138 7.64981 11.1154C7.64981 11.6816 7.64981 12.0531 7.06053 13.4056L0 34.7888H6.27603Z" fill="white"/>
<path fill-rule="evenodd" clip-rule="evenodd" d="M33.34 34.7888V9.58983C33.34 8.27704 32.5555 7.5918 31.1817 7.5918H25.1045V9.84229H25.4985C26.6735 9.84229 27.2628 10.3328 27.2628 11.3895V34.7888H33.34Z" fill="white"/>
<path fill-rule="evenodd" clip-rule="evenodd" d="M44.3224 34.7888V9.58983C44.3224 8.27704 43.5379 7.5918 42.1677 7.5918H36.0869V9.84229H36.4774C37.6559 9.84229 38.2416 10.3328 38.2416 11.3895V34.7888H44.3224Z" fill="white"/>
<path fill-rule="evenodd" clip-rule="evenodd" d="M55.5011 9.99751C55.5011 8.19783 54.1273 7.14111 51.969 7.14111C49.6155 7.14111 48.4406 8.19783 48.4406 9.99751C48.4406 11.8369 49.6155 12.9152 51.969 12.9152C54.1273 12.9152 55.5011 11.8369 55.5011 9.99751ZM55.3059 34.789V16.4352C55.3059 15.1657 54.5214 14.4191 53.3464 14.4191H47.2656V16.63H47.6597C48.8346 16.63 49.2287 17.1205 49.2287 18.2349V34.7854H55.3059V34.789Z" fill="white"/>
<path fill-rule="evenodd" clip-rule="evenodd" d="M69.8169 24.907V28.9788C68.642 30.1509 67.2682 30.8181 66.0896 30.8181C64.9147 30.8181 64.3254 30.2519 64.3254 28.7263C64.3254 27.0457 64.7195 26.4001 66.0896 25.8699C67.073 25.4552 68.0527 25.1991 69.8169 24.907ZM61.1874 20.0345L61.7767 19.8001C63.3457 19.1726 64.3254 18.9381 65.504 18.7253C66.0896 18.646 66.8778 18.5703 67.2682 18.5703C69.2277 18.5703 69.8169 19.2158 69.8169 21.0155V21.524C67.073 21.9749 66.2849 22.1299 64.7195 22.4617C63.935 22.6565 63.1505 22.9126 62.366 23.2444C59.8172 24.2614 58.6387 26.2198 58.6387 29.2889C58.6387 33.1444 60.2077 34.9837 63.7361 34.9837C65.1099 34.9837 66.4801 34.6699 67.4598 34.046C68.4395 33.5952 68.8336 33.3608 70.0085 32.286V32.9099C70.0085 34.183 70.5978 34.7889 71.7728 34.7889H77.6547V32.6971H77.4595C76.2846 32.6971 75.6953 32.167 75.6953 31.1139V21.1093C75.6953 15.905 73.9311 14.145 68.83 14.145C67.0658 14.145 65.4967 14.3398 63.9277 14.7112C62.3587 15.0827 61.5742 15.3568 59.81 16.2765L61.1874 20.0345Z" fill="white"/>
<path fill-rule="evenodd" clip-rule="evenodd" d="M86.8811 34.7888V20.9757C88.2549 19.7026 89.2346 19.2157 90.6048 19.2157C91.9785 19.2157 92.369 19.8036 92.369 21.8774V34.7888H98.4498V20.8964C98.4498 18.04 98.0594 16.8065 97.2749 15.7318C96.2951 14.6751 95.1202 14.1846 93.3523 14.1846C90.9988 14.1846 89.2346 15.0465 86.487 17.4124V16.316C86.487 15.0429 85.8977 14.419 84.7228 14.419H78.8408V16.6298H79.036C80.211 16.6298 80.8003 17.1203 80.8003 18.2347V34.7852H86.8811V34.7888Z" fill="white"/>
<path fill-rule="evenodd" clip-rule="evenodd" d="M117.278 30.8937H108.258L116.888 18.6062V14.4189H103.945C102.376 14.4189 101.787 15.0465 101.787 16.5504V20.2471H103.945V19.836C103.945 18.7216 104.534 18.2707 105.709 18.2707H110.416L101.588 30.5583V34.7852H117.278V30.8937Z" fill="white"/>
<path fill-rule="evenodd" clip-rule="evenodd" d="M151.991 33.6708V10.6249C151.991 8.76754 151.207 8.15803 149.439 8.15803H144.146V10.7007H144.732C145.711 10.7007 146.106 11.0721 146.106 12.2082V33.6708H151.991ZM145.824 44C134.891 42.5285 126.891 33.6384 126.891 22.0902C126.891 9.47443 136.496 0.00721311 149.041 0H149.059C160.697 0.00360656 169.55 7.89836 171 18.8767V25.3072C169.688 35.2613 162.323 42.6692 152.32 44H145.824ZM155.129 33.6708H160.816V16.2764C160.816 14.5164 160.031 13.8095 158.267 13.8095H155.129V33.6708ZM142.971 33.6708V13.8131H139.833C138.069 13.8131 137.284 14.5164 137.284 16.28V33.6744H142.971V33.6708ZM167.486 22.0902C167.486 32.8702 159.641 40.7325 149.048 40.7325C138.459 40.7325 130.614 32.8702 130.614 22.0902C130.614 11.3102 138.459 3.44426 149.048 3.44426C159.641 3.44426 167.486 11.3066 167.486 22.0902Z" fill="white"/>
</g>
</svg>
