<svg width="136" height="69" viewBox="0 0 136 69" fill="none" xmlns="http://www.w3.org/2000/svg">
<g clip-path="url(#clip0)">
<path fill-rule="evenodd" clip-rule="evenodd" d="M61.3594 34.103C61.2937 33.849 61.1296 33.6125 60.8857 33.4972C60.5952 33.349 60.2601 33.3603 59.9428 33.3578C58.8135 33.3585 57.6841 33.3578 56.5548 33.3578C56.3154 33.3597 56.067 33.3755 55.8481 33.4808C55.6265 33.581 55.4497 33.7714 55.3654 33.9978C55.2748 34.2216 55.2735 34.4675 55.2914 34.7045C55.3175 34.9977 55.4797 35.277 55.7325 35.4359C56.0255 35.62 56.383 35.666 56.724 35.6566C57.3547 35.6566 57.9861 35.6553 58.6175 35.6572C58.5511 36.2587 58.3072 36.8456 57.8916 37.2952C57.3234 37.9238 56.4826 38.2857 55.6342 38.3216C54.7723 38.3563 53.8722 38.1533 53.1872 37.6167C52.4932 37.0878 52.0732 36.2795 51.8778 35.4491C51.6888 34.6642 51.6818 33.8471 51.761 33.0476C51.8555 32.1385 52.121 31.2129 52.7116 30.4929C53.0033 30.1379 53.3749 29.8486 53.7924 29.6525C54.2954 29.4192 54.8534 29.3076 55.4082 29.3133C55.8117 29.3095 56.2183 29.3454 56.6071 29.4564C57.0642 29.58 57.4843 29.8385 57.7926 30.1947C58.0455 30.4721 58.2331 30.8037 58.5083 31.0629C58.7119 31.2558 58.9903 31.3642 59.2718 31.3674C59.6696 31.3743 60.0979 31.2829 60.3897 30.9986C60.638 30.7665 60.7357 30.4172 60.7363 30.0875C60.7459 29.7035 60.5825 29.3398 60.3769 29.0226C60.0788 28.5712 59.6721 28.1973 59.2214 27.8972C58.3666 27.331 57.3528 27.0284 56.3326 26.9357C55.3284 26.8519 54.3063 26.9263 53.3315 27.1829C52.3023 27.454 51.3249 27.9615 50.5678 28.7074C49.863 29.3845 49.3618 30.2508 49.0643 31.1719C48.793 32.0262 48.6787 32.9259 48.6902 33.82C48.6883 34.5551 48.7649 35.2921 48.9373 36.0084C49.1314 36.816 49.4538 37.6016 49.9402 38.2813C50.3718 38.889 50.9355 39.4048 51.5854 39.778C52.1938 40.1305 52.8705 40.3612 53.5638 40.4842C54.2086 40.6058 54.8675 40.6393 55.5218 40.614C56.1622 40.585 56.8012 40.4564 57.3879 40.1998C57.8814 39.9829 58.3295 39.6702 58.7094 39.2919C58.8486 39.1646 58.9577 39.0088 59.0956 38.8808C59.1556 39.2415 59.2144 39.6097 59.3689 39.9451C59.4614 40.1494 59.6076 40.3404 59.8164 40.44C60.0194 40.5359 60.2505 40.5598 60.4733 40.5478C60.8021 40.5308 61.1162 40.3436 61.2815 40.063C61.3824 39.8997 61.4188 39.7055 61.4188 39.5164C61.4182 38.0139 61.4188 36.5115 61.4188 35.0091C61.415 34.7064 61.4373 34.3981 61.3594 34.103ZM79.0727 38.8121C78.9437 38.628 78.7273 38.5202 78.5077 38.4855C78.1751 38.437 77.822 38.5328 77.5041 38.3985C77.3017 38.3134 77.1989 38.0921 77.2028 37.8828C77.2015 36.7221 77.2028 35.5614 77.2021 34.4006C77.2072 33.784 77.1926 33.1668 77.2092 32.5514L77.4913 32.5432C77.732 32.5432 77.972 32.5495 78.2121 32.5376C78.4777 32.5205 78.7618 32.4745 78.9718 32.2999C79.1518 32.1517 79.224 31.9115 79.2208 31.687C79.2259 31.4588 79.1703 31.2123 78.9935 31.0534C78.7815 30.8643 78.486 30.8157 78.2114 30.7974C77.8788 30.7829 77.5456 30.7936 77.2136 30.7911V30.7842H77.2092C77.1919 30.2142 77.2098 29.6424 77.2009 29.0724C77.1862 28.732 77.063 28.3795 76.7961 28.1519C76.5063 27.9023 76.1028 27.8291 75.728 27.8518C75.391 27.8682 75.0424 27.9899 74.8164 28.2465C74.6 28.4829 74.5112 28.8076 74.508 29.121C74.5055 29.5819 74.5074 30.0421 74.5074 30.5024C74.5055 30.6001 74.5176 30.6997 74.4934 30.7955C74.1895 30.8012 73.8799 30.7722 73.5817 30.8435C73.3819 30.8901 73.1904 31.003 73.0876 31.1833C72.9701 31.3863 72.9657 31.6309 72.9886 31.8585C73.0142 32.0842 73.138 32.3081 73.3493 32.4121C73.7037 32.5987 74.1167 32.5338 74.501 32.5514C74.5157 32.7248 74.5036 32.8995 74.5074 33.0735V37.9389C74.4972 38.4439 74.5221 38.9697 74.7545 39.4306C74.9498 39.8373 75.3182 40.1469 75.7402 40.3083C76.3033 40.5315 76.9206 40.5649 77.5207 40.546C77.8207 40.5302 78.1233 40.4936 78.4087 40.3959C78.6047 40.3303 78.7937 40.2332 78.9412 40.087C79.111 39.9243 79.2106 39.6954 79.2246 39.4628C79.2412 39.2383 79.2061 38.9994 79.0727 38.8121ZM71.9717 32.7223C71.5344 32.008 70.8774 31.4342 70.1184 31.0704C69.2693 30.6631 68.3085 30.515 67.3707 30.5698C66.4641 30.6077 65.5544 30.8472 64.7877 31.334C64.072 31.7829 63.5064 32.4493 63.1565 33.2097C62.7505 34.0885 62.6113 35.0702 62.6528 36.0304C62.709 37.1023 63.0818 38.1785 63.8071 38.9899C64.4078 39.6715 65.239 40.1324 66.1219 40.3524C67.4109 40.6727 68.7911 40.5995 70.0469 40.1752C70.4727 40.0277 70.8883 39.8367 71.2522 39.57C71.5688 39.3348 71.8484 39.0277 71.9736 38.6507C72.0515 38.401 72.0789 38.1243 71.9832 37.8765C71.8682 37.5909 71.6352 37.3513 71.3447 37.2391C71.1066 37.1451 70.8366 37.1407 70.5908 37.2094C70.3246 37.292 70.112 37.4805 69.9071 37.6602C69.5725 37.9704 69.1863 38.2434 68.7362 38.3588C68.2268 38.4899 67.6848 38.5108 67.1683 38.4048C66.6595 38.3008 66.1807 38.0329 65.8557 37.6293C65.5027 37.1893 65.3341 36.6199 65.3431 36.062C67.3962 36.0557 69.4506 36.062 71.5037 36.0582C71.7559 36.0519 72.0215 36.033 72.2436 35.9056C72.4677 35.7713 72.5552 35.5034 72.5781 35.2587C72.665 34.3779 72.4364 33.477 71.9717 32.7223ZM69.2923 34.523H65.6814C65.5704 34.5217 65.4593 34.5299 65.3495 34.5148C65.4159 34.1705 65.5499 33.8376 65.728 33.5344C65.9381 33.1825 66.2388 32.8793 66.6065 32.6895C67.0585 32.4518 67.5864 32.3881 68.0914 32.4405C68.7209 32.5205 69.3012 32.8906 69.6447 33.4171C69.8598 33.7449 70.0022 34.1232 70.0424 34.5129C69.7934 34.5368 69.5425 34.516 69.2923 34.523Z" fill="white"/>
<path fill-rule="evenodd" clip-rule="evenodd" d="M79.2119 46.6381C79.2119 45.6041 78.9769 44.4547 78.1055 43.7851C77.1428 43.0639 75.8372 43.0254 74.6887 43.2001C73.846 43.3331 73.0397 43.8123 72.6356 44.572C72.167 45.4124 72.206 46.3972 72.2181 47.3253C72.2168 53.4668 72.2187 59.6103 72.2168 65.7524C72.2226 66.5948 72.4435 67.4919 73.0583 68.1111C73.6973 68.7649 74.6568 68.9969 75.5512 68.9931C76.5542 69.0322 77.6599 68.8361 78.3807 68.089C79.0599 67.374 79.2087 66.3539 79.2131 65.4132C79.2119 59.1544 79.2157 52.8963 79.2119 46.6381ZM69.5604 63.9329C67.7097 61.2237 65.8698 58.5094 64.0158 55.804C65.5538 53.5431 67.1019 51.2904 68.6424 49.032C68.9558 48.5693 69.3082 48.1235 69.5138 47.6015C69.7628 46.9691 69.8317 46.2705 69.7341 45.6009C69.4072 44.0235 67.7186 42.8911 66.1124 43.1376C64.999 43.2114 64.1065 44.0077 63.553 44.9118C62.2506 47.0031 60.954 49.0976 59.6593 51.194C58.334 49.0547 57.0246 46.9041 55.6993 44.7649C55.2422 44.0228 54.5483 43.3621 53.6615 43.1843C52.5871 42.9863 51.4035 43.1982 50.5422 43.8835C49.7257 44.5127 49.2214 45.512 49.1875 46.5322C49.1856 47.0813 49.3982 47.6084 49.7027 48.0605C51.4398 50.6385 53.1763 53.2178 54.9064 55.8015C53.2121 58.2648 51.5184 60.7294 49.826 63.1933C49.4091 63.7916 48.9781 64.3982 48.7413 65.0917C48.4495 65.958 48.7087 66.934 49.2559 67.6458C50.2818 69.0083 52.3738 69.4275 53.8332 68.5089C54.494 68.1382 54.8764 67.4718 55.2562 66.8495C56.6116 64.7166 57.9682 62.5843 59.321 60.4482C60.6731 62.5843 62.0285 64.7166 63.3832 66.8495C63.9399 67.7063 64.6319 68.5921 65.6636 68.8922C66.4361 69.0789 67.2724 69.0196 68.0161 68.7422C69.0503 68.3551 69.8528 67.415 70.0233 66.3312C70.1356 65.5135 70.0379 64.6302 69.5604 63.9329ZM47.0699 65.1346C46.7361 64.0873 46.5796 62.9865 46.5956 61.8895C46.5994 58.058 46.5956 54.2266 46.5982 50.3958C46.5943 49.404 46.4596 48.394 46.0255 47.4899C45.3673 46.0524 44.0567 45.0077 42.6209 44.3759C40.4931 43.4403 38.1354 43.1742 35.8282 43.1175C33.062 43.0626 30.2096 43.4661 27.7517 44.7813C26.45 45.4818 25.2364 46.4628 24.5699 47.7969C24.1371 48.6682 24.0126 49.771 24.5386 50.6309C25.0883 51.576 26.2349 52.0659 27.3138 51.9909C28.1935 51.9821 28.9283 51.4266 29.5348 50.8529C30.3009 50.1007 31.0887 49.3347 32.075 48.8706C33.3742 48.2578 34.861 48.1361 36.277 48.2937C37.331 48.4293 38.4648 48.7691 39.1377 49.6392C39.757 50.4752 39.748 51.7091 39.1639 52.5596C38.4502 53.4366 37.211 53.4864 36.1698 53.6169C33.424 53.9643 30.615 54.0627 27.9643 54.9182C26.4021 55.4245 24.8655 56.2485 23.8881 57.5915C22.8022 59.0485 22.5015 60.9387 22.6489 62.7059C22.8219 64.5722 23.8868 66.2991 25.4164 67.3898C26.9154 68.4761 28.7911 69.0467 30.6488 68.9912C32.2685 69.0045 33.9015 68.7605 35.4216 68.1975C37.1938 67.5436 38.7598 66.4119 40.0206 65.028C40.0768 66.1459 40.4062 67.3331 41.2828 68.1004C42.2027 68.9011 43.5038 69.082 44.6868 68.9673C45.714 68.8273 46.7418 68.2145 47.1338 67.2316C47.4179 66.5595 47.2864 65.8067 47.0699 65.1346ZM39.2443 61.1442C38.6525 62.5452 37.3674 63.5792 35.9291 64.059C34.8285 64.4278 33.6378 64.54 32.4874 64.3742C31.5835 64.2273 30.6737 63.8269 30.1062 63.0924C29.335 62.0975 29.4786 60.5573 30.3622 59.6752C31.0746 58.9653 32.0801 58.6664 33.0416 58.4502C34.4429 58.1671 35.8704 58.0328 37.2755 57.7667C38.0997 57.6009 38.9449 57.3632 39.6095 56.8286C39.5138 58.2648 39.8361 59.7799 39.2443 61.1442ZM29.84 35.5094C29.0158 34.7428 27.8481 34.4584 26.7424 34.4458C19.1383 34.4483 11.5349 34.4458 3.93146 34.4471C2.85957 34.471 1.74044 34.7598 0.932855 35.4899C-0.377158 36.6714 -0.300549 39.0212 1.11927 40.088C1.97154 40.7645 3.09514 40.9751 4.16384 40.9839C6.5917 40.9896 9.01893 40.9852 11.4474 40.9864V65.1869C11.4545 66.1673 11.7641 67.183 12.4746 67.8917C13.1999 68.6602 14.289 69.0152 15.3372 68.9944C16.3893 69.0297 17.488 68.6955 18.2356 67.9402C18.9711 67.2271 19.2979 66.1913 19.3062 65.1919C19.3075 57.123 19.3075 49.0547 19.3062 40.9864C21.5528 40.9871 23.7981 40.9852 26.0446 40.9871C27.2391 41.0123 28.5216 40.9007 29.5144 40.1763C31.0312 39.1599 31.1723 36.7281 29.84 35.5094Z" fill="white"/>
<path fill-rule="evenodd" clip-rule="evenodd" d="M136.001 34.0373C135.995 32.4402 136.005 30.8426 135.995 29.2456C136.022 29.0596 135.819 28.9814 135.667 29.0085C135.399 29.011 135.12 28.9757 134.862 29.0552C134.572 29.9152 134.366 30.801 134.108 31.6711C133.841 30.7909 133.612 29.9 133.352 29.0199C132.982 29.0287 132.592 28.9493 132.237 29.0653C132.169 29.697 132.226 30.3357 132.208 30.97C132.226 32.1269 132.172 33.2864 132.238 34.442C132.549 34.4105 132.969 34.5681 133.217 34.3613C133.287 33.5404 133.199 32.7114 133.272 31.8886C133.398 32.5216 133.515 33.159 133.71 33.775C133.97 33.8191 134.237 33.8002 134.503 33.7977C134.671 33.1798 134.811 32.5537 134.936 31.9264C135.007 32.7631 134.92 33.6048 134.994 34.442C135.289 34.4534 135.587 34.4717 135.883 34.4458C136.047 34.3765 135.973 34.1709 136.001 34.0373ZM131.785 29.0255C130.847 29.0041 129.908 28.9902 128.972 29.0337C128.961 29.349 128.961 29.6655 128.97 29.982C129.273 30.0009 129.577 30.0047 129.883 30.0053C129.885 31.4737 129.878 32.9415 129.887 34.4105C130.202 34.4288 130.623 34.5681 130.873 34.3456C130.909 32.8992 130.879 31.451 130.887 30.0034C131.181 29.9694 131.524 30.0791 131.792 29.9353C131.825 29.6327 131.804 29.3275 131.785 29.0255Z" fill="white"/>
<path fill-rule="evenodd" clip-rule="evenodd" d="M127.351 61.6811C127.351 52.35 127.35 43.0176 127.351 33.6864C127.313 31.1689 125.463 28.8374 123.03 28.1262C121.961 27.7794 120.824 27.862 119.717 27.8545C116.901 27.8532 114.084 27.8551 111.267 27.8532C111.392 26.9441 111.632 26.0601 111.967 25.2046C112.59 23.3749 113.103 21.4872 113.194 19.5498C113.357 18.836 113.536 18.1217 113.772 17.4288C114.749 15.0298 115.515 12.5438 115.951 9.9929C116.036 9.32837 116.31 8.70987 116.509 8.07371C116.603 7.73136 116.921 7.52519 117.121 7.24526C117.487 6.81968 117.703 6.29765 118.009 5.8355C118.791 5.05055 120.019 5.28005 120.976 4.8841C121.273 4.72522 120.987 4.38602 120.736 4.38918C119.92 4.28578 119.106 4.53482 118.287 4.46672C118.944 3.78959 119.789 3.32807 120.504 2.71588C120.702 2.53367 120.951 2.12763 120.642 1.9366C120.42 1.85527 120.188 1.97947 119.998 2.08287C119.186 2.58852 118.423 3.17676 117.568 3.61242C118.018 2.85143 118.55 2.14024 119.067 1.42212C119.246 1.16615 119.412 0.883693 119.44 0.567821C119.439 0.407048 119.319 0.237448 119.144 0.258254C118.832 0.306802 118.638 0.583583 118.442 0.799839C117.823 1.53939 117.207 2.28084 116.58 3.01472C116.464 2.90565 116.239 2.8218 116.272 2.6295C116.34 1.9429 116.494 1.2664 116.551 0.5798C116.579 0.2923 116.34 -0.0342895 116.027 0.00290901C115.782 0.00227853 115.648 0.26582 115.598 0.470727C115.384 1.25379 115.175 2.03748 114.969 2.82243C114.812 3.57837 113.878 4.25867 113.137 3.7713C112.755 3.42138 112.416 2.94789 111.864 2.86593C111.471 2.81675 110.958 2.83504 110.716 3.19252C110.817 3.463 111.156 3.52794 111.371 3.69312C111.736 3.91379 112.118 4.22336 112.126 4.68424C112.166 5.64131 113.195 6.10661 113.474 6.95839C113.526 7.36001 113.531 7.78684 113.352 8.16135C112.751 9.61903 112.277 11.1297 111.553 12.535C110.727 14.226 110.087 15.997 109.282 17.6974C108.777 18.4092 108.467 19.2698 107.785 19.8467C107.475 20.1103 107.169 20.3845 106.82 20.5982C106.34 20.7931 105.831 20.9412 105.416 21.2584C104.961 21.5648 104.699 22.0654 104.276 22.4065C103.937 22.6965 103.531 22.9197 103.082 22.9821C102.889 22.2949 102.654 21.6158 102.522 20.9135C102.745 20.5825 103.154 20.3334 103.208 19.9161C103.165 19.0441 103.109 18.1671 102.932 17.3115C102.869 16.9175 102.611 16.6016 102.461 16.241C102.212 15.6698 102.153 15.0298 101.837 14.4864C101.556 13.905 100.859 13.6945 100.536 13.1434C100.323 12.7399 99.8137 12.6126 99.6388 12.187C99.5271 11.9197 99.2513 11.8011 99.0029 11.6921C99.1753 11.8591 99.1638 12.0275 98.9959 12.1819C98.632 12.1618 98.2598 12.1643 97.9406 12.3597C97.6355 12.1687 97.2862 12.1983 96.9587 12.3036C97.1273 12.3333 97.2875 12.3881 97.4395 12.4675C97.1247 12.6624 96.8266 12.9026 96.4544 12.9763C96.2559 13.0198 96.1135 13.1674 95.9603 13.2834C95.703 13.2733 95.4534 13.2121 95.2433 13.0627C95.2778 13.1548 95.3474 13.337 95.3825 13.4284C95.1016 13.7499 94.9369 14.1427 94.6975 14.4895C94.6458 14.4794 94.5417 14.458 94.4913 14.4473C94.5634 14.3098 94.6375 14.1724 94.7103 14.0337C94.603 14.0923 94.4958 14.1503 94.3898 14.2096C94.3828 14.284 94.3681 14.4328 94.3611 14.5065C94.1178 14.5998 93.8331 14.6673 93.701 14.9176C93.8101 14.8798 94.0304 14.8047 94.1408 14.7663C93.8842 14.987 93.8803 15.328 93.8689 15.6376C93.8274 15.6401 93.7469 15.6445 93.7067 15.6471C93.4864 16.1634 93.3664 16.712 93.1941 17.2441C93.5222 17.5732 93.3019 18.0133 92.9968 18.2617C93.1398 18.3241 93.2834 18.3865 93.4277 18.4515C93.5011 18.7472 93.5669 19.0454 93.6256 19.3461L93.7367 19.2433C94.2564 20.2937 95.1872 21.0421 96.0982 21.7489C96.4448 22.0629 96.9383 22.3485 96.9887 22.8573C97.1017 23.5508 97.2045 24.2532 97.1579 24.9587C96.8924 24.9492 96.6268 24.9347 96.3618 24.9196C96.1754 25.5299 95.567 25.8344 95.1303 26.2499C94.7869 26.5847 94.3496 26.7972 93.8931 26.9314C93.3517 27.0998 92.9713 27.5436 92.5186 27.8431C91.7525 27.8551 90.9737 27.8658 90.2331 28.0821C88.4347 28.572 86.9 29.9136 86.2016 31.6235C85.862 32.4179 85.7362 33.2836 85.7317 34.1404C85.7304 43.5106 85.733 52.879 85.7304 62.2486C85.7164 63.1558 85.7732 64.0833 86.1014 64.9407C86.8962 67.2073 89.1663 68.8957 91.6051 68.9575H119.726C120.725 68.9298 121.747 69.0527 122.727 68.7854C124.855 68.276 126.621 66.5453 127.164 64.4502C127.43 63.5492 127.335 62.606 127.351 61.6811ZM91.5348 67.5213C89.8411 67.3744 88.2662 66.2855 87.6003 64.7339C87.2364 63.9578 87.1707 63.0884 87.1962 62.2441C87.1981 52.8367 87.1969 43.4299 87.1962 34.0225C87.1937 32.7886 87.6763 31.5535 88.5739 30.686C89.386 29.8468 90.5338 29.379 91.697 29.2945C90.9967 31.5838 90.2708 33.9008 90.1674 36.3061C90.1616 36.7657 90.1961 37.2323 90.0786 37.6837C89.7799 39.0556 89.5245 40.437 89.2225 41.8083C89.4428 41.8833 89.6637 41.9571 89.8871 42.0277C89.6037 44.2022 89.3968 46.3995 89.5302 48.5929C89.5692 50.4125 89.4843 52.2314 89.4543 54.051C89.5015 55.2445 88.9391 56.3939 89.1166 57.5905C89.3145 58.2765 89.732 58.8925 90.205 59.4234C90.6085 59.6547 91.0599 59.789 91.4831 59.9813C91.8828 60.1339 92.2665 60.3817 92.7108 60.3691C92.3009 62.7504 91.937 65.1387 91.5348 67.5213ZM95.0416 44.9166C94.5513 45.6675 94.4141 46.5804 94.3841 47.4574C94.3643 47.7979 94.5788 48.0822 94.6994 48.3861C94.5392 49.2234 94.2423 50.0323 94.1191 50.8791C93.8242 52.681 93.625 54.4961 93.3645 56.3025C93.1641 57.5647 92.9438 58.8238 92.7548 60.0879C92.6891 59.8502 92.6246 59.6138 92.5684 59.3761C92.2735 59.0924 91.9358 58.8603 91.6095 58.617C91.2316 58.3383 91.0081 57.9045 90.8588 57.4745C90.9896 57.1038 91.1652 56.7501 91.2871 56.3769C91.3861 56.3914 91.4863 56.4071 91.5878 56.4242C91.7953 56.7898 91.9619 57.1984 92.2882 57.4827C92.5371 57.6454 93.1315 57.6624 93.0823 57.2425C92.9955 56.6738 92.5371 56.2274 92.4599 55.6518C92.3584 54.9633 92.202 54.2162 91.6178 53.761C92.172 52.0259 92.7938 50.311 93.3128 48.5646C93.8644 46.8351 94.0808 45.0212 94.2155 43.22C94.5232 43.2155 94.8309 43.2023 95.1399 43.167C95.1501 42.754 95.1501 42.3404 95.1527 41.9287C95.4291 42.2124 95.7183 42.4886 96.0637 42.6904C95.9079 43.5037 95.4406 44.2041 95.0416 44.9166ZM98.6997 67.5351C98.8472 66.7969 98.7642 66.0377 98.9097 65.3007C99.2219 63.5688 99.965 61.951 100.8 60.4101C101.377 59.3817 101.983 58.3623 102.693 57.4165C103.116 59.1094 103.462 60.8211 103.86 62.5197C104.378 64.2012 104.973 65.8581 105.511 67.5326C103.24 67.5364 100.969 67.5314 98.6997 67.5351ZM125.909 34.5924C125.907 43.9986 125.91 53.4048 125.908 62.8109C125.927 64.2718 125.214 65.725 124.02 66.5919C123.19 67.2224 122.143 67.5326 121.102 67.5314C118.465 67.5383 115.829 67.5295 113.192 67.5364C112.906 64.4836 112.661 61.4264 112.445 58.3679C112.379 57.5382 112.381 56.7066 112.366 55.875C112.199 54.1985 111.744 52.5681 111.321 50.9415C112.09 50.5909 112.859 50.2404 113.606 49.8457C113.663 48.9195 113.205 48.0948 112.911 47.2456C112.307 45.5969 111.707 43.9425 111.285 42.2383C111.105 41.6173 111.125 40.9685 111.055 40.3336C110.79 38.4371 110.234 36.54 110.475 34.612C110.595 33.7356 110.528 32.8466 110.647 31.9709C110.764 31.08 110.883 30.1904 111.034 29.3052C114.275 29.3039 117.516 29.3058 120.757 29.3039C121.451 29.2775 122.159 29.3405 122.812 29.587C124.224 30.0902 125.36 31.3051 125.742 32.7413C125.915 33.3422 125.915 33.972 125.909 34.5924Z" fill="white"/>
</g>
<defs>
<clipPath id="clip0">
<rect width="136" height="69" fill="white"/>
</clipPath>
</defs>
</svg>
