<svg width="124" height="35" viewBox="0 0 124 35" fill="none" xmlns="http://www.w3.org/2000/svg">
<g opacity="0.8">
<path opacity="0.8" fill-rule="evenodd" clip-rule="evenodd" d="M35.2944 2.23145V34.9998H2.86719L35.2944 2.23145Z" fill="white"/>
<path fill-rule="evenodd" clip-rule="evenodd" d="M0 0H32.4272L0 32.7683V0Z" fill="white"/>
<path fill-rule="evenodd" clip-rule="evenodd" d="M43.3752 0.257812H49.1402H57.7187C62.396 0.257812 66.2206 4.12262 66.2206 8.84914V14.2671C66.2206 18.9936 62.396 22.8584 57.7187 22.8584H49.1402V34.8553H43.0127V0.257812H43.3752ZM117.094 34.8553H124L111.921 13.8311L123.127 0.257812H115.927L103.131 16.3285V0.257812H97.0036V34.8553H103.131V24.4812L108.148 18.4054L117.094 34.8553ZM76.1369 5.59837H91.8054V0.257812H76.1369H70.0094V5.59837V34.8553H70.3719H76.1369H84.7154C89.3927 34.8553 93.2173 30.9905 93.2173 26.264V25.5287V23.555V22.8197C93.2173 18.0932 89.3927 14.2284 84.7154 14.2284H76.1369V5.59837ZM76.1369 29.4374V19.6464H84.026C85.6268 19.6464 86.9366 20.9699 86.9366 22.5875V23.555V25.5287V26.4962C86.9366 28.1138 85.6268 29.4374 84.026 29.4374H76.1369ZM49.1427 17.4405H57.0319C58.6327 17.4405 59.9424 16.1169 59.9424 14.4993V8.61695C59.9424 6.9993 58.6327 5.67577 57.0319 5.67577H49.1427V17.4405Z" fill="white"/>
</g>
</svg>
