<svg width="193" height="39" viewBox="0 0 193 39" fill="none" xmlns="http://www.w3.org/2000/svg">
<g opacity="0.8" clip-path="url(#clip0)">
<path fill-rule="evenodd" clip-rule="evenodd" d="M39.1565 32.5586V7.55644C39.1358 5.17141 39.1939 2.78639 39.1275 0.401367C26.0864 0.413536 13.0494 0.401367 0.00830643 0.40948C-0.00415322 13.1377 0.00830643 25.87 0 38.5982C2.01431 38.6429 4.03277 38.6104 6.04708 38.6226C17.0739 38.6266 28.1007 38.6185 39.1275 38.6307C39.1898 36.6067 39.1399 34.5826 39.1565 32.5586ZM12.443 17.1898C12.443 15.5957 12.4472 14.0057 12.4389 12.4157C11.8616 11.86 11.3341 11.2597 10.7402 10.7202C10.7236 12.1074 10.7361 13.4906 10.7278 14.8778C10.1961 15.3727 9.72683 15.9284 9.15784 16.3745C7.26813 14.4762 5.3618 12.5942 3.4804 10.6959C3.40564 10.6391 3.30181 10.4647 3.20213 10.5823C2.7162 11.0326 2.30504 11.5558 1.8025 11.9858C1.81496 9.97391 2.4587 7.958 3.67144 6.33148C4.46886 5.26065 5.48225 4.28717 6.75313 3.78015C8.50164 3.06221 10.6572 3.43132 12.0526 4.67656C13.9963 6.62352 15.9484 8.55831 17.8838 10.5093C17.3854 11.0245 16.8371 11.5031 16.372 12.0426C17.4144 13.1174 18.5109 14.1477 19.5783 15.2023C20.6539 14.1477 21.7296 13.0931 22.8012 12.0385C22.3069 11.5071 21.7421 11.0366 21.2811 10.4769C23.258 8.53803 25.1976 6.55862 27.1662 4.61166C28.5949 3.39887 30.7587 3.06221 32.4906 3.82071C33.8819 4.41291 34.9576 5.52836 35.7758 6.74926C36.8017 8.31494 37.3457 10.1686 37.3499 12.0263C36.8515 11.5234 36.3905 10.9758 35.8547 10.5134C33.8903 12.4725 31.9424 14.4479 29.9572 16.3826C29.438 15.8837 28.9313 15.3808 28.4205 14.8738C28.3955 13.4865 28.4205 12.0953 28.3914 10.7081C27.8515 11.3043 27.2202 11.8276 26.7135 12.4441C26.6969 13.9124 26.7093 15.3808 26.7135 16.845C26.6969 16.983 26.755 17.1614 26.6263 17.2628C25.8579 18.0416 25.073 18.8001 24.3088 19.583C28.2087 23.416 32.121 27.2369 36.0292 31.0619C34.5008 32.6032 32.9184 34.0959 31.3776 35.6251C27.486 31.8488 23.6152 28.0603 19.7361 24.28C19.6572 24.1786 19.516 24.134 19.4371 24.2597C15.5538 28.0482 11.6705 31.8407 7.77898 35.621C6.21737 34.1121 4.66406 32.5951 3.11907 31.07C5.71898 28.539 8.29813 25.9876 10.898 23.4525C12.2022 22.1546 13.5353 20.8809 14.8311 19.5748C14.042 18.7758 13.2363 17.9848 12.443 17.1898Z" fill="white"/>
<path fill-rule="evenodd" clip-rule="evenodd" d="M52.5294 32.4331C53.5137 32.4574 54.5396 32.3438 55.4865 32.6643C55.906 32.79 56.259 33.147 56.2839 33.5891C56.2964 34.1448 56.205 34.7694 55.7648 35.1629C55.3245 35.5441 54.7223 35.6618 54.1575 35.7307C53.4224 35.8119 52.6789 35.7875 51.9438 35.7956C52.1266 34.668 52.3259 33.5526 52.5294 32.4331ZM68.9222 33.1104C69.8317 31.4231 70.7247 29.7276 71.655 28.0484C71.9872 29.7357 72.3195 31.4231 72.6435 33.1104C71.4016 33.1064 70.164 33.1104 68.9222 33.1104ZM132.25 8.05148C132.956 7.90546 133.754 8.00281 134.327 8.4571C134.913 8.90328 135.212 9.62933 135.257 10.3392C135.324 11.1098 135.183 11.9454 134.668 12.5619C133.824 13.5963 131.997 13.6449 131.121 12.6268C130.386 11.7385 130.278 10.4527 130.697 9.4103C130.955 8.74914 131.532 8.20562 132.25 8.05148ZM66.721 8.05148C67.3398 7.9298 68.0168 7.98253 68.565 8.30296C69.2627 8.70047 69.6614 9.47519 69.7237 10.2459C69.8027 11.049 69.6822 11.9251 69.1381 12.5619C68.295 13.5963 66.4676 13.649 65.5913 12.6268C64.8977 11.7831 64.769 10.5785 65.1137 9.56849C65.3421 8.84243 65.9402 8.21373 66.721 8.05148ZM118.246 7.6337C118.944 7.62964 119.65 7.89329 120.131 8.3922C120.721 8.98034 120.97 9.82402 120.987 10.6353C121.012 11.4019 120.85 12.2009 120.385 12.8337C119.903 13.4989 119.072 13.9045 118.242 13.8761C118.25 11.7953 118.242 9.71451 118.246 7.6337ZM113.22 8.06365C113.648 7.76349 114.176 7.64992 114.695 7.62558C114.728 9.71045 114.699 11.7994 114.707 13.8883C113.926 13.8924 113.15 13.5557 112.664 12.9554C112.033 12.1928 111.883 11.1544 111.995 10.2053C112.087 9.36973 112.489 8.53011 113.22 8.06365ZM100.055 7.62964C100.844 7.62153 101.637 7.9663 102.119 8.58284C102.646 9.23588 102.829 10.0917 102.796 10.907C102.783 11.7832 102.472 12.6998 101.77 13.2758C101.296 13.6733 100.674 13.8761 100.055 13.8842C100.051 11.7994 100.055 9.71451 100.055 7.62964ZM94.452 8.58284C94.9379 7.97036 95.7229 7.61747 96.512 7.6337C96.512 9.71856 96.512 11.8034 96.512 13.8883C95.7686 13.8883 95.0251 13.5881 94.5392 13.0324C93.991 12.4321 93.775 11.6087 93.7709 10.8218C93.7584 10.0309 93.9412 9.21154 94.452 8.58284ZM171.664 7.55663C172.329 6.99688 173.342 6.93604 174.115 7.32137C174.867 7.71482 175.257 8.54633 175.323 9.34945C173.812 9.36973 172.3 9.35351 170.788 9.35757C170.838 8.68019 171.116 7.99469 171.664 7.55663ZM51.2129 3.58565C52.0892 3.62215 53.0237 3.45991 53.8502 3.83713C54.3693 4.06833 54.6725 4.61186 54.7099 5.15538C54.8012 5.84493 54.5977 6.66833 53.9332 7.02527C53.1026 7.47145 52.1224 7.30109 51.217 7.33354C51.2087 6.08424 51.2087 4.83495 51.2129 3.58565ZM82.877 23.2134C82.0007 28.4743 81.1202 33.731 80.2522 38.9919C81.685 39 83.1179 38.9878 84.5507 38.9959C84.9328 36.7367 85.2942 34.4733 85.6679 32.21C87.6241 32.21 89.5803 32.214 91.5364 32.2059C91.2042 34.4693 90.8055 36.7245 90.4441 38.9878C91.8687 38.9959 93.2933 38.9919 94.7178 38.9878C95.5734 33.727 96.4705 28.4702 97.3219 23.2094C95.8973 23.2053 94.4728 23.2134 93.0482 23.2053C92.6993 25.1644 92.3878 27.1317 92.0556 29.0949C90.0953 29.0949 88.1308 29.0989 86.1705 29.0949C86.4944 27.1317 86.8267 25.1725 87.1548 23.2094C85.7261 23.2134 84.3015 23.2134 82.877 23.2134ZM60.8566 38.9675C62.4141 38.9675 63.9757 38.9635 65.5331 38.9716C66.0814 38.0793 66.6254 37.1828 67.1571 36.2864C69.1838 36.2783 71.2106 36.2824 73.2415 36.2824C73.4533 37.1869 73.6735 38.0914 73.8811 39C75.4801 39 77.0791 39 78.6822 39C77.4238 33.7351 76.1488 28.4783 74.8862 23.2175C73.2955 23.2175 71.7048 23.2175 70.1142 23.2175C67.0242 28.4621 63.9425 33.7148 60.8566 38.9675ZM99.9841 23.1931C101.467 23.1891 102.949 23.1891 104.432 23.1931C104.063 25.3753 103.647 27.5495 103.298 29.7357C105.475 27.5657 107.63 25.3713 109.794 23.1931C111.617 23.1972 113.445 23.1931 115.268 23.1972C112.606 25.7039 109.91 28.1782 107.24 30.6768C109.217 33.4512 111.21 36.2175 113.187 38.9959C111.281 39.0041 109.37 39.0041 107.464 39C105.94 36.7042 104.428 34.4003 102.891 32.1126C102.48 34.4084 102.102 36.7083 101.704 39.0041C100.229 39.0041 98.7589 39.0041 97.2845 39C98.1857 33.727 99.0828 28.458 99.9841 23.1931ZM49.6388 23.1769C48.7085 28.4459 47.7948 33.7229 46.8769 38.9959C49.2027 38.9838 51.5285 38.9838 53.8502 38.9594C55.6236 38.9189 57.5174 38.639 58.9461 37.5195C59.7477 36.9232 60.2586 36.0268 60.5078 35.0858C60.6739 34.4125 60.8193 33.7189 60.7237 33.0293C60.6199 32.0802 60.0966 31.1838 59.3116 30.6159C58.5516 30.0278 57.6047 29.7236 56.6577 29.5775C55.4367 29.3909 54.1949 29.4761 52.9655 29.4558C53.1358 28.4012 53.3102 27.3507 53.4764 26.2961C55.7066 26.2961 57.9328 26.3002 60.163 26.292C60.3333 25.2537 60.5078 24.2193 60.6739 23.185C56.9941 23.1769 53.3144 23.1891 49.6388 23.1769ZM181.192 16.2977C182.542 16.3017 183.892 16.3017 185.241 16.2977C185.241 14.7969 185.237 13.3002 185.245 11.7994C186.483 11.7994 187.717 11.7994 188.954 11.7994C188.958 13.3002 188.954 14.7969 188.958 16.2977C190.304 16.3017 191.654 16.3017 193 16.2977C192.991 12.5457 193.024 8.79376 192.983 5.04181C191.641 5.06209 190.3 5.04181 188.958 5.04992C188.954 6.37223 188.958 7.69048 188.954 9.01279C187.717 9.00468 186.479 9.01279 185.241 9.00874C185.237 7.68643 185.241 6.36817 185.241 5.04992C183.896 5.04587 182.55 5.05803 181.204 5.04181C181.171 8.79376 181.196 12.5457 181.192 16.2977ZM141.525 5.04992C141.52 8.79782 141.52 12.5498 141.525 16.2977C142.829 16.3017 144.137 16.2936 145.445 16.3017C146.795 14.2574 148.087 12.1766 149.445 10.1404C149.461 12.1928 149.449 14.2452 149.453 16.2977C150.803 16.3058 152.148 16.3017 153.498 16.3017C153.498 12.5538 153.498 8.80187 153.498 5.05398C152.207 5.04992 150.915 5.05398 149.627 5.04992C148.269 7.0415 146.953 9.06552 145.582 11.049C145.557 9.0493 145.595 7.04961 145.566 5.04992C144.212 5.05398 142.866 5.04587 141.525 5.04992ZM75.991 5.04992C75.9868 8.79782 75.9868 12.5498 75.991 16.2977C77.2951 16.3017 78.5992 16.2936 79.9033 16.3017C81.2572 14.2452 82.5821 12.1766 83.907 10.108C83.9402 12.1725 83.8945 14.2371 83.9277 16.2977C85.2692 16.2977 86.6149 16.2977 87.9605 16.2977C87.9647 12.5498 87.9647 8.79782 87.9605 5.04992C86.6689 5.04587 85.3772 5.04992 84.0897 5.04587C82.7275 7.03744 81.4109 9.06147 80.0362 11.049C80.0154 9.0493 80.0445 7.04555 80.0237 5.04587C78.6781 5.05398 77.3324 5.04587 75.991 5.04992ZM170.011 5.28112C168.462 6.00312 167.382 7.49579 167.059 9.12636C166.676 11.0206 166.951 13.1541 168.238 14.6833C169.351 16.0218 171.137 16.687 172.873 16.7114C174.572 16.7763 176.395 16.3788 177.649 15.1903C178.335 14.5657 178.783 13.7463 179.103 12.8945C177.807 12.8459 176.511 12.8621 175.215 12.8864C175.103 13.3691 174.767 13.7869 174.314 14.01C173.363 14.4562 172.063 14.3507 171.349 13.5354C170.871 12.9959 170.684 12.2739 170.693 11.5722C173.529 11.5601 176.366 11.5885 179.203 11.5601C179.24 9.86864 178.895 8.09204 177.84 6.717C177.035 5.64618 175.768 4.95663 174.435 4.74571C172.948 4.51451 171.374 4.63214 170.011 5.28112ZM155.604 5.74353C155.953 6.58721 156.327 7.42278 156.684 8.2624C157.602 7.69048 158.669 7.30515 159.765 7.3092C160.206 7.32543 160.7 7.37005 161.036 7.68237C161.344 7.93791 161.36 8.39625 161.219 8.74508C161.041 9.13853 160.567 9.26427 160.16 9.27644C159.429 9.28861 158.702 9.28861 157.971 9.27644C157.938 10.0958 157.967 10.9151 157.959 11.7345C158.657 11.7345 159.354 11.7183 160.052 11.7466C160.48 11.771 160.97 11.8521 161.236 12.2172C161.502 12.6228 161.352 13.215 160.945 13.4786C160.409 13.8396 159.716 13.795 159.101 13.7544C158.071 13.6774 157.12 13.2434 156.256 12.7161C155.874 13.5841 155.562 14.4846 155.201 15.3607C157.294 16.5289 159.803 16.9994 162.178 16.5532C163.229 16.3544 164.292 15.8799 164.932 15.0119C165.626 14.1195 165.763 12.8215 165.177 11.8399C164.77 11.122 164.002 10.6637 163.204 10.4608C163.42 10.3108 163.67 10.2012 163.873 10.0268C164.853 9.23588 165.119 7.80406 164.666 6.67644C164.392 5.99501 163.794 5.47582 163.121 5.17566C162.079 4.70109 160.903 4.60374 159.765 4.65242C158.333 4.75382 156.896 5.0986 155.604 5.74353ZM128.209 5.78814C126.984 6.86708 126.415 8.48955 126.291 10.0633C126.178 11.775 126.531 13.6044 127.669 14.9591C128.629 16.1395 130.19 16.8128 131.731 16.7114C133.056 16.6708 134.331 16.0097 135.124 14.9753C135.124 15.4175 135.12 15.8596 135.124 16.3017C136.416 16.3058 137.708 16.3058 138.999 16.3017C138.999 12.5538 139.004 8.80187 138.995 5.04992C137.704 5.05803 136.412 5.04587 135.12 5.05803C135.116 5.50421 135.124 5.95039 135.112 6.40062C134.522 5.70702 133.804 5.06615 132.89 4.82683C131.303 4.40094 129.451 4.68081 128.209 5.78814ZM62.1026 6.38845C61.0518 7.71076 60.6697 9.44275 60.7486 11.0936C60.8193 12.7323 61.4173 14.4278 62.7007 15.5351C64.038 16.7154 66.0772 17.048 67.7385 16.3788C68.4695 16.0867 69.0925 15.5797 69.5784 14.9794C69.5825 15.4175 69.5825 15.8515 69.5784 16.2895C70.8742 16.3139 72.17 16.2936 73.4616 16.2977C73.4658 12.5457 73.47 8.79376 73.4616 5.04181C72.17 5.05398 70.8783 5.04181 69.5825 5.04587C69.5742 5.49204 69.5867 5.94228 69.5742 6.39251C69.1921 5.97067 68.8059 5.53666 68.3033 5.24056C67.3398 4.63214 66.1271 4.54696 65.0182 4.70515C63.876 4.87956 62.8086 5.48799 62.1026 6.38845ZM149.76 0.00405616C149.636 0.40156 149.428 0.795008 149.071 1.03838C148.519 1.4156 147.788 1.42371 147.152 1.29392C146.521 1.15195 146.056 0.61248 145.914 0.00811232C145.034 0.316381 144.166 0.661154 143.286 0.965367C143.597 1.74009 144.183 2.40125 144.905 2.83931C146.23 3.6181 147.887 3.73978 149.374 3.39501C150.674 3.09891 151.903 2.21872 152.356 0.96131C151.492 0.64493 150.624 0.324493 149.76 0.00405616ZM114.45 0.00405616C114.458 1.63058 114.446 3.25304 114.454 4.87551C112.826 4.89579 111.111 5.25679 109.852 6.32356C108.714 7.26459 108.162 8.72886 108.095 10.1566C107.991 11.7669 108.349 13.5111 109.524 14.7036C110.782 15.9934 112.676 16.4599 114.446 16.468C114.446 18.0418 114.45 19.6156 114.446 21.1894C115.791 21.2016 117.137 21.1853 118.483 21.1975C118.503 19.6197 118.487 18.0459 118.491 16.468C120.123 16.4518 121.838 16.0705 123.093 15.0037C124.069 14.1844 124.629 12.9797 124.787 11.7507C125.016 10.0025 124.754 8.05148 123.491 6.70484C122.233 5.35819 120.293 4.88768 118.487 4.87145C118.491 3.24493 118.487 1.62246 118.487 0C117.149 0.00405616 115.8 0 114.45 0.00405616ZM96.267 0.00405616C96.267 1.63058 96.267 3.25304 96.267 4.87956C94.5309 4.89173 92.6869 5.32168 91.4201 6.5507C90.44 7.48767 89.9707 8.83432 89.9084 10.1526C89.8004 11.7548 90.1493 13.4949 91.3163 14.6874C92.5747 15.9934 94.4811 16.464 96.267 16.4721C96.2711 18.0459 96.2586 19.6197 96.2711 21.1975C97.6126 21.1975 98.9541 21.1934 100.296 21.2016C100.333 19.6278 100.304 18.0499 100.308 16.4721C101.782 16.4599 103.307 16.1557 104.524 15.3039C105.599 14.5697 106.301 13.3894 106.538 12.1401C106.754 10.9557 106.733 9.71451 106.376 8.56256C106.064 7.55257 105.408 6.64399 104.524 6.03557C103.307 5.19594 101.782 4.88768 100.312 4.88768C100.3 3.2571 100.325 1.62652 100.3 0C98.9582 0.00405616 97.6126 0 96.267 0.00405616ZM84.2309 0.00405616C84.1105 0.405616 83.8987 0.795008 83.5457 1.03838C82.9933 1.41966 82.2582 1.42371 81.6186 1.28986C80.9873 1.14384 80.5263 0.608424 80.3767 0.00811232C79.5004 0.320437 78.6324 0.657098 77.7561 0.969423C78.1589 1.95101 78.9854 2.74197 79.978 3.14353C80.9707 3.54509 82.0754 3.6546 83.1386 3.5248C84.1852 3.39906 85.2236 3.00156 85.9711 2.26334C86.3325 1.89017 86.6772 1.46427 86.8225 0.96131C85.9545 0.648986 85.0906 0.320437 84.2309 0.00405616ZM46.6859 0.00405616C46.6775 5.43526 46.6817 10.8665 46.6817 16.2977C48.1893 16.3017 49.6969 16.2977 51.2046 16.3017C51.217 14.5089 51.2004 12.7161 51.2129 10.9232C52.7994 10.8908 54.4524 11.0774 55.9724 10.5298C57.1852 10.1201 58.2152 9.22371 58.7717 8.09204C59.7436 6.1532 59.5774 3.66677 58.211 1.94696C57.3721 0.884243 56.0597 0.267707 54.7182 0.0932917C53.6633 -0.0486739 52.5959 0.0283931 51.5368 0.00811232C49.9212 0.00405616 48.3056 0 46.6859 0.00405616Z" fill="white"/>
</g>
<defs>
<clipPath id="clip0">
<rect width="193" height="39" fill="white"/>
</clipPath>
</defs>
</svg>
