<svg width="100" height="62" viewBox="0 0 100 62" fill="none" xmlns="http://www.w3.org/2000/svg">
<g opacity="0.8">
<path fill-rule="evenodd" clip-rule="evenodd" d="M7.54395 61.9999H88.9364L48.4546 21.5723L7.54395 61.9999Z" fill="white"/>
<path fill-rule="evenodd" clip-rule="evenodd" d="M41.445 11.2557L39.418 9.21931L48.7247 0L51.6154 2.91074L48.1841 9.41297L54.9233 6.23815L57.7082 9.04326L48.4074 18.2567L46.2746 16.1089L51.1865 11.2439L44.559 14.3777L43.237 13.0514L46.4509 6.43767L41.445 11.2557ZM80.7576 50.8324L74.6295 44.6588L83.9303 35.4453L90.076 41.6365L88.1959 43.4968L84.3475 39.6178L82.8316 41.1201L85.8692 44.1776L83.9127 46.1142L80.8927 43.0743L78.8598 45.0872L82.673 48.9251L80.7576 50.8324ZM80.0408 31.4959L77.7964 29.2424L65.3404 35.2928L67.9139 37.8749L75.8633 33.3797L71.0984 41.0732L73.5249 43.5086L80.0408 31.4959ZM66.2159 25.8622C66.2159 25.8622 68.3721 23.7202 68.4485 23.6439C68.5249 23.5676 69.8351 25.07 70.0702 25.3047C70.17 25.4045 70.787 26.3493 69.9526 27.1767C69.9526 27.1767 68.8539 28.5793 67.5848 27.3058C66.3099 26.0382 66.2159 25.8622 66.2159 25.8622ZM58.7893 28.7025L67.9726 19.4186L72.4908 23.908C74.4415 26.0206 73.2253 28.2389 73.2253 28.2389C71.633 31.2318 68.1665 31.6837 66.915 30.4337L64.2828 27.7929L66.1219 25.9678L61.0631 30.9912L58.7893 28.7025ZM82.6788 52.7748L84.8998 55.0107L88.8481 51.0965L92.3851 54.7231L88.472 58.6022L90.6929 60.8381L99.9938 51.6246L97.7729 49.3887L94.3298 52.7983L90.787 49.1716L94.1947 45.7973L91.9738 43.5614L82.6788 52.7748ZM56.7917 26.7072L58.707 24.8059L54.8939 20.9679L56.9268 18.955L59.9468 21.9949L61.9033 20.0583L58.8657 17.0009L60.3815 15.4985L64.23 19.3776L66.1101 17.5173L59.9644 11.3261L50.6636 20.5395L56.7917 26.7072Z" fill="white"/>
<path fill-rule="evenodd" clip-rule="evenodd" d="M20.6228 35.5922C20.6228 35.5922 18.5018 33.4209 18.4254 33.3446C18.349 33.2683 19.9412 31.9068 20.1939 31.6604C20.2996 31.5547 21.2926 30.9092 22.1152 31.7484C22.1152 31.7484 23.5135 32.8517 22.1622 34.172C20.8049 35.4924 20.6228 35.5922 20.6228 35.5922ZM40.2703 19.4305L38.8425 20.8214L37.0212 17.4353L40.2703 19.4305ZM40.0588 23.0866L42.4442 20.7685L44.7532 22.1887L47.3443 19.6653L35.235 13.1807L32.8378 15.5163L38.6016 28.1804L41.3514 25.5044L40.0588 23.0866ZM15.3995 50.768L21.8978 44.4359L20.1116 42.6109L15.9871 46.6307L14.0071 44.6003L17.3149 41.3785L15.4465 39.4654L12.1387 42.6871L10.4407 40.9501L14.4301 37.0593L12.6439 35.2342L6.16921 41.5487L15.3995 50.768ZM23.2667 43.1507L25.7051 40.774L20.7227 35.6744L22.5323 37.5288L25.3408 34.7941C26.6745 33.4972 26.3337 29.9468 23.3137 28.3682C23.3137 28.3682 21.0752 27.1593 18.8367 29.1897L14.0599 33.8904L23.2667 43.1507ZM2.39718 45.1871L14.5065 51.6717L11.9154 54.1951L4.18331 49.4358L8.51351 57.5049L5.76381 60.1809L0 47.5227L2.39718 45.1871ZM33.2374 33.3563L35.6345 31.0207L30.4642 17.7756L27.7145 20.4517L30.094 25.475L24.3184 23.7673L21.6099 26.4081L31.416 28.8435L33.2374 33.3563Z" fill="white"/>
</g>
</svg>
