<svg width="220" height="36" viewBox="0 0 220 36" fill="none" xmlns="http://www.w3.org/2000/svg">
<g opacity="0.8">
<path d="M156.309 10.615H149.224V28.1716H145.472V10.615H138.508V7.16162H156.313L156.309 10.615Z" fill="white"/>
<path d="M173.493 19.0786H163.812V24.7224H174.917V28.1716H160.061V7.16162H174.586V10.615H163.82V15.6252H173.493V19.0786Z" fill="white"/>
<path d="M196.529 25.861C196.216 26.2294 195.849 26.5477 195.44 26.8051C194.919 27.1396 194.364 27.4172 193.784 27.6333C193.088 27.9005 192.37 28.1069 191.639 28.2502C190.803 28.4154 189.952 28.4959 189.1 28.4904C187.502 28.5122 185.912 28.2572 184.401 27.7368C183.07 27.277 181.849 26.5467 180.815 25.5919C179.808 24.6358 179.02 23.4733 178.504 22.1841C177.933 20.7345 177.652 19.1871 177.676 17.6293C177.659 16.1399 177.933 14.6615 178.484 13.2774C179.004 11.9863 179.793 10.8205 180.798 9.85721C181.838 8.8714 183.068 8.10901 184.413 7.61709C185.929 7.06903 187.531 6.79969 189.142 6.82207C190.588 6.79243 192.03 7.00373 193.407 7.44732C194.361 7.74895 195.271 8.17793 196.111 8.72266V13.9441C195.763 13.4538 195.365 13.0014 194.922 12.5942C194.438 12.1453 193.904 11.7522 193.332 11.4224C192.716 11.0719 192.062 10.794 191.382 10.5943C190.656 10.3818 189.903 10.2758 189.146 10.2796C188.09 10.2634 187.041 10.446 186.053 10.8179C185.176 11.1496 184.379 11.6617 183.713 12.3209C183.06 12.9808 182.559 13.7749 182.243 14.648C181.891 15.6133 181.717 16.6348 181.73 17.6624C181.719 18.6381 181.875 19.6084 182.19 20.532C182.484 21.4095 182.967 22.2122 183.603 22.8844C184.24 23.5566 185.015 24.082 185.875 24.4242C186.885 24.8328 187.965 25.0409 189.055 25.037C189.91 25.0446 190.763 24.9445 191.593 24.7389C192.324 24.5491 193.029 24.271 193.692 23.9108C194.297 23.588 194.854 23.184 195.349 22.71C195.813 22.2723 196.208 21.767 196.521 21.211L196.529 25.861Z" fill="white"/>
<path d="M216.248 19.0786H204.753V28.1881H201.002V7.16162H204.753V15.6252H216.248V7.16162H220V28.1716H216.248V19.0786Z" fill="white"/>
<path d="M54.8495 15.7287C52.3941 15.149 50.2948 14.6521 50.2948 12.9379C50.2948 10.648 53.1146 10.3996 54.3278 10.3996C55.6619 10.3418 56.9901 10.6075 58.1994 11.1739L61.5823 8.68949C59.3978 7.36205 56.8963 6.64693 54.3402 6.61914C47.9801 6.61914 45.7151 10.0021 45.7151 13.1656C45.7151 17.7204 49.6778 18.6769 53.1684 19.5133C55.6238 20.1013 57.7439 20.6106 57.7439 22.3456C57.7439 23.2399 57.2139 24.7347 53.6529 24.7347C51.2206 24.7116 48.852 23.9538 46.858 22.5609L45.3135 26.097C47.1892 27.5587 50.4355 28.4986 53.6239 28.4986C58.8991 28.4986 62.3194 25.9397 62.3194 21.9812C62.3152 17.4802 58.3484 16.5568 54.8495 15.7287Z" fill="white"/>
<path d="M81.6408 17.2358L81.4213 17.1613L81.6242 17.0536C82.4615 16.6163 83.1587 15.9522 83.6362 15.1372C84.1136 14.3221 84.352 13.3892 84.324 12.445C84.324 9.02893 81.4255 6.9917 76.5808 6.9917H66.5645V28.1507H77.1729C82.4524 28.1507 85.3591 26.1176 85.3591 22.4241C85.4084 21.2681 85.069 20.129 84.395 19.1885C83.721 18.2481 82.7513 17.5606 81.6408 17.2358ZM71.1275 10.5154H75.9928C79.057 10.5154 79.7195 11.9274 79.7195 13.0992C79.7195 14.8011 78.44 15.683 75.9928 15.683H71.1275V10.5154ZM71.1275 15.683H75.9928H71.1275ZM76.821 24.6187H71.1275V19.2068H76.821C79.4172 19.2068 80.734 20.1053 80.734 21.9107C80.734 23.716 79.4545 24.6187 76.821 24.6187Z" fill="white"/>
<path d="M100.817 10.5154L105.596 6.9917H89.6084V28.1424H105.596V24.6187H94.1715V19.2068H103.919V15.683H94.1715V10.5154H100.817Z" fill="white"/>
<path d="M127.882 28.1507L123.24 21.2772C125.977 20.0846 127.559 17.7286 127.559 14.5692C127.559 9.90264 124.11 7 118.553 7H109.857V28.1507H114.412V22.1509H118.553H118.938L122.975 28.1507H127.882ZM114.408 10.5155H118.454C121.377 10.5155 122.988 11.9564 122.988 14.5734C122.988 17.1903 121.377 18.6271 118.454 18.6271H114.408V10.5155Z" fill="white"/>
<path d="M35.1394 17.5672C35.1387 16.5119 35.0444 15.4588 34.8578 14.4202L31.0731 17.2069C31.0731 17.327 31.0731 17.4471 31.0731 17.5672C31.0751 20.5898 30.0647 23.526 28.2031 25.9074C26.3415 28.2887 23.7359 29.9781 20.8021 30.7058C17.8683 31.4336 14.7753 31.1579 12.0165 29.9227C9.25768 28.6875 6.99204 26.5639 5.58103 23.8909C4.17001 21.2178 3.69492 18.1492 4.23154 15.1746C4.76817 12.1999 6.28559 9.49075 8.54172 7.47918C10.7979 5.4676 13.6627 4.26954 16.6792 4.07614C19.6958 3.88273 22.6902 4.70512 25.1848 6.41211L28.601 3.89456C25.4994 1.39268 21.6394 0.0194394 17.6545 0.000204836C13.6696 -0.0190298 9.79657 1.31689 6.67098 3.7887C3.54538 6.26052 1.35293 9.72139 0.453454 13.6033C-0.446027 17.4853 0.000894062 21.5577 1.72087 25.1522C3.44085 28.7467 6.3317 31.6497 9.91898 33.3849C13.5063 35.1201 17.5769 35.5843 21.4628 34.7013C25.3486 33.8184 28.8189 31.6408 31.3041 28.5258C33.7893 25.4109 35.1417 21.5437 35.1394 17.5589V17.5672Z" fill="white"/>
<path d="M31.4606 6.82227C32.2973 7.90084 33.0047 9.07376 33.5683 10.317L17.5644 22.118L10.873 17.9235V12.876L17.5644 17.0705L31.4606 6.82227Z" fill="white"/>
</g>
</svg>
