<svg width="119" height="43" viewBox="0 0 119 43" fill="none" xmlns="http://www.w3.org/2000/svg">
<g opacity="0.8" clip-path="url(#clip0)">
<path fill-rule="evenodd" clip-rule="evenodd" d="M0.987821 42.31C0.395862 42.31 0 41.9165 0 41.3216V8.16868C0 7.57679 0.395862 7.17822 0.987821 7.17822H8.09156C12.4346 7.17822 16.2352 8.90505 16.2352 13.8904V17.1975C16.2352 20.5025 15.1994 22.9708 11.3495 24.0034V24.2052C15.1994 24.9918 16.2824 28.1994 16.2824 31.4077V34.4685C16.2824 40.0399 13.569 42.31 8.14362 42.31H0.987821ZM6.90901 13.2999V22.1798L7.89454 21.9358C8.98236 21.6395 9.37341 21.3932 9.37341 19.7109V15.52C9.37341 13.8404 9.0319 13.3001 7.89454 13.3001H6.90901V13.2999ZM7.89477 36.1932C9.03213 36.1932 9.37364 35.6974 9.37364 34.3169V28.9415C9.37364 27.5575 8.98282 27.1617 7.89477 27.0149L6.90924 26.8681V36.1932H7.89477Z" fill="white"/>
<path fill-rule="evenodd" clip-rule="evenodd" d="M35.0353 36.735C35.0353 40.8808 31.1853 42.9986 26.8916 42.9986C22.5514 42.9986 18.748 40.881 18.748 36.735V12.7546C18.748 8.61092 22.5514 6.48828 26.8916 6.48828C31.1853 6.48828 35.0353 8.61092 35.0353 12.7546V36.735ZM28.1263 14.4817C28.1263 13.4963 27.9767 12.8069 26.8916 12.8069C25.8038 12.8069 25.657 13.496 25.657 14.4817V35.2045C25.657 36.1929 25.8038 36.6852 26.8916 36.6852C27.9767 36.6852 28.1263 36.1929 28.1263 35.2045V14.4817Z" fill="white"/>
<path fill-rule="evenodd" clip-rule="evenodd" d="M44.4073 35.205C44.4073 36.1904 44.5541 36.6858 45.6398 36.6858C46.7249 36.6858 46.8737 36.1906 46.8737 35.205V32.59C46.8737 24.4521 37.501 26.8683 37.501 17.2969V12.7556C37.501 8.60983 41.3488 6.48926 45.6398 6.48926C49.9822 6.48926 53.7828 8.60983 53.7828 12.7556V17.7875C53.7828 18.2333 53.5344 18.6763 53.0413 18.7759L48.2079 19.8136C48.009 19.8635 47.7627 19.9108 47.6132 19.9108C47.1207 19.9108 46.8737 19.6145 46.8737 19.0721V14.4833C46.8737 13.4979 46.7249 12.8058 45.6398 12.8058C44.5541 12.8058 44.4073 13.4979 44.4073 14.4833V17.3423C44.4073 22.327 53.7828 21.7344 53.7828 32.0999V36.736C53.7828 40.8817 49.9822 42.9996 45.6398 42.9996C41.3488 42.9996 37.501 40.882 37.501 36.736V30.2708C37.501 29.8298 37.7443 29.3847 38.2374 29.2854L43.0759 28.2528C43.2727 28.2005 43.519 28.1505 43.6658 28.1505C44.1609 28.1505 44.4073 28.4468 44.4073 28.9914V35.205Z" fill="white"/>
<path fill-rule="evenodd" clip-rule="evenodd" d="M65.6233 14.2843C65.6233 13.3017 65.4737 12.8066 64.3887 12.8066C63.3036 12.8066 63.1568 13.3017 63.1568 14.2843V35.206C63.1568 36.1914 63.3036 36.6867 64.3887 36.6867C65.4737 36.6867 65.6233 36.1916 65.6233 35.206V26.2744C65.6233 25.7318 65.8696 25.4358 66.3627 25.4358C66.5116 25.4358 66.7586 25.4881 66.9547 25.5353L71.7931 26.573C72.2862 26.6705 72.5305 27.1133 72.5305 27.5584V36.734C72.5305 40.8797 68.6826 43.0003 64.3889 43.0003C60.0486 43.0003 56.248 40.8797 56.248 36.734V12.7566C56.248 8.61081 60.0486 6.49023 64.3889 6.49023C68.6826 6.49023 72.5305 8.61081 72.5305 12.7566V20.6009C72.5305 21.0433 72.2864 21.4891 71.7931 21.5913L66.9547 22.6263C66.7586 22.6763 66.5116 22.7238 66.3627 22.7238C65.8696 22.7238 65.6233 22.4295 65.6233 21.8851V14.2843Z" fill="white"/>
<path fill-rule="evenodd" clip-rule="evenodd" d="M91.2796 36.736C91.2796 40.8817 87.4297 42.9996 83.1407 42.9996C78.7977 42.9996 74.9971 40.882 74.9971 36.736V12.7556C74.9971 8.6119 78.7977 6.48926 83.1407 6.48926C87.4297 6.48926 91.2796 8.6119 91.2796 12.7556V36.736ZM84.3705 14.4852C84.3705 13.4968 84.2238 12.8049 83.1407 12.8049C82.0536 12.8049 81.9041 13.497 81.9041 14.4852V35.205C81.9041 36.1934 82.0536 36.6858 83.1407 36.6858C84.2238 36.6858 84.3705 36.1934 84.3705 35.205V14.4852Z" fill="white"/>
<path fill-rule="evenodd" clip-rule="evenodd" d="M111.695 10.2069C110.095 10.5779 111.631 11.3448 111.075 12.3648C116.715 13.4899 114.314 22.3545 113.629 23.402C113.763 23.2773 113.913 23.1482 114.107 23.0908C114.654 22.5928 115.464 23.5883 116.138 23.3518C117.088 23.0161 117.915 22.1921 118.432 21.3512C119.075 20.3185 119.03 19.271 118.965 18.1012C118.893 16.7869 118.661 15.4903 118.29 14.2283C118.049 13.4071 117.544 12.3201 116.862 11.7771C115.827 10.9214 113.231 9.86608 111.695 10.2069ZM111.367 1.45234C111.895 1.1533 114.535 -0.765474 114.692 0.339877C114.558 0.524026 114.214 0.775138 113.995 0.94438C114.327 1.15811 114.391 1.14114 114.458 1.61378C113.348 2.76569 112.932 3.80132 110.767 3.7167C109.774 3.69904 109.202 3.97286 108.826 4.41087C108.251 5.09793 108.097 6.17508 107.529 7.25016C107.596 7.33271 107.716 7.45196 107.775 7.54645L107.823 7.69803C107.701 7.83769 107.537 7.88493 107.532 7.99707C107.56 8.30529 107.315 9.28864 106.999 10.152C107.412 9.95529 107.893 9.85094 108.53 9.97294C108.746 10.0154 108.976 10.1099 109.204 10.1917C109.005 9.73399 109.356 10.0823 108.911 9.35308C108.961 9.25355 109.04 9.13155 109.015 9.05266C109.085 9.03018 109.22 9.07949 109.246 9.07238L108.624 7.30038C108.624 7.30038 108.846 4.48563 108.826 4.41087L109.675 3.88824C109.834 3.90865 109.683 6.38468 109.75 6.48925C109.75 6.48925 109.774 6.70298 109.844 6.94492C110.013 7.776 110.31 9.33358 110.279 9.37876C110.454 9.69684 110.895 10.4814 110.528 10.6951C110.514 10.76 110.481 10.7868 110.447 10.8024C110.466 10.8143 110.489 10.8221 110.512 10.837C110.243 11.2455 111.012 11.8846 110.588 12.6437C116.183 13.7639 113.858 22.5311 113.157 23.6632C113.267 23.5667 113.379 23.4818 113.52 23.4071C113.197 24.5994 112.714 26.0475 112.286 26.2966C111.161 26.9181 108.508 28.5483 107.186 28.25C106.307 28.128 106.076 26.5626 105.183 26.8885C104.841 26.8885 104.46 27.0006 104.16 27.1199C104.688 27.5354 105.586 27.9262 104.812 28.5633C104.639 28.705 102.713 27.7923 102.437 27.6751C101.708 27.3717 100.996 27.0155 100.379 26.5126C99.0645 25.4453 98.5221 23.7777 97.7883 22.3125C97.2331 21.2001 96.6927 20.0621 96.551 18.8158C96.4443 17.8776 96.6209 16.9195 96.8996 16.0258C97.3879 14.4808 98.2386 12.8331 99.4035 11.6908C99.819 11.2881 100.842 10.3497 101.469 10.3864C102.582 10.4442 103.416 11.1856 104.133 11.7727C104.55 11.7255 104.896 11.5739 105.205 11.3925L105.357 11.1407C105.27 10.1876 105.604 9.20998 105.675 8.15737C105.685 7.8237 105.67 7.48292 105.633 7.11187C105.703 7.09215 105.904 7.03207 105.954 6.90525C106.032 6.88278 106.161 6.95754 106.228 6.93781L106.604 6.52434C106.594 6.48696 106.457 6.26061 106.425 6.15398C106.774 5.67354 107.184 4.06803 107.186 3.4211L106.907 3.11977L106.733 3.17205C106.626 3.20232 106.251 3.58828 106.251 3.58828C105.87 3.61786 105.33 3.0606 105.143 2.76936L105.011 2.26644C105.352 1.84105 108.292 1.85366 108.896 2.23686C109.118 2.07243 109.593 1.93346 109.859 2.15018C110.004 2.105 110.166 1.86879 110.166 1.86879C110.358 1.90113 110.457 1.86879 110.584 2.05294C110.71 1.79587 110.964 1.3324 111.367 1.45234ZM109.881 10.2816C109.967 10.4362 110.055 10.5483 110.147 10.6428C109.97 10.5433 109.794 10.4389 109.617 10.3564L109.881 10.2816ZM109.796 14.1861C109.839 14.1487 110.563 15.2167 110.622 15.319C111.588 16.9513 111.937 18.9547 111.663 20.8256C111.559 21.555 111.474 22.7647 110.814 23.1952C109.754 23.8823 108.029 23.2445 107.143 22.5061C107.098 22.4687 105.565 21.1072 105.704 21.0599C106.419 21.1024 107.106 20.8955 107.715 20.5323C107.957 20.3905 108.895 19.8727 108.863 19.5645C108.818 19.2288 107.75 18.6165 107.452 18.4796C106.899 18.2179 106.491 17.9441 106.075 17.4636C106.974 17.2274 107.613 16.742 108.251 16.093C108.98 15.3488 107.815 15.4137 107.716 14.6794C108.027 14.562 109.493 14.445 109.796 14.1861Z" fill="white"/>
</g>
<defs>
<clipPath id="clip0">
<rect width="119" height="43" fill="white"/>
</clipPath>
</defs>
</svg>
