<svg width="181" height="75" viewBox="0 0 181 75" fill="none" xmlns="http://www.w3.org/2000/svg">
<path fill-rule="evenodd" clip-rule="evenodd" d="M20.3189 0.370787C30.8682 1.0361 43.8417 2.62378 51.8939 4.23467C59.5903 5.77461 64.7059 7.30349 68.8357 9.29809C78.3032 13.8708 81.4441 19.602 77.0889 24.3573C74.4824 27.2033 69.7077 29.1652 63.1737 30.075C55.6822 31.118 36.7094 31.2328 29.8786 30.2764L28.9392 30.1448V31.2653V32.3859L30.4312 33.2537C35.7806 36.3647 42.592 39.2293 49.1708 41.1346C53.7741 42.4679 56.7348 42.9524 63.4029 43.4634C67.5289 43.7795 68.6217 44.308 69.5008 46.4115C70.3363 48.4115 68.9754 50.088 66.5168 50.088C65.3425 50.088 50.8323 46.6008 45.1852 44.9613C39.4469 43.2954 34.8242 41.2776 31.3907 38.9395L29.6023 37.7219V39.0295C29.6023 39.939 29.7365 40.5648 30.0433 41.0846C30.7132 42.2199 30.8218 43.6298 30.3107 44.5566C29.4516 46.1151 26.7894 46.8527 25.5479 45.8762C24.683 45.1959 24.3077 43.577 24.0206 39.2877C23.7876 35.8081 23.7215 35.4247 23.3122 35.18C23.0639 35.0317 21.6672 34.2074 20.2084 33.3487C18.7496 32.4898 16.3043 30.8972 14.7743 29.81C12.3202 28.0656 11.852 27.8171 10.7957 27.6978C8.30732 27.4166 6.85535 26.6249 6.27337 25.2319C5.51015 23.4051 7.30472 21.5805 9.86914 21.576C10.3603 21.5752 11.2899 22.0126 12.8617 22.984C17.1124 25.6114 16.9305 25.5533 20.898 25.5533H24.3654L24.2299 21.9615C24.1556 19.9862 23.8933 16.9772 23.647 15.2753C22.8226 9.57638 23.1214 6.51728 24.5972 5.55048C25.4407 4.99767 27.455 5.01469 28.218 5.58076C29.3488 6.42002 29.4509 7.19143 29.1808 12.8439C28.8152 20.4939 28.8543 26.534 29.2721 26.8806C29.5327 27.097 31.9621 27.1302 40.4895 27.034C53.8092 26.8837 58.5238 26.513 63.7221 25.2083C70.823 23.4256 73.8162 20.5195 71.7569 17.4076C70.5231 15.5432 66.2153 12.9763 61.182 11.1059C58.9621 10.281 52.3955 8.3744 47.8331 7.22989C40.1264 5.29695 32.3637 4.14471 21.5941 3.33506L19.6642 3.19006L19.3959 3.77868C18.9346 4.79101 18.0723 5.0505 14.4794 5.25827C10.6567 5.4793 8.62936 5.85418 6.87392 6.66448C4.44233 7.78667 2.01672 7.55856 0.782467 6.09179C-0.932088 4.05408 0.281826 1.34687 3.34314 0.381396C4.6322 -0.0253052 5.18965 -0.05006 10.8145 0.0482997C14.1576 0.106873 18.4346 0.251871 20.3189 0.370787ZM110.481 26.0851C110.841 26.4688 111.012 26.9772 111.092 27.9086C111.203 29.1948 111.111 29.7523 109.972 34.6924C109.668 36.0108 109.35 38.0258 109.266 39.1696L109.113 41.2495L110.083 40.7122C111.588 39.8783 113.682 39.4247 115.584 39.5208C118.493 39.668 119.784 40.7401 119.784 43.0094C119.784 44.0246 119.832 44.1482 120.171 44.0107C122.505 43.0651 125.829 42.0612 128.888 41.3777L129.482 41.2451L129.45 38.8697C129.413 36.1978 129.69 35.0748 130.55 34.3982C131.542 33.6173 133.639 33.9831 134.622 35.1086C135.471 36.0816 136.136 37.772 136.138 38.9667C136.141 40.4406 135.938 40.9425 134.817 42.238C133.835 43.3721 133.769 43.9899 134.539 44.8435C135.158 45.531 137.116 45.9487 139.241 45.847C140.862 45.7694 141.404 45.6395 142.639 45.0312C143.448 44.6333 144.247 44.0914 144.416 43.827C144.631 43.4906 144.716 42.675 144.7 41.1052C144.679 39.1349 144.741 38.7371 145.215 37.8158C146.225 35.8543 148.077 35.4839 150.566 36.7449C152.578 37.7647 153.248 38.9687 152.352 39.9583C151.864 40.4971 151.728 40.4786 150.119 39.6535C148.807 38.9806 148.717 38.9641 148.353 39.3277C147.799 39.8818 147.866 41.9657 148.476 43.1575C148.819 43.8272 149.23 44.2132 150.003 44.5931C152.47 45.8055 156.169 44.8595 160.907 41.8046C161.703 41.2911 162.648 40.7646 163.007 40.6342L163.659 40.3975L162.885 40.3751C161.682 40.3404 160.352 39.6371 160.033 38.867C159.627 37.8859 159.8 37.0073 160.473 36.6308C160.991 36.3417 161.244 36.3685 163.126 36.9113C164.45 37.2933 166.017 37.5587 167.437 37.6421L169.667 37.7727L169.576 33.8182C169.491 30.1141 169.514 29.8177 169.942 29.1407C170.944 27.5565 172.354 27.7727 172.851 29.5865C173.048 30.3024 173.048 31.1063 172.851 32.9579C172.296 38.1988 172.27 37.631 173.068 37.7906C173.455 37.868 175.244 37.9312 177.043 37.9312C179.723 37.9312 180.378 37.9939 180.663 38.2784C181.165 38.7804 181.096 39.8232 180.526 40.3539C180.077 40.7726 179.762 40.8046 176.106 40.8046H172.169L172.17 42.0755C172.171 44.5781 172.64 49.5741 173.074 51.7223C173.376 53.2152 173.829 54.5427 174.5 55.9043C175.747 58.4331 175.817 59.662 174.83 61.7482C173.816 63.8913 172.531 64.1517 171.307 62.4616C169.82 60.4087 169.198 55.1837 169.33 45.8649L169.406 40.5833L166.532 40.5922C163.932 40.6001 163.724 40.6291 164.341 40.8977C165.108 41.2319 165.98 42.2278 165.98 42.7707C165.98 42.9957 165.208 43.5538 163.916 44.2644C156.43 48.379 151.12 49.0708 148.007 46.3368L147.196 45.6249L146.499 46.2109C143.445 48.7808 137.956 49.2503 133.939 47.2851C132.769 46.7124 130.471 44.6804 130.008 43.8076C129.788 43.3951 129.742 43.3942 128.154 43.7722C126.127 44.2545 122.937 45.4969 121.331 46.4288C119.139 47.7008 117.346 48.0074 116.042 47.3333C115.009 46.7992 114.94 45.9551 115.836 44.8086C116.062 44.5186 116.247 43.949 116.247 43.5428C116.247 42.4904 115.499 42.0402 113.991 42.1852C113.026 42.2778 112.752 42.4115 112.235 43.0419C110.746 44.8559 110.77 44.8407 109.713 44.6822L108.734 44.5354L108.852 47.2566C109.279 57.1387 110.324 66.4467 111.376 69.7334C111.989 71.6522 111.963 72.6588 111.277 73.4744C110.615 74.2606 109.831 74.4509 108.552 74.1353C107.537 73.8846 107.09 73.401 106.737 72.1716C106.4 70.9966 106.212 42.5992 106.506 37.1576C106.954 28.837 107.295 27.0782 108.671 25.9963C109.41 25.4145 109.872 25.4373 110.481 26.0851ZM21.7647 29.3255C21.9574 29.6376 23.649 30.8581 23.8886 30.8581C23.9921 30.8581 24.0765 30.4603 24.0765 29.974V29.0898H22.8478C22.0341 29.0898 21.6683 29.1694 21.7647 29.3255ZM71.7392 32.4239C73.6867 33.6274 73.7296 37.8677 71.825 40.8711L71.1815 41.8859L71.9193 42.5337C73.1359 43.6018 74.4104 43.9694 76.5113 43.8584C78.0143 43.779 78.6038 43.6318 79.8208 43.032C81.7606 42.076 83.6533 40.113 84.7481 37.9223C86.1782 35.0602 87.1048 34.1736 88.6664 34.1736C89.539 34.1736 90.9529 35.0683 91.1722 35.7593C91.2967 36.1514 91.1459 36.3994 90.3928 37.0415C89.1027 38.1418 89.2077 38.663 90.9211 39.6627C91.6408 40.0825 92.7796 40.9587 93.452 41.6098C94.1243 42.2612 94.7154 42.7939 94.7658 42.7939C95.0997 42.7939 99.14 40.3314 100.254 39.4488C101.354 38.577 101.775 38.3732 102.475 38.3732C102.95 38.3732 103.458 38.4926 103.604 38.6385C104.041 39.0752 103.917 40.2478 103.372 40.8276C102.738 41.5031 100.597 42.8874 97.6664 44.518C95.4795 45.7345 95.357 45.8408 95.228 46.6343C94.9866 48.119 94.4557 48.4192 91.9164 48.5065C89.295 48.5969 88.738 48.4873 88.2818 47.7908C87.8165 47.0806 88.1819 46.3119 89.2766 45.6965C90.3095 45.1158 90.7655 44.1698 90.373 43.4219C90.2238 43.1372 89.6254 42.444 89.0434 41.8815C88.2647 41.1286 87.9476 40.6324 87.8423 40.0027C87.5391 38.1849 87.2712 38.1336 86.5471 39.7547C84.6495 44.0034 80.7609 46.3676 76.222 46.0318C72.1351 45.7297 68.5137 43.4477 66.8915 40.1523C66.0978 38.5406 65.823 36.0997 66.268 34.6146C67.0086 32.143 69.6033 31.1039 71.7392 32.4239ZM69.2647 35.5926C68.9277 35.8393 68.8454 36.1393 68.8806 36.9922C68.9314 38.2145 69.5978 40.405 69.9532 40.5177C70.3418 40.641 70.9499 39.0615 71.0894 37.5662C71.1985 36.3985 71.153 36.0833 70.823 35.7186C70.3535 35.1999 69.8567 35.1596 69.2647 35.5926ZM132.299 36.2778C131.807 36.7705 131.64 37.5671 131.794 38.6924C131.959 39.8939 132.368 40.8046 132.744 40.8046C133.523 40.8046 134.21 37.6491 133.658 36.607C133.3 35.9304 132.774 35.8031 132.299 36.2778ZM114.671 56.6637C114.969 57.4236 115.274 58.0452 115.35 58.0452C115.427 58.0452 115.731 57.3987 116.026 56.6085L116.564 55.1718H117.839H119.114L118.7 56.2217C118.472 56.7992 117.926 58.1612 117.487 59.2485C116.742 61.0952 116.689 61.383 116.689 63.6139V66.0024H115.363H114.037V63.7012C114.037 61.4237 114.025 61.3728 112.911 58.7832C111.144 54.6784 111.164 55.1399 112.759 55.2164L114.131 55.2823L114.671 56.6637ZM125.141 56.0057L125.862 56.7263L125.935 60.0933C126.048 65.3158 125.662 66.0024 122.616 66.0024C119.309 66.0024 119.01 65.5526 119.01 60.5698C119.01 57.2632 119.048 56.9221 119.474 56.3483C120.208 55.3599 120.815 55.1481 122.71 55.2202C124.306 55.2809 124.468 55.3333 125.141 56.0057ZM129.067 59.4549C129.067 64.0626 129.136 64.3488 130.216 64.1959L130.725 64.1236L130.785 59.6477L130.845 55.1718H132.166H133.488V59.6035C133.488 65.6213 133.28 66.0024 129.99 66.0024C128.179 66.0024 128.123 65.986 127.387 65.2509L126.636 64.4994V59.8356V55.1718H127.852H129.067V59.4549ZM139.657 55.4929C140.917 56.145 141.334 58.7375 140.384 60.0221L139.876 60.71L140.329 61.2862C140.693 61.7497 140.782 62.1836 140.782 63.5049C140.782 64.4083 140.885 65.3397 141.011 65.5749C141.225 65.9754 141.156 66.0024 139.919 66.0024C139.102 66.0024 138.531 65.8969 138.424 65.7261C138.328 65.5742 138.198 64.6043 138.134 63.571L138.019 61.6922L137.301 61.6231L136.582 61.5536V63.7781V66.0024H135.367H134.151V60.5871V55.1718H136.593C138.297 55.1718 139.223 55.269 139.657 55.4929ZM146.183 55.3873C146.876 55.6507 147.632 56.8348 147.633 57.6584C147.634 58.247 147.596 58.2662 146.433 58.2662C145.287 58.2662 145.229 58.2384 145.162 57.6584C145.107 57.1832 144.961 57.0355 144.492 56.9814C143.995 56.9241 143.865 57.0176 143.738 57.5253C143.573 58.1829 143.735 58.361 146.085 60.0953C147.42 61.0804 147.668 61.6182 147.575 63.3239C147.507 64.5869 147.424 64.8008 146.789 65.3685C146.141 65.9478 145.936 66.0024 144.408 66.0024C142.866 66.0024 142.689 65.954 142.108 65.3724C141.476 64.7409 141.064 63.4229 141.303 62.7992C141.391 62.57 141.744 62.4659 142.433 62.4659C143.389 62.4659 143.434 62.4948 143.434 63.102C143.434 63.8641 143.886 64.2945 144.583 64.1959C145.017 64.1342 145.092 63.9941 145.092 63.2439C145.092 62.398 145.028 62.32 143.438 61.2241C142.453 60.5453 141.675 59.8285 141.514 59.4516C140.911 58.0394 141.327 56.2566 142.413 55.5939C143.176 55.1287 145.21 55.0173 146.183 55.3873ZM154.265 56.1664V57.1611H152.497H150.728V58.2561V59.3513L152.22 59.4165L153.712 59.4819L153.78 60.4213L153.848 61.3607H152.288H150.728V62.6776V63.9945L152.441 64.0591L154.155 64.1236L154.222 65.063L154.29 66.0024H151.294H148.297V60.5871V55.1718H151.281H154.265V56.1664ZM157.138 59.5823V63.993L158.63 64.0582L160.122 64.1236L160.19 65.063L160.258 66.0024H157.483H154.707V60.5871V55.1718H155.923H157.138V59.5823ZM166.422 56.1664V57.1611H164.764H163.106V58.2662V59.3714H164.543H165.98V60.4766V61.5817H164.543H163.106V63.792V66.0024H161.78H160.454V60.5871V55.1718H163.438H166.422V56.1664ZM121.899 57.2873C121.617 57.5693 121.552 58.2052 121.552 60.6691C121.552 62.7346 121.637 63.7883 121.817 63.9689C122.196 64.3477 123.028 64.2964 123.186 63.8844C123.447 63.2056 123.335 57.4846 123.055 57.2053C122.695 56.845 122.315 56.8719 121.899 57.2873ZM136.73 57.0874C136.649 57.1683 136.582 57.7651 136.582 58.4136C136.582 59.4963 136.624 59.5924 137.091 59.5924C137.793 59.5924 138.13 59.1895 138.13 58.3482C138.13 57.3591 137.25 56.5669 136.73 57.0874Z" fill="white"/>
<rect x="65.4092" y="55.1714" width="11.0517" height="11.0517" fill="white"/>
<rect x="78.6709" y="55.1714" width="11.0517" height="11.0517" fill="white"/>
<rect x="91.9326" y="55.1714" width="11.0517" height="11.0517" fill="white"/>
<rect x="52.1465" y="55.1714" width="11.0517" height="11.0517" fill="white"/>
</svg>
