<svg width="156" height="54" viewBox="0 0 156 54" fill="none" xmlns="http://www.w3.org/2000/svg">
<path fill-rule="evenodd" clip-rule="evenodd" d="M1.27713 0.183134C0.854798 0.414292 0.250946 1.0157 0.250946 1.20518C0.250946 1.295 0.194535 1.36853 0.125587 1.36853C0.0433521 1.36853 0.000228818 4.12637 0.000228818 9.3931C0.000228818 17.0702 0.0101321 17.4177 0.228381 17.4177C0.363016 17.4177 3.90627 14.0006 8.87173 9.08207C13.5001 4.49749 17.3462 0.746472 17.4187 0.746472C17.4911 0.746472 17.5504 0.578515 17.5504 0.373236V0L9.55882 0.0121923C3.33276 0.0216476 1.50315 0.0594689 1.27713 0.183134ZM36.8556 0.259399C36.8556 0.404961 37.0597 0.69173 37.3203 0.912561C37.8304 1.34477 53.3318 16.7315 53.6838 17.1552C53.8037 17.2995 54.0442 17.4177 54.218 17.4177H54.5342L54.5014 9.4242L54.4685 1.43074L54.1026 0.955981C53.9014 0.694841 53.5228 0.372987 53.2614 0.240613C52.8063 0.0102018 52.4484 0 44.8209 0H36.8556V0.259399ZM25.3853 1.86618C25.2474 1.92503 24.9859 1.97703 24.8042 1.98188C24.6225 1.98661 24.3123 2.0742 24.1147 2.17646C23.9173 2.2786 23.6561 2.36258 23.5345 2.36308C23.4129 2.36345 23.2155 2.41633 23.0958 2.4804C22.9761 2.5446 22.5961 2.72649 22.2514 2.88474C21.9066 3.04299 21.5682 3.21431 21.4992 3.26544C21.4303 3.31645 21.0282 3.60994 20.6059 3.91748C19.7669 4.52847 4.66795 19.4099 4.06811 20.2169C3.86478 20.4906 3.64189 20.7747 3.57295 20.8482C3.504 20.9216 3.33477 21.2015 3.19687 21.4703C3.05898 21.7389 2.90391 21.9774 2.85214 22.0001C2.80049 22.023 2.75774 22.107 2.75736 22.1868C2.75686 22.2666 2.68102 22.4756 2.58863 22.6513C2.49637 22.8269 2.37439 23.1348 2.31761 23.3356C2.19776 23.7597 2.19563 23.766 2.09848 24.0115C2.02427 24.199 1.9992 24.3357 1.74509 25.9399C1.6349 26.636 1.6774 28.2566 1.81843 28.7392C1.82846 28.7734 1.88186 29.0813 1.93714 29.4234C1.99243 29.7656 2.08181 30.1015 2.13596 30.1699C2.18999 30.2383 2.27373 30.5043 2.32212 30.7608C2.37038 31.0175 2.45563 31.2274 2.51141 31.2274C2.5672 31.2274 2.65244 31.4062 2.7007 31.6246C2.74909 31.8432 2.86643 32.0991 2.96145 32.1935C3.05647 32.2878 3.13419 32.4449 3.13419 32.5426C3.13419 32.6403 3.1906 32.7203 3.25955 32.7203C3.3285 32.7203 3.38491 32.8061 3.38491 32.9108C3.38491 33.0157 3.46953 33.1336 3.57295 33.1729C3.67637 33.2124 3.76186 33.3086 3.76299 33.3868C3.76412 33.4651 3.93548 33.725 4.14395 33.9645C4.53695 34.4158 9.10627 39.0036 9.73494 39.5778C9.93113 39.757 10.6135 40.4394 11.2512 41.0943C11.889 41.749 12.4107 42.2601 12.4107 42.2299C12.4107 42.1997 12.6223 42.4107 12.8808 42.6988C13.1394 42.9868 13.6794 43.5329 14.0806 43.9121C14.482 44.2914 16.0333 45.8115 17.528 47.2901C20.1803 49.9138 21.1236 50.6743 22.5021 51.3004C22.7779 51.4257 23.1632 51.6073 23.3584 51.704C23.5536 51.8006 23.8385 51.8798 23.9915 51.8798C24.1444 51.8798 24.3316 51.9412 24.4074 52.0165C24.585 52.1928 27.4853 52.3421 28.7111 52.2381C29.5741 52.1648 31.6901 51.5751 31.8425 51.3655C31.8778 51.3171 32.0611 51.2389 32.25 51.1919C32.4389 51.1449 32.5934 51.0564 32.5934 50.9955C32.5934 50.9344 32.6672 50.8845 32.7572 50.8845C32.8472 50.8845 33.1151 50.7448 33.3526 50.5739C33.59 50.4031 33.9254 50.1656 34.0977 50.0462C34.2701 49.9266 36.111 48.1489 38.1887 46.0956C40.2664 44.0422 42.41 41.9342 42.9523 41.4108C43.4946 40.8875 44.0579 40.3276 44.2038 40.1666C44.3498 40.0058 45.1255 39.2413 45.9275 38.4679C46.7295 37.6946 47.3857 37.0134 47.3857 36.9542C47.3857 36.8951 47.4385 36.828 47.5031 36.8052C47.6368 36.758 48.9516 35.5008 49.7129 34.6921C50.5073 33.8485 51.1914 32.8619 51.6409 31.9117C52.2005 30.7289 52.2475 30.6082 52.3446 30.1077C52.3911 29.8682 52.493 29.5936 52.5712 29.4976C52.77 29.2535 52.7676 24.8614 52.5686 24.6216C52.4888 24.5256 52.3837 24.1811 52.3349 23.856C52.2861 23.5309 52.1963 23.265 52.1351 23.265C52.074 23.265 52.024 23.1756 52.024 23.0661C52.024 22.8696 51.6632 22.0171 51.5291 21.8965C51.491 21.8623 51.35 21.6202 51.2157 21.3584C51.0814 21.0967 50.884 20.7788 50.777 20.652C50.6699 20.5252 50.4132 20.2143 50.2063 19.9609C49.816 19.4828 48.3012 17.9631 43.7377 13.4706C42.2623 12.0182 39.6822 9.46153 38.0042 7.78918C35.0147 4.80989 34.0125 3.87966 33.6094 3.70996C33.4988 3.66343 33.4619 3.62151 33.5276 3.61665C33.5932 3.61193 33.3393 3.45405 32.9635 3.26581C32.5876 3.07758 32.2518 2.88885 32.2174 2.84642C32.163 2.77936 30.4123 2.19176 29.2625 1.85461C28.7795 1.71303 25.723 1.72211 25.3853 1.86618ZM153.341 10.4145C152.829 10.5119 152.085 11.3862 151.992 11.9989C151.792 13.3193 152.676 14.3407 154.005 14.3249C155.251 14.3101 156 13.5756 156 12.3678C156 11.011 154.808 10.1355 153.341 10.4145ZM154.988 10.983C155.619 11.5631 155.741 12.4398 155.304 13.2495C154.94 13.9223 154.734 14.05 154 14.0546C153.479 14.0579 153.29 13.9927 152.904 13.6762C152.647 13.466 152.436 13.1894 152.436 13.0615C152.436 12.9337 152.38 12.7945 152.311 12.7522C151.976 12.5466 152.388 11.5227 153.016 11.0004C153.493 10.6038 154.565 10.5943 154.988 10.983ZM153.752 11.2871C153.372 11.3798 153.245 11.5222 153.07 12.0464C152.934 12.4553 152.94 12.5826 153.11 12.9087C153.428 13.5184 154.567 13.7776 154.567 13.2403C154.567 13.0891 154.492 13.055 154.277 13.1087C153.809 13.2251 153.439 12.8814 153.439 12.3307C153.439 11.9606 153.504 11.8268 153.744 11.6991C153.912 11.61 154.166 11.5672 154.308 11.6041C154.697 11.7052 154.757 11.4641 154.379 11.3212C154.198 11.2529 154.039 11.2035 154.026 11.2115C154.014 11.2195 153.89 11.2534 153.752 11.2871ZM114.311 12.0148C113.698 12.2012 113.546 12.4148 113.39 13.3121C113.254 14.0924 112.891 15.3027 112.793 15.3027C112.741 15.3027 112.698 15.3827 112.698 15.4805C112.698 15.8019 111.876 16.531 111.291 16.7281C110.975 16.8343 110.444 16.9536 110.109 16.9932C109.105 17.1117 108.828 17.2649 108.736 17.752C108.636 18.2828 108.766 19.3033 108.948 19.415C109.022 19.4603 109.532 19.5317 110.081 19.5739C110.631 19.6159 111.134 19.6831 111.2 19.7233C111.272 19.7677 111.319 22.2138 111.319 25.9783C111.319 30.9663 111.355 32.3495 111.507 33.139C111.834 34.8348 112.56 35.9256 113.744 36.4997C114.513 36.873 116.083 37.201 117.067 37.1943C118.008 37.1877 119.755 36.8109 120.532 36.4465C121.277 36.0976 122.529 34.8886 122.653 34.398C122.776 33.9097 122.53 33.4109 122.036 33.1464C121.617 32.9225 121.609 32.9234 120.903 33.2664C119.455 33.9699 118.078 34.1472 117.373 33.7206C116.372 33.1146 116.209 31.8966 116.208 24.989C116.208 20.2656 116.229 19.6754 116.406 19.6082C116.667 19.5089 122.679 19.5388 123.165 19.6418L123.541 19.7215L123.621 26.1898C123.666 29.7916 123.759 32.9427 123.831 33.3002C123.993 34.1019 124.561 35.2751 125.008 35.7307C125.569 36.3023 126.627 36.7903 127.765 37.0019C129.103 37.2507 129.841 37.2504 131.08 37.0007C132.82 36.6501 134.084 35.8729 134.835 34.6921C135.197 34.1237 135.162 33.9092 134.618 33.344C134.294 33.0074 134.17 32.9557 133.845 33.0204C133.631 33.0627 133.425 33.1488 133.386 33.2118C133.245 33.437 131.342 33.9645 130.702 33.9554C129.465 33.9378 128.962 33.3425 128.735 31.6268C128.661 31.0653 128.624 28.3719 128.645 25.1312L128.681 19.5949L131.965 19.5327C133.913 19.4958 135.296 19.4198 135.363 19.3461C135.425 19.2776 135.545 18.9644 135.63 18.65C135.808 17.993 135.628 17.1321 135.275 16.9576C135.165 16.9027 133.636 16.8298 131.877 16.7956L128.681 16.7334L128.618 14.5352C128.584 13.326 128.527 12.3104 128.493 12.2782C128.458 12.246 128.166 12.1315 127.844 12.0239C127.311 11.846 127.204 11.846 126.681 12.0232C126.034 12.2416 125.819 12.5479 125.686 13.4365C125.555 14.3179 125.113 15.526 124.779 15.92C124.158 16.6534 123.673 16.7322 119.78 16.7328L116.27 16.7334L116.236 14.5175L116.202 12.3016L115.797 12.1375C115.089 11.8502 114.904 11.8349 114.311 12.0148ZM37.4679 14.3854C37.9785 14.4866 38.1095 14.8734 38.1073 16.2727C38.1048 17.8863 37.8831 18.4456 36.7656 19.6558C36.6083 19.8262 36.4796 19.9996 36.4796 20.0411C36.4796 20.0827 36.3808 20.232 36.2602 20.3729C36.1396 20.5139 35.9562 20.7515 35.8528 20.9012C35.7493 21.0509 35.5801 21.2769 35.4767 21.4036C35.3733 21.5302 35.1666 21.7909 35.0173 21.9828C34.8681 22.1748 34.6283 22.4664 34.4845 22.6309C34.3407 22.7954 34.2222 22.9633 34.2211 23.0041C34.22 23.0449 34.0649 23.2521 33.8764 23.4642C33.6878 23.6765 33.2812 24.1943 32.9725 24.615C32.664 25.0358 32.3678 25.38 32.3144 25.38C32.261 25.38 32.2174 25.4384 32.2174 25.5098C32.2174 25.6316 31.3782 26.8022 30.9638 27.2584C30.6767 27.5745 30.3453 28.0065 29.9946 28.5214C29.8199 28.778 29.628 28.988 29.5682 28.988C29.5084 28.988 29.4595 29.0999 29.4595 29.2368C29.4595 29.375 29.3759 29.4856 29.2714 29.4856C29.168 29.4856 29.0834 29.5482 29.0834 29.6247C29.0834 29.7012 28.9282 29.9443 28.7387 30.1649C28.549 30.3855 28.3093 30.6935 28.2059 30.8493C28.1025 31.0052 27.8768 31.2801 27.7045 31.4604C27.5321 31.6407 27.1812 32.0974 26.9249 32.4755C26.6685 32.8535 26.3554 33.2732 26.2291 33.4081C26.1028 33.5431 25.9617 33.7515 25.9157 33.8711C25.8696 33.9908 25.7738 34.0889 25.7026 34.0889C25.6315 34.0889 25.5734 34.1728 25.5734 34.2755C25.5734 34.4385 26.2479 34.4621 30.8922 34.4621C35.3753 34.4621 36.2395 34.4905 36.3931 34.6427C36.4931 34.7422 36.5979 34.8009 36.6257 34.7733C36.6536 34.7456 36.8627 35.2662 37.0903 35.93C37.3181 36.5938 37.5841 37.3134 37.6815 37.529C37.7788 37.7446 37.8585 38.0274 37.8585 38.1573C37.8585 38.2873 37.9076 38.4468 37.9677 38.5117C38.199 38.7621 38.237 39.294 38.0376 39.4918C37.8616 39.6665 36.7218 39.6874 27.3434 39.6874C18.4862 39.6874 16.8083 39.6599 16.6033 39.5112C16.3843 39.3522 16.3638 39.1975 16.3931 37.925C16.4287 36.3849 16.5054 35.8306 16.6828 35.8306C16.7464 35.8306 16.7983 35.7747 16.7983 35.7062C16.7983 35.6378 16.8969 35.4738 17.0176 35.3419C17.3788 34.9469 17.5504 34.7254 17.5504 34.6539C17.5504 34.6169 17.6491 34.4866 17.7698 34.3646C17.8905 34.2425 18.1302 33.9577 18.3026 33.7318C18.4749 33.5057 18.6724 33.2553 18.7413 33.1751C18.8103 33.0948 19.4589 32.246 20.1827 31.2885C20.9065 30.3311 21.6537 29.3799 21.8431 29.1746C22.0325 28.9693 22.1878 28.7553 22.1881 28.6992C22.1884 28.643 22.2749 28.5114 22.3805 28.4066C22.4859 28.302 23.1195 27.5082 23.7883 26.6427C25.0876 24.961 25.1888 24.8319 25.3903 24.5981C25.462 24.515 25.8825 23.9711 26.3246 23.3894C26.7668 22.8078 27.1736 22.3133 27.2285 22.2905C27.2834 22.2676 27.3284 22.1724 27.3284 22.0789C27.3284 21.9855 27.4045 21.8642 27.4974 21.8094C27.7529 21.6589 28.8327 20.153 28.8327 19.9471C28.8327 19.8479 28.8891 19.8014 28.958 19.8437C29.027 19.886 29.0834 19.8612 29.0834 19.7888C29.0834 19.6985 27.6464 19.6571 24.5137 19.6571C19.9181 19.6571 19.5347 19.6249 19.0861 19.2009C18.9999 19.1194 18.9294 18.9369 18.9294 18.795C18.9294 18.6533 18.8792 18.5374 18.8179 18.5374C18.7567 18.5374 18.67 18.3438 18.6252 18.1072C18.5805 17.8705 18.4618 17.5207 18.3614 17.3296C18.261 17.1386 18.1785 16.8596 18.178 16.7096C18.1776 16.5597 18.1208 16.4025 18.0519 16.3602C17.9829 16.3179 17.9265 16.181 17.9265 16.056C17.9265 15.9311 17.8423 15.6684 17.7392 15.4724C17.418 14.8614 17.5299 14.541 18.1145 14.3967C18.4694 14.309 37.0288 14.2982 37.4679 14.3854ZM98.7827 16.1849C95.3129 16.7218 92.5079 18.942 91.0949 22.2697C90.0909 24.6342 89.9824 27.9483 90.8203 30.6675C91.6094 33.2283 93.6051 35.4234 95.9622 36.3233C96.3759 36.4812 96.8271 36.6537 96.965 36.7066C97.4098 36.8774 99.751 37.1992 100.548 37.1992C102.283 37.1992 104.507 36.7021 105.74 36.0393C106.359 35.7067 108.015 34.1551 108.27 33.6684C108.44 33.345 108.438 33.2635 108.243 32.8352C107.879 32.033 107.205 31.953 106.242 32.5973C105.532 33.0719 104.692 33.3062 103.126 33.4658C101.147 33.6676 99.481 33.3878 98.2806 32.6518C97.3855 32.103 96.417 30.7371 96.1239 29.61C96.0616 29.3705 95.9613 28.9786 95.9009 28.7392C95.8406 28.4997 95.7523 27.7859 95.7048 27.1529L95.6184 26.0021H101.718C108.498 26.0021 108.283 26.0282 108.568 25.1706C108.736 24.6649 108.545 22.7247 108.233 21.7721C107.537 19.6463 106.136 17.9305 104.41 17.0897C103.152 16.477 102.921 16.3985 101.854 16.221C100.74 16.0356 99.8177 16.0248 98.7827 16.1849ZM142.282 16.2312C141.385 16.3945 140.674 16.5995 140.069 16.8685C139.852 16.9653 139.638 17.0444 139.593 17.0444C139.382 17.0444 138.041 18.0015 137.529 18.5183C135.97 20.0904 135.708 22.5862 136.991 23.6358C137.601 24.1347 138.595 24.3418 139.36 24.1294C140.004 23.9508 140.091 23.898 140.661 23.3397C141.313 22.7001 141.376 21.8251 140.842 20.8011C140.214 19.598 141.545 18.5374 143.681 18.5374C145.997 18.5374 146.92 20.0026 146.92 23.6796V25.0068L146.074 25.0126C144.631 25.0225 140.882 25.6234 140.596 25.8907C140.531 25.952 140.394 26.0021 140.293 26.0021C139.982 26.0021 138.496 26.7664 137.8 27.2847C136.714 28.0928 135.886 29.4141 135.711 30.6168C135.666 30.931 135.6 31.3432 135.566 31.5326C135.531 31.7221 135.592 32.35 135.701 32.9279C136.131 35.2015 137.304 36.4467 139.505 36.9648C140.033 37.0891 140.775 37.1924 141.154 37.1946C141.922 37.1988 143.895 36.893 144.476 36.6797C144.945 36.5074 145.959 36.0388 146.043 35.9552C146.134 35.8645 146.577 35.5938 146.795 35.4955C146.898 35.4488 147.05 35.3232 147.132 35.2163C147.261 35.0485 147.372 35.1166 147.947 35.7154C148.75 36.552 149.028 36.7294 149.948 36.9949C150.814 37.2445 151.294 37.2496 152.168 37.0186C153.37 36.7011 153.737 36.4885 154.774 35.5074C155.578 34.7474 155.666 34.2691 155.108 33.6914C154.774 33.3455 154.16 33.2148 154.009 33.4574C153.97 33.5204 153.663 33.6625 153.328 33.773C152.629 34.0035 152.147 33.8767 151.99 33.4205C151.94 33.275 151.86 30.4685 151.812 27.184C151.717 20.6341 151.715 20.6204 150.903 19.1705C150.257 18.0167 148.998 17.0699 147.422 16.551C146.029 16.0927 143.803 15.9542 142.282 16.2312ZM73.6239 16.9214C73.3163 17.0443 73.2624 17.2706 73.1509 18.9106C73.1115 19.4922 73.0266 20.5 72.9625 21.15C72.7917 22.8815 72.8634 23.0105 73.9991 23.0145C74.3542 23.0158 74.5532 22.9326 74.7826 22.687C74.9516 22.506 75.09 22.2852 75.09 22.1962C75.09 22.1074 75.279 21.6257 75.5101 21.1258C76.3473 19.3142 76.8878 19.0972 80.5639 19.0972C81.9542 19.0972 83.138 19.143 83.1944 19.1989C83.2507 19.2547 83.1638 19.5347 83.0011 19.8209C82.5424 20.6279 80.5697 23.5711 80.4562 23.6175C80.4006 23.6404 80.355 23.7087 80.355 23.7694C80.355 23.8712 79.6292 24.989 79.4709 25.1312C79.4328 25.1654 79.2666 25.4174 79.1015 25.6911C78.9364 25.9648 78.7701 26.2167 78.732 26.2509C78.6939 26.2851 78.3806 26.733 78.0359 27.2462C77.6912 27.7594 77.3804 28.2073 77.3453 28.2415C77.2647 28.3199 76.553 29.3809 76.4689 29.5478C76.4345 29.6163 76.0368 30.2321 75.5854 30.9164C74.2883 32.8822 73.9618 33.416 73.9618 33.5711C73.9618 33.6506 73.9119 33.7156 73.8511 33.7156C73.7901 33.7156 73.7048 33.8137 73.6614 33.9334C73.6179 34.053 73.4148 34.459 73.2101 34.8353C72.6508 35.8631 72.7324 36.431 73.4764 36.6885C74.0347 36.8815 88.4952 36.8809 88.9224 36.6878C89.3918 36.4756 89.4929 36.1356 89.5475 34.5865C89.575 33.7996 89.6723 32.608 89.7635 31.9384C89.9254 30.7482 89.9232 30.7149 89.6589 30.4527C89.4496 30.2449 89.2451 30.1866 88.7523 30.194C87.977 30.2056 87.7433 30.3926 87.5088 31.1891C87.2486 32.072 86.6915 33.2393 86.3717 33.5709C86.2176 33.7308 85.8303 33.9804 85.511 34.1254C84.9754 34.3689 84.7118 34.3897 82.0895 34.3945C80.5268 34.3975 79.2086 34.3607 79.1601 34.3127C79.077 34.2306 80.0374 32.3561 80.2309 32.2227C80.2806 32.1885 80.3608 32.0346 80.4093 31.8806C80.4577 31.7265 80.5499 31.6006 80.6142 31.6006C80.6785 31.6006 80.7311 31.5455 80.7311 31.4781C80.7311 31.3202 81.5047 30.0585 81.6351 30.004C81.6895 29.9812 81.734 29.9165 81.734 29.8601C81.734 29.7649 82.7162 28.2102 82.9529 27.9305C83.0108 27.8621 83.1944 27.5821 83.361 27.3084C83.5275 27.0347 83.695 26.7828 83.7331 26.7486C83.7712 26.7144 84.0845 26.2665 84.4292 25.7533C84.7739 25.2401 85.0982 24.8015 85.15 24.7788C85.2018 24.7559 85.244 24.6837 85.244 24.6181C85.244 24.5151 85.6903 23.8174 85.8708 23.6383C85.9053 23.6041 86.0023 23.4641 86.0864 23.3272C86.8268 22.1231 87.1892 21.5791 87.2745 21.544C87.3299 21.5211 87.3751 21.4469 87.3751 21.3787C87.3751 21.2462 88.8739 18.7659 89.0169 18.6618C89.0639 18.6276 89.1715 18.3699 89.256 18.0891C89.4387 17.4816 89.2905 17.0988 88.8009 16.914C88.4012 16.7633 74.0023 16.7701 73.6239 16.9214ZM101.128 18.7023C101.786 18.941 102.653 19.7479 102.934 20.3818C103.075 20.7016 103.243 21.0618 103.308 21.1821C103.516 21.5715 103.601 23.2365 103.424 23.4483C103.288 23.6109 102.723 23.6383 99.5023 23.6383H95.7397L95.8237 22.9229C95.9638 21.7288 96.4557 20.4395 97.0104 19.8122C97.4101 19.3601 98.2259 18.8442 98.8002 18.6801C99.3813 18.5141 100.643 18.5262 101.128 18.7023ZM146.92 29.8113V32.2522L146.513 32.6092C146.289 32.8057 145.682 33.1431 145.165 33.3591C144.37 33.6914 144.058 33.7538 143.138 33.7648C141.858 33.7801 141.512 33.6043 141.065 32.7129C140.726 32.0357 140.686 30.857 140.978 30.154C141.2 29.6211 142.299 28.4903 142.595 28.4903C142.699 28.4903 142.784 28.4445 142.784 28.3886C142.784 28.1588 145.449 27.4679 146.638 27.3893L146.92 27.3706V29.8113ZM0.0838429 36.6601C0.0378364 36.7056 0.000228818 40.2801 0.000228818 44.6033C0.000228818 53.2494 -0.0353731 52.8407 0.781588 53.568L1.19113 53.9326L9.37078 53.9663L17.5504 54V53.7007C17.5504 53.5285 17.4306 53.3221 17.2684 53.2147C17.1132 53.1119 13.2398 49.3266 8.66075 44.8026C4.08178 40.2786 0.297454 36.5771 0.251322 36.5771C0.20519 36.5771 0.129724 36.6144 0.0838429 36.6601ZM53.5607 37.0771C52.9908 37.7037 49.2111 41.4638 42.1365 48.4421C39.2321 51.3072 36.8556 53.7285 36.8556 53.823C36.8556 53.9673 38.1408 53.9948 44.891 53.9948C53.9082 53.9948 53.4996 54.0351 54.1349 53.0826L54.4685 52.5825V44.6126C54.4685 37.1347 54.455 36.6402 54.2501 36.601C54.1184 36.5759 53.8447 36.7647 53.5607 37.0771Z" fill="white"/>
</svg>
