<svg width="135" height="36" viewBox="0 0 135 36" fill="none" xmlns="http://www.w3.org/2000/svg">
<g clip-path="url(#clip0)">
<path fill-rule="evenodd" clip-rule="evenodd" d="M8.03524 23.7173C7.64969 19.7644 6.71648 19.9425 5.09541 16.5071C3.78103 13.7163 2.92231 11.0528 3.7416 7.17627C1.04274 10.5396 0 14.5222 0 18.2969C0 26.5208 6.46237 34.2314 15.1811 35.7159C11.6629 33.3747 8.5128 28.6456 8.03524 23.7173Z" fill="white"/>
<path fill-rule="evenodd" clip-rule="evenodd" d="M20.2893 22.0036C34.6861 11.8754 23.2948 0.873539 22.9574 0.508789C24.0615 9.77599 15.9693 12.6007 13.3537 15.1963C9.61211 18.9117 9.04255 21.8 9.94509 25.685C10.9396 29.9518 14.6769 35.0795 19.4568 35.9998C14.4841 34.1634 12.7579 27.301 20.2893 22.0036Z" fill="white"/>
<path fill-rule="evenodd" clip-rule="evenodd" d="M25.4726 1.26807C27.8867 3.98672 29.6743 8.35099 28.8156 12.8764C27.1594 21.588 18.1822 22.907 16.8897 28.5776C16.0879 32.1148 18.2873 35.071 22.1034 35.0795C30.0292 35.0964 37.3415 26.8217 37.2057 17.9023C37.0962 10.8788 32.9646 4.19454 25.4726 1.26807Z" fill="white"/>
<path fill-rule="evenodd" clip-rule="evenodd" d="M15.5711 11.7144C23.2602 6.87088 21.4201 0.19934 21.4201 0.19934C20.7278 0.0678605 19.8998 0 18.9841 0C14.042 0.00424128 6.6114 2.04006 5.3014 7.10839C3.57957 13.7757 8.64431 19.196 8.64431 19.196C8.64431 19.196 9.85354 15.311 15.5711 11.7144ZM123.079 20.3073C121.663 20.3073 120.397 20.918 119.538 21.8765L123.044 12.6093L125.953 20.3073H123.079ZM126.492 6.74364H121.821C121.169 6.74329 120.533 6.93674 119.999 7.29782C119.464 7.6589 119.058 8.17018 118.833 8.76249L111.087 29.2564H116.752L118.404 24.8794H127.679L129.335 29.2564H135L126.492 6.74364ZM112.651 9.14845V6.74364H95.6869C94.844 6.74476 94.0361 7.06967 93.4406 7.647C92.845 8.22434 92.5105 9.0069 92.5105 9.82281V12.2276H99.7483V29.2564H105.413V12.2276H109.475C111.227 12.2276 112.651 10.8492 112.651 9.14845ZM82.5913 8.41046L74.0741 20.0401V6.74364H71.5899C70.7463 6.74364 69.9373 7.06805 69.3408 7.64551C68.7443 8.22296 68.4091 9.00616 68.4091 9.82281V29.2564H74.0741L83.8137 16.2696V29.2564H89.4786V6.74364H85.9211C85.2688 6.74351 84.626 6.89481 84.0467 7.18483C83.4673 7.47486 82.9682 7.89515 82.5913 8.41046ZM58.1964 24.3492H51.0506V19.9552H58.1745C58.7523 19.9872 59.2957 20.2312 59.6941 20.6376C60.0925 21.0439 60.3159 21.582 60.3186 22.1423C60.3214 22.7025 60.1035 23.2426 59.7092 23.6527C59.3148 24.0628 58.7738 24.3118 58.1964 24.3492ZM51.0506 11.6508H58.0255C58.95 11.6508 59.7649 12.3167 59.8394 13.2116C59.8586 13.4443 59.8282 13.6784 59.75 13.8992C59.6717 14.12 59.5473 14.3229 59.3846 14.4952C59.2218 14.6675 59.0242 14.8055 58.8039 14.9006C58.5837 14.9957 58.3456 15.0459 58.1044 15.0481H55.4055C53.5391 15.0481 51.9137 16.0363 51.0506 17.4953V11.6508ZM64.8954 12.8808C64.6456 9.40292 61.5656 6.74364 57.9642 6.74364H48.5664C47.7228 6.74364 46.9137 7.06805 46.3172 7.64551C45.7207 8.22296 45.3856 9.00616 45.3856 9.82281V29.2564H58.0518C61.9643 29.2564 65.2809 26.3341 65.4956 22.5509C65.6139 20.5405 64.8516 18.6786 63.5459 17.3172C64.4923 16.0914 65.0137 14.5391 64.8954 12.8808Z" fill="white"/>
</g>
<defs>
<clipPath id="clip0">
<rect width="135" height="36" fill="white"/>
</clipPath>
</defs>
</svg>
