<svg width="239" height="41" viewBox="0 0 239 41" fill="none" xmlns="http://www.w3.org/2000/svg">
<g clip-path="url(#clip0)">
<path fill-rule="evenodd" clip-rule="evenodd" d="M10.363 28.0036L0 38.5263V8.20331L8.07337 0H37.9362L28.859 9.22252V22.6817L21.4205 12.3022H5.74034V15.5637H10.363V28.0036Z" fill="white"/>
<path fill-rule="evenodd" clip-rule="evenodd" d="M40.3668 2.46826V32.7968L32.2935 40.9946L2.43066 41.0001V40.9946L13.8462 29.4031V15.5638H18.4635V28.6979H21.9033V18.3184L29.3419 28.6979H32.2935V10.6661L40.3668 2.46826Z" fill="white"/>
<path fill-rule="evenodd" clip-rule="evenodd" d="M53.285 16.2854H48.4453V12.3022H62.6063V16.2854H57.7666V28.6978H53.2904V16.2854H53.285Z" fill="white"/>
<path fill-rule="evenodd" clip-rule="evenodd" d="M64.9609 12.3022H77.9499V16.1642H69.3883V18.6489H77.1415V22.2355H69.3883V24.8303H78.0639V28.6978H64.9609V12.3022Z" fill="white"/>
<path fill-rule="evenodd" clip-rule="evenodd" d="M85.4326 20.3568L80.1263 12.3022H85.2698L88.1291 16.9135L91.0156 12.3022H96.0452L90.7389 20.3127L96.2731 28.6978H91.1295L88.0369 23.756L84.9226 28.6978H79.8984L85.4326 20.3568Z" fill="white"/>
<path fill-rule="evenodd" clip-rule="evenodd" d="M98.3945 12.3022H102.865V18.4396H108.611V12.3022H113.087V28.6978H108.611V22.4669H102.865V28.6978H98.3945V12.3022Z" fill="white"/>
<path fill-rule="evenodd" clip-rule="evenodd" d="M124.491 11.9717C119.511 11.9717 115.772 15.7896 115.772 20.5C115.772 25.2545 119.462 29.0229 124.448 29.0229C129.429 29.0229 133.167 25.205 133.167 20.5C133.167 15.7455 129.478 11.9717 124.491 11.9717ZM124.491 24.924C122.05 24.924 120.363 22.8635 120.363 20.5C120.363 18.087 122.001 16.0706 124.448 16.0706C126.917 16.0706 128.599 18.1366 128.599 20.5C128.599 22.9131 126.96 24.924 124.491 24.924Z" fill="white"/>
<path fill-rule="evenodd" clip-rule="evenodd" d="M135.875 12.3022H140.357V18.4396H146.097V12.3022H150.573V28.6978H146.097V22.4669H140.357V28.6978H135.875V12.3022Z" fill="white"/>
<path fill-rule="evenodd" clip-rule="evenodd" d="M154.056 12.3022H158.483V21.5303L164.739 12.3022H168.911V28.6978H164.478V19.4698L158.228 28.6978H154.056V12.3022Z" fill="white"/>
<path fill-rule="evenodd" clip-rule="evenodd" d="M172.395 12.3022H176.871V18.9519L182.427 12.3022H187.733L181.624 19.3541L187.939 28.6978H182.568L178.509 22.6101L176.871 24.4612V28.6978H172.395V12.3022Z" fill="white"/>
<path fill-rule="evenodd" clip-rule="evenodd" d="M187.978 20.5C187.978 15.7896 191.71 11.9717 196.697 11.9717C201.677 11.9717 205.372 15.7455 205.372 20.5C205.372 25.2105 201.634 29.0284 196.653 29.0284C191.667 29.0229 187.978 25.2545 187.978 20.5ZM200.798 20.5C200.798 18.1366 199.116 16.0706 196.648 16.0706C194.201 16.0706 192.568 18.087 192.568 20.5C192.568 22.869 194.25 24.924 196.697 24.924C199.165 24.924 200.798 22.9131 200.798 20.5Z" fill="white"/>
<path fill-rule="evenodd" clip-rule="evenodd" d="M225.365 12.3022H229.841V17.4534H232.288C236.162 17.4534 239.005 19.3266 239.005 23.0288C239.005 26.5658 236.466 28.6978 232.527 28.6978H225.376V12.3022H225.365ZM232.169 24.8799C233.645 24.8799 234.524 24.2023 234.524 22.9131C234.524 21.7672 233.645 21.0179 232.196 21.0179H229.841V24.8799H232.169Z" fill="white"/>
<path fill-rule="evenodd" clip-rule="evenodd" d="M209.332 12.3022V19.4918C209.332 21.1942 209.164 23.6513 208.057 24.5218C207.537 24.9295 206.679 25.2435 206.137 25.2435V29.111H206.56C208.112 29.111 209.842 28.483 210.51 28.0477C213.212 26.3068 213.543 23.0013 213.543 19.2605V16.2854H217.406V28.6978H221.882V12.3022H209.332Z" fill="white"/>
</g>
<defs>
<clipPath id="clip0">
<rect width="239" height="41" fill="white"/>
</clipPath>
</defs>
</svg>
