<svg width="114" height="42" viewBox="0 0 114 42" fill="none" xmlns="http://www.w3.org/2000/svg">
<g opacity="0.8">
<path fill-rule="evenodd" clip-rule="evenodd" d="M27.8889 36.8229C31.44 36.8229 35.292 38.0511 39.5564 41.8601C39.9844 42.241 40.5512 41.7668 40.1811 41.2926C35.9899 35.96 32.1148 34.9417 28.2474 34.0866C23.5203 33.0372 21.0873 30.3554 19.3907 27.4092C19.0553 26.8223 18.901 26.9273 18.8702 27.6774C18.8316 28.5986 18.8972 29.819 19.1015 31.0161C18.9126 31.0239 18.7198 31.0239 18.527 31.0239C11.764 31.0239 6.27721 25.4969 6.27721 18.6757C6.27721 11.8584 11.7601 6.3276 18.527 6.3276C25.2901 6.3276 30.7768 11.8545 30.7768 18.6757C30.7768 19.1616 30.7537 19.6396 30.6997 20.1099C29.8052 19.9467 28.0431 19.9312 26.8092 20.0361C26.3427 20.075 26.4082 20.2926 26.7591 20.3587C30.8077 21.0972 33.5916 23.6235 34.2278 28.2138C34.2432 28.3187 34.3781 28.3498 34.4321 28.2604C36.0978 25.4581 37.0541 22.1777 37.0541 18.6719C37.0579 8.36036 28.7603 0 18.527 0C8.29378 0 0 8.36036 0 18.6757C0 28.9911 8.29378 37.3554 18.527 37.3554C21.2415 37.3554 23.9367 36.8229 27.8889 36.8229ZM29.2692 30.0405C30.0944 30.744 30.345 31.5797 29.9093 32.1666C29.6664 32.4892 29.2731 32.668 28.8027 32.668C28.34 32.668 27.8696 32.4969 27.5418 32.2093C26.7938 31.5486 26.574 30.4797 27.0599 29.8695C27.2527 29.6324 27.5611 29.5003 27.9351 29.5003C28.3863 29.5003 28.8605 29.6946 29.2692 30.0405ZM33.071 28.2565C33.1906 29.0766 32.9361 29.4148 32.6777 29.4148C32.3963 29.4148 32.0454 29.0844 31.629 28.4275C31.2164 27.7823 31.066 27.04 31.2704 26.6669C31.4053 26.4181 31.6868 26.3093 32.0415 26.4453C32.7279 26.7096 32.9978 27.7707 33.071 28.2565ZM58.7544 23.9811L56.6183 21.3926C56.3946 21.1205 56.5874 20.7085 56.9345 20.7085H61.4033C61.6154 20.0711 61.7349 19.387 61.7349 18.6796C61.7349 15.4342 59.3405 12.6396 56.0515 12.6396C52.7625 12.6396 50.3681 15.4381 50.3681 18.6796C50.3681 21.925 52.7625 24.6807 56.0515 24.6807C57.054 24.6807 57.9639 24.4242 58.7544 23.9811ZM68.4208 28.3576C68.6522 28.618 68.4632 29.0339 68.1124 29.0339H63.2348C63.0382 29.0339 62.8492 28.9445 62.722 28.7929L61.8968 27.7901C60.2119 28.8901 58.2107 29.5314 56.0592 29.5314C50.1213 29.5314 45.2939 24.6652 45.2939 18.6796C45.2939 12.6941 50.1213 7.82787 56.0592 7.82787C61.9971 7.82787 66.8245 12.6979 66.8245 18.6796C66.8245 20.8368 66.196 22.8462 65.1126 24.5369L68.4208 28.3576ZM113.472 8.32538H109.493C109.2 8.32538 108.964 8.56635 108.964 8.85786V28.4975C108.964 28.7929 109.2 29.03 109.493 29.03H113.472C113.765 29.03 114 28.789 114 28.4975V8.85786C114 8.56635 113.765 8.32538 113.472 8.32538ZM106.774 8.32538H102.321C102.089 8.32538 101.881 8.47696 101.816 8.6985L98.2915 20.3043L94.4203 8.68684C94.3471 8.46918 94.1466 8.32538 93.9191 8.32538H90.8113C90.5838 8.32538 90.3795 8.47307 90.3101 8.68684L86.4389 20.3043L82.9147 8.6985C82.8453 8.47696 82.6409 8.32538 82.4096 8.32538H77.9562C77.7865 8.32538 77.6246 8.407 77.5282 8.54692C77.4279 8.68684 77.4009 8.86174 77.4549 9.02499L83.9943 28.6724C84.0676 28.8901 84.2681 29.0339 84.4956 29.0339H88.0313C88.2588 29.0339 88.4593 28.8862 88.5326 28.6724L92.3652 17.191L96.2017 28.6724C96.275 28.8862 96.4755 29.0339 96.703 29.0339H100.239C100.466 29.0339 100.671 28.8862 100.74 28.6724L107.279 9.02499C107.333 8.86563 107.306 8.68684 107.206 8.54692C107.106 8.407 106.944 8.32538 106.774 8.32538ZM75.7622 8.85786V28.4975C75.7622 28.7929 75.5232 29.03 75.234 29.03H71.2548C70.9618 29.03 70.7266 28.789 70.7266 28.4975V8.85786C70.7266 8.56247 70.9656 8.32538 71.2548 8.32538H75.234C75.527 8.32538 75.7622 8.56635 75.7622 8.85786Z" fill="white"/>
</g>
</svg>
