<svg width="206" height="30" viewBox="0 0 206 30" fill="none" xmlns="http://www.w3.org/2000/svg">
<path fill-rule="evenodd" clip-rule="evenodd" d="M13.8589 5.2235V13.8809H5.19708C2.34091 13.8809 0 11.5444 0 8.68378V0.0219727H8.66181C11.5224 0.0219727 13.8589 2.36288 13.8589 5.2235Z" fill="white"/>
<path fill-rule="evenodd" clip-rule="evenodd" d="M5.19708 15.729H13.8589V24.3864C13.8589 27.247 11.5224 29.5835 8.66181 29.5835H0V20.9216C0 18.0655 2.34091 15.729 5.19708 15.729Z" fill="white"/>
<path fill-rule="evenodd" clip-rule="evenodd" d="M20.9041 0.0219727H29.5659V8.68378C29.5659 11.5444 27.2295 13.8809 24.3688 13.8809H15.707V5.2235C15.707 2.36288 18.0435 0.0219727 20.9041 0.0219727Z" fill="white"/>
<path fill-rule="evenodd" clip-rule="evenodd" d="M29.5659 20.9216V29.5835H20.9041C18.0435 29.5835 15.707 27.247 15.707 24.3864V15.729H24.3688C27.2295 15.729 29.5659 18.0655 29.5659 20.9216Z" fill="white"/>
<path fill-rule="evenodd" clip-rule="evenodd" d="M46.8632 24.6839H63.2762V24.9105C63.2673 27.4912 61.1618 29.5834 58.59 29.5834H39.8271V24.9549L39.876 24.8971L53.8015 6.98275L55.5694 4.92168H40.2847V4.6907C40.2847 2.10549 42.3857 0 44.9754 0H62.8009V4.36644L62.7476 4.42863L47.4673 23.991L46.8632 24.6839Z" fill="white"/>
<path fill-rule="evenodd" clip-rule="evenodd" d="M73.7319 24.6795H91.6508V24.9105C91.6374 27.4868 89.5408 29.579 86.9645 29.5834H68.1973V0H86.2094C88.7857 0.00888391 90.8823 2.11437 90.8823 4.6907V4.91724H73.7319V11.8822H89.3498V16.755H73.7319V24.6795Z" fill="white"/>
<path fill-rule="evenodd" clip-rule="evenodd" d="M119.271 4.6907V29.5834H114.008L113.759 29.1881L101.241 9.80339V29.5834H101.015C98.523 29.5834 95.8311 28.122 95.8223 24.9105V0H101.086L101.344 0.40866L113.888 19.8022V0H114.114C116.597 0 119.271 1.47029 119.271 4.6907Z" fill="white"/>
<path fill-rule="evenodd" clip-rule="evenodd" d="M148.921 7.99551C148.25 6.13878 147.26 4.53523 145.967 3.23374C144.648 1.94113 143.076 1.03942 141.299 0.555244C140.548 0.346472 139.602 0.195446 138.487 0.106607L138.398 0.102165C138.354 0.097723 138.314 0.093281 138.269 0.093281C138.229 0.0888391 138.185 0.0843971 138.145 0.0843971L138.03 0.0710712C137.274 0.0310937 136.444 0 135.555 0H126.529V29.5834H136.013C136.812 29.5834 137.576 29.5479 138.283 29.4768C140.304 29.2947 142.045 28.8327 143.453 28.0998C145.403 27.087 147.002 25.3858 148.197 23.0449C149.383 20.7484 149.983 17.9188 149.983 14.6362C149.983 12.0866 149.627 9.84337 148.921 7.99551ZM143.44 21.1215C142.845 22.3741 142.005 23.2847 140.948 23.8311C140.282 24.182 139.367 24.4263 138.229 24.5596L138.221 24.564C137.55 24.644 136.777 24.6839 135.924 24.6839H131.833V4.91724H135.822C136.661 4.91724 137.434 4.94834 138.109 5.01052L138.229 5.01941L138.238 5.02385L138.354 5.02829C139.122 5.10825 139.757 5.23706 140.228 5.40586C141.49 5.88115 142.556 6.84505 143.382 8.27536C144.248 9.75009 144.688 11.8778 144.688 14.5963C144.688 17.1371 144.266 19.3358 143.44 21.1215Z" fill="white"/>
<path fill-rule="evenodd" clip-rule="evenodd" d="M160.461 24.6795H178.38V24.9105C178.367 27.4868 176.266 29.579 173.698 29.5834H154.927V0H172.939C175.515 0.00888391 177.612 2.11437 177.612 4.6907V4.91724H160.461V11.8822H176.075L176.079 16.755H160.461V24.6795Z" fill="white"/>
<path fill-rule="evenodd" clip-rule="evenodd" d="M206 4.6907V29.5834H200.736L200.487 29.1881L187.97 9.80339V29.5834H187.743C185.247 29.5834 182.555 28.122 182.551 24.9105V0H187.819L188.072 0.40866L200.616 19.8022V0H200.843C203.326 0 206 1.47029 206 4.6907Z" fill="white"/>
<path fill-rule="evenodd" clip-rule="evenodd" d="M178.38 24.6795V24.9105C178.367 27.4868 176.266 29.579 173.698 29.5834H154.927V0H172.939C175.515 0.00888391 177.612 2.11437 177.612 4.6907V4.91724H160.461V11.8822H176.075L176.079 16.755H160.461V24.6795H178.38Z" fill="white"/>
<path fill-rule="evenodd" clip-rule="evenodd" d="M91.6508 24.6795V24.9105C91.6374 27.4868 89.5408 29.579 86.9645 29.5834H68.1973V0H86.2094C88.7857 0.00888391 90.8823 2.11437 90.8823 4.6907V4.91724H73.7319V11.8822H89.3498V16.755H73.7319V24.6795H91.6508Z" fill="white"/>
<path fill-rule="evenodd" clip-rule="evenodd" d="M63.2762 24.6839V24.9105C63.2673 27.4912 61.1618 29.5834 58.59 29.5834H39.8271V24.9549L39.876 24.8971L53.8015 6.98275L55.5694 4.92168H40.2847V4.6907C40.2847 2.10549 42.3857 0 44.9754 0H62.8009V4.36644L62.7476 4.42863L47.4673 23.991L46.8632 24.6839H63.2762Z" fill="white"/>
<path fill-rule="evenodd" clip-rule="evenodd" d="M119.271 4.6907V29.5834H114.008L113.759 29.1881L101.241 9.80339V29.5834H101.015C98.523 29.5834 95.8311 28.122 95.8223 24.9105V0H101.086L101.344 0.40866L113.888 19.8022V0H114.114C116.597 0 119.271 1.47029 119.271 4.6907Z" fill="white"/>
<path fill-rule="evenodd" clip-rule="evenodd" d="M206 4.6907V29.5834H200.736L200.487 29.1881L187.97 9.80339V29.5834H187.743C185.247 29.5834 182.555 28.122 182.551 24.9105V0H187.819L188.072 0.40866L200.616 19.8022V0H200.843C203.326 0 206 1.47029 206 4.6907Z" fill="white"/>
<path fill-rule="evenodd" clip-rule="evenodd" d="M148.921 7.99551C148.25 6.13878 147.26 4.53523 145.967 3.23374C144.648 1.94113 143.076 1.03942 141.299 0.555244C140.548 0.346472 139.602 0.195446 138.487 0.106607L138.398 0.102165C138.354 0.097723 138.314 0.093281 138.269 0.093281C138.229 0.0888391 138.185 0.0843971 138.145 0.0843971L138.03 0.0710712C137.274 0.0310937 136.444 0 135.555 0H126.529V29.5834H136.013C136.812 29.5834 137.576 29.5479 138.283 29.4768C140.304 29.2947 142.045 28.8327 143.453 28.0998C145.403 27.087 147.002 25.3858 148.197 23.0449C149.383 20.7484 149.983 17.9188 149.983 14.6362C149.983 12.0866 149.627 9.84337 148.921 7.99551ZM143.44 21.1215C142.845 22.3741 142.005 23.2847 140.948 23.8311C140.282 24.182 139.367 24.4263 138.229 24.5596L138.221 24.564C137.55 24.644 136.777 24.6839 135.924 24.6839H131.833V4.91724H135.822C136.661 4.91724 137.434 4.94834 138.109 5.01052L138.229 5.01941L138.238 5.02385L138.354 5.02829C139.122 5.10825 139.757 5.23706 140.228 5.40586C141.49 5.88115 142.556 6.84505 143.382 8.27536C144.248 9.75009 144.688 11.8778 144.688 14.5963C144.688 17.1371 144.266 19.3358 143.44 21.1215Z" fill="white"/>
<path fill-rule="evenodd" clip-rule="evenodd" d="M13.8589 5.2235V13.8809H5.19708C2.34091 13.8809 0 11.5444 0 8.68378V0.0219727H8.66181C11.5224 0.0219727 13.8589 2.36288 13.8589 5.2235Z" fill="white"/>
<path fill-rule="evenodd" clip-rule="evenodd" d="M29.5659 0.0219727V8.68378C29.5659 11.5444 27.2295 13.8809 24.3688 13.8809H15.707V5.2235C15.707 2.36288 18.0435 0.0219727 20.9041 0.0219727H29.5659Z" fill="white"/>
<path fill-rule="evenodd" clip-rule="evenodd" d="M29.5659 20.9216V29.5835H20.9041C18.0435 29.5835 15.707 27.247 15.707 24.3864V15.729H24.3688C27.2295 15.729 29.5659 18.0655 29.5659 20.9216Z" fill="white"/>
<path fill-rule="evenodd" clip-rule="evenodd" d="M13.8589 15.729V24.3864C13.8589 27.247 11.5224 29.5835 8.66181 29.5835H0V20.9216C0 18.0655 2.34091 15.729 5.19708 15.729H13.8589Z" fill="white"/>
</svg>
