<svg width="203" height="37" viewBox="0 0 203 37" fill="none" xmlns="http://www.w3.org/2000/svg">
<g opacity="0.8">
<path d="M110.439 34.2598H136.635V31.0597H114.933V20.8181H131.234V17.5834H114.933V8.15049H136.635V4.96191H110.439V34.2598Z" fill="white"/>
<path d="M124.055 0.225098L120.508 4.21081L131.639 0.225098H124.055Z" fill="white"/>
<path d="M176.521 4.96191V34.254H203.001V31.0597H180.617V4.96191H176.521Z" fill="white"/>
<path d="M149.442 23.0016L156.483 9.04005L163.582 23.0305L149.442 23.0016ZM153.595 4.96191L138.715 34.2598H143.775L147.587 26.6754H165.454L169.295 34.2598H174.28L159.371 4.96191H153.595Z" fill="white"/>
<path d="M92.7175 18.5073H79.0332V8.42743H93.1911C96.449 8.42743 98.2859 9.94663 98.9675 11.8933C99.1634 12.6042 99.2132 13.3474 99.1139 14.0781C99.0147 14.8088 98.7684 15.5118 98.3899 16.1447C97.2346 18.1029 94.9587 18.5188 92.729 18.5188L92.7175 18.5073ZM96.2353 22.0193C102.947 20.2286 103.6 15.232 103.566 13.4471C103.167 8.21371 99.6376 4.97314 93.3009 4.97314H74.8164V34.2595H79.0274V21.9673H91.0481L99.8744 34.2595H105.183C105.183 34.2595 98.8289 25.9877 96.2006 22.0078" fill="white"/>
<path d="M49.5265 0C37.6444 0 29.5459 8.37578 29.5459 18.5191C29.5459 29.1939 38.4935 36.7321 49.5265 36.7321C60.5594 36.7321 69.4955 29.3037 69.4955 18.5191C69.4955 8.37578 61.2988 0 49.5265 0ZM49.3821 33.093C41.1622 33.093 34.3923 26.4848 34.3923 18.5307C34.3923 10.5766 40.8445 3.65646 49.6998 3.65646C51.6654 3.63661 53.6155 4.00672 55.4372 4.7454C57.2588 5.48408 58.9159 6.57665 60.3126 7.95991C61.7093 9.34317 62.8178 10.9896 63.5741 12.8041C64.3303 14.6186 64.7193 16.565 64.7184 18.5307C64.6953 26.4848 57.6019 33.093 49.3821 33.093Z" fill="white"/>
<path d="M18.9463 15.3248H21.9789L27.4954 4.96191H23.0591L18.9463 15.3248Z" fill="white"/>
<path d="M0 4.96191V34.254H26.479V31.0597H4.09547V4.96191H0Z" fill="white"/>
</g>
</svg>
