<svg width="118" height="36" viewBox="0 0 118 36" fill="none" xmlns="http://www.w3.org/2000/svg">
<g opacity="0.8">
<path d="M62.5009 15.3292C63.4619 15.6609 64.349 16.1589 65.1168 16.7975C65.8466 17.466 66.4421 18.2546 66.8732 19.1238C67.2957 20.0504 67.5066 21.0507 67.4923 22.0595C67.5069 23.0575 67.2959 24.0469 66.8732 24.9618C66.4455 25.8327 65.8387 26.6146 65.0881 27.2621C64.3375 27.9095 63.458 28.4096 62.5009 28.7332C61.4315 29.1062 60.2997 29.2943 59.1597 29.2886H47.1318V6.13119H65.3901V10.6338H52.1586V14.808H59.1569C60.2956 14.7922 61.428 14.9687 62.5009 15.3292ZM61.6694 19.8918C60.9265 19.3683 60.015 19.1028 59.0889 19.14H52.1586V24.9172H59.0889C60.0145 24.9541 60.9256 24.6896 61.6694 24.168C62.3266 23.6795 62.6352 23.0049 62.6352 22.0483C62.6352 21.0918 62.3266 20.3855 61.6694 19.8918ZM76.8125 29.2886H72.0017V6.13119H76.8125V15.9498L85.3638 6.13119H91.3437L81.5915 17.2543L93.3824 29.2895H87.103L76.8125 18.7869V29.2886ZM100.765 28.7332C97.73 27.5441 95.3167 25.2698 94.0514 22.4066C93.3982 20.9182 93.0697 19.3206 93.0856 17.7095C93.0685 16.1319 93.3822 14.5667 94.0086 13.1042C94.635 11.6416 95.5617 10.3106 96.7354 9.18776C97.8899 8.10008 99.2587 7.2364 100.765 6.64547C102.393 6.01686 104.138 5.70576 105.897 5.7309C107.252 5.72692 108.6 5.92478 109.891 6.31719C111.14 6.72925 112.322 7.30424 113.403 8.02547C114.433 8.76252 115.339 9.64282 116.089 10.6363C116.852 11.6638 117.412 12.8128 117.742 14.028H112.337C112.102 13.4488 111.752 12.9175 111.306 12.4629C110.852 12 110.329 11.6024 109.754 11.2826C109.176 10.9779 108.563 10.7374 107.927 10.566C107.265 10.3974 106.583 10.3098 105.897 10.3055C104.812 10.2944 103.736 10.4825 102.727 10.8592C101.793 11.2251 100.949 11.7693 100.248 12.4578C99.5675 13.1385 99.03 13.9352 98.6642 14.8055C98.2859 15.7308 98.1015 16.7168 98.1215 17.7086C98.1042 18.7014 98.291 19.6879 98.6715 20.6135C99.0372 21.484 99.575 22.2807 100.256 22.9612C100.949 23.65 101.796 24.1846 102.734 24.5263C103.735 24.9298 104.815 25.1299 105.903 25.1135C106.59 25.1092 107.273 25.0216 107.935 24.8529C108.578 24.6839 109.192 24.4315 109.761 24.1029C110.342 23.8074 110.865 23.4214 111.31 22.9612C111.757 22.506 112.107 21.9746 112.342 21.3952H117.747C117.416 22.6007 116.856 23.7392 116.094 24.7552C115.352 25.7554 114.445 26.6367 113.408 27.3652C112.342 28.1072 111.156 28.6801 109.895 29.0615C108.611 29.4802 107.26 29.6894 105.901 29.6803C104.139 29.6956 102.392 29.3734 100.765 28.7332Z" fill="white"/>
<mask id="mask0" mask-type="alpha" maskUnits="userSpaceOnUse" x="0" y="0" width="38" height="36">
<path d="M18.6966 35.4171C29.0235 35.4171 37.3951 27.4894 37.3951 17.7086C37.3942 7.92857 29.0216 0 18.6957 0C8.37074 0 0 7.92857 0 17.7086C0 27.4894 8.37074 35.4171 18.6966 35.4171Z" fill="white"/>
</mask>
<g mask="url(#mask0)">
<path d="M35.4167 26.6141C40.5906 17.9329 37.2012 6.83976 27.8466 1.84091C18.4928 -3.16052 6.71549 -0.176807 1.54164 8.50519C-3.63039 17.1881 -0.241972 28.2795 9.1127 33.2792C18.4674 38.2798 30.2438 35.2952 35.4176 26.6141H35.4167Z" fill="url(#paint0_linear)"/>
</g>
<mask id="mask1" mask-type="alpha" maskUnits="userSpaceOnUse" x="0" y="0" width="38" height="36">
<path d="M18.6966 35.4171C29.0235 35.4171 37.3951 27.4894 37.3951 17.7086C37.3942 7.92857 29.0216 0 18.6957 0C8.37074 0 0 7.92857 0 17.7086C0 27.4894 8.37074 35.4171 18.6966 35.4171Z" fill="white"/>
</mask>
<g mask="url(#mask1)">
<path d="M35.8573 24.8335C40.7933 18.4143 38.2772 8.71318 30.2351 3.16661C22.1938 -2.38082 11.6737 -1.67453 6.73672 4.74375C1.80068 11.1638 4.31771 20.8632 12.359 26.4123C20.3993 31.958 30.9204 31.2526 35.8573 24.8335Z" fill="url(#paint1_radial)"/>
</g>
<mask id="mask2" mask-type="alpha" maskUnits="userSpaceOnUse" x="0" y="0" width="38" height="36">
<path d="M18.6966 35.4171C29.0235 35.4171 37.3951 27.4894 37.3951 17.7086C37.3942 7.92857 29.0216 0 18.6957 0C8.37074 0 0 7.92857 0 17.7086C0 27.4894 8.37074 35.4171 18.6966 35.4171Z" fill="white"/>
</mask>
<g mask="url(#mask2)">
<path d="M35.9848 16.5659C38.4329 12.0676 34.4599 5.51221 27.1112 1.92164C19.7589 -1.66722 11.8166 -0.931791 9.36764 3.56735C6.91868 8.06392 10.8917 14.6202 18.2412 18.2108C25.5908 21.7996 33.534 21.0642 35.983 16.5668L35.9848 16.5659Z" fill="url(#paint2_linear)"/>
</g>
</g>
<defs>
<linearGradient id="paint0_linear" x1="23.7473" y1="33.4612" x2="18.4986" y2="-6.71837" gradientUnits="userSpaceOnUse">
<stop stop-color="#C1C1C1"/>
<stop offset="1" stop-color="white"/>
</linearGradient>
<radialGradient id="paint1_radial" cx="0" cy="0" r="1" gradientUnits="userSpaceOnUse" gradientTransform="translate(49.4521 30.4619) rotate(162.557) scale(55.4286 88.2096)">
<stop offset="0.271" stop-color="#C0BEBE" stop-opacity="0.54"/>
<stop offset="0.724" stop-color="white"/>
</radialGradient>
<linearGradient id="paint2_linear" x1="30.2574" y1="33.4392" x2="25.7176" y2="-4.24948" gradientUnits="userSpaceOnUse">
<stop offset="0.353601" stop-color="white"/>
<stop offset="1" stop-color="white"/>
</linearGradient>
</defs>
</svg>
