<svg width="161" height="37" viewBox="0 0 161 37" fill="none" xmlns="http://www.w3.org/2000/svg">
<path opacity="0.8" fill-rule="evenodd" clip-rule="evenodd" d="M100.852 11.9453V16.6805H111.371V11.9453H100.852ZM100.852 11.9453V16.6805H111.371V11.9453H100.852ZM0 0V37H161V0H0ZM122.138 8.2313C123.613 7.10111 124.972 7.19983 124.972 7.19983H142.109C142.109 7.19983 144.159 7.1726 145.212 8.18705C146.472 9.40234 146.302 11.1351 146.302 11.1351V27.3389C146.302 27.3389 146.159 28.9559 145.106 30.0725C143.802 31.458 142.514 31.5295 142.514 31.5295H125.231C125.231 31.5295 123.8 31.5193 122.319 30.2053C120.861 28.9117 120.861 27.1143 120.861 27.1143V11.2678C120.861 11.2678 120.786 9.26617 122.138 8.2313ZM93.8287 7.15558L112.682 7.16239C112.682 7.16239 115.234 7.10452 116.552 8.2313C118.125 9.58276 117.812 11.7376 117.812 11.7376V18.5494C117.812 18.5494 118.061 20.1391 115.956 21.4633C114.481 22.3927 112.379 22.1271 112.379 22.1271L118.163 31.5261H109.286L104.429 22.3893H101.384V31.5295H93.8287V7.15558ZM69.5796 7.16239H91.5771V12.061H84.5534V31.5329H76.6032V12.0644H69.5796V7.16239ZM47.9839 7.15558L67.4609 7.19983V12.061H55.5356V16.8302H67.328V21.7289H55.6684V26.7602H67.7265V31.5363H47.9839V7.15558ZM25.0394 7.19983L29.6991 19.7408L34.6007 7.15898H45.0681V31.5363H37.5301V16.5511L31.9507 31.5363H27.4442L21.8682 16.4183V31.5329H14.7252L14.6912 7.15558L25.0394 7.19983ZM139.019 12.0133H128.228V26.6513H139.019V12.0133ZM111.371 11.9453H100.852V16.6805H111.371V11.9453Z" fill="white"/>
</svg>
