<svg width="188" height="38" viewBox="0 0 188 38" fill="none" xmlns="http://www.w3.org/2000/svg">
<g opacity="0.8">
<path d="M84.7335 19.1302C84.7335 26.1264 80.4027 29.4339 74.9821 29.4339H71.6693V25.2359H74.7239C77.9936 25.2359 80.173 23.4977 80.173 19.1302C80.173 14.8051 78.1118 12.6422 74.627 12.6422C71.2713 12.6422 68.8728 14.6779 68.8728 19.0454V36.6003H64.3555V8.9955H68.8728V11.3704H69.5181C71.024 9.37747 73.2502 8.48666 75.5734 8.48666C80.5641 8.48666 84.7335 12.0486 84.7335 19.1302ZM55.0451 17.3066L52.0334 17.0097C49.6672 16.7977 48.4195 16.1617 48.4195 14.8047C48.4195 13.1934 50.0115 12.2606 52.2915 12.2606C54.6579 12.2606 56.1635 13.363 56.2926 14.9319H60.6379C60.4659 10.9461 57.3253 8.48666 52.3347 8.48666C47.3011 8.48666 43.9022 11.1157 43.9022 14.9744C43.9022 18.1971 45.9673 20.2748 50.6568 20.7413L53.7113 21.038C55.5613 21.2076 56.809 21.5892 56.809 23.3278C56.809 24.8968 55.6473 26.0415 52.5928 26.0415C49.78 26.0415 48.394 24.7836 47.9077 23.0973H43.2068C43.6751 26.9519 46.9605 29.9427 52.5928 29.9427C57.8845 29.9427 61.3262 27.1864 61.3262 23.1159C61.3262 19.5115 58.9171 17.6882 55.0451 17.3066ZM102.229 23.0973C101.52 24.7014 99.8271 25.9145 97.4242 25.9145C94.1116 25.9145 91.6594 23.7943 91.6594 19.2147C91.6594 14.8472 93.9394 12.4302 97.4672 12.4302C100.608 12.4302 102.415 14.296 102.587 17.0945H94.4557V20.3175H107.018V18.1971C107.018 12.303 103.06 8.48666 97.4242 8.48666C92.1756 8.48666 87.1419 12.0062 87.1419 19.2147C87.1419 26.4232 92.1756 29.9427 97.4242 29.9427C102.225 29.9427 105.648 27.0281 106.712 23.0973H102.229ZM31.0172 8.48666C26.0698 8.48666 22.3698 11.0312 21.9396 14.9319H26.801C27.1453 13.4906 28.4789 12.4305 31.0172 12.4305C34.2871 12.4305 35.3625 14.1269 35.3625 16.2044V23.2006C33.5127 25.2786 31.3615 26.2536 29.2103 26.2536C26.9732 26.2536 25.4244 25.1936 25.4244 23.2858C25.4244 21.462 26.629 20.3175 28.9522 20.3175H32.566V17.0945H28.8231C23.6605 17.0945 20.778 19.6391 20.778 23.5399C20.778 27.1864 23.5744 29.9427 28.1778 29.9427C30.7591 29.9427 33.0393 28.9254 34.7172 27.6953H35.3625V29.4339H39.8799V15.7801C39.8799 10.7341 36.3951 8.48666 31.0172 8.48666ZM0.367188 29.4339H4.88455V1.44775H0.367188V29.4339ZM19.34 8.9955H13.8331L7.25076 17.5189V20.1903L14.0052 29.4339H19.5981L11.6821 18.8331L19.34 8.9955ZM182.642 8.9955L178.942 17.0945C178.039 19.0454 177.179 20.9532 176.92 22.2256H176.275C176.016 20.9532 175.113 19.0875 174.21 17.1372L170.51 8.9955H165.519L174.21 27.3562L169.908 36.6003H174.726L187.633 8.9955H182.642ZM164.52 8.9955H159.013L152.431 17.5189V20.1903L159.185 29.4339H164.778L156.862 18.8331L164.52 8.9955ZM136.237 17.3066L133.225 17.0097C130.859 16.7977 129.611 16.1617 129.611 14.8047C129.611 13.1934 131.203 12.2606 133.483 12.2606C135.85 12.2606 137.355 13.363 137.485 14.9319H141.83C141.658 10.9461 138.517 8.48666 133.526 8.48666C128.493 8.48666 125.094 11.1157 125.094 14.9744C125.094 18.1971 127.159 20.2748 131.849 20.7413L134.903 21.038C136.753 21.2076 138.001 21.5892 138.001 23.3278C138.001 24.8968 136.839 26.0415 133.785 26.0415C130.972 26.0415 129.586 24.7836 129.099 23.0973H124.399C124.867 26.9519 128.152 29.9427 133.785 29.9427C139.076 29.9427 142.518 27.1864 142.518 23.1159C142.518 19.5115 140.109 17.6882 136.237 17.3066ZM145.547 29.4339H150.065V1.44775H145.547V29.4339ZM115.759 11.3704H115.113V8.9955H110.596V29.4339H115.113V18.7483C115.113 15.1016 116.823 12.9814 120.19 12.9814H123.05V8.48666H121.395C118.271 8.48666 116.943 9.64801 115.759 11.3704Z" fill="white"/>
</g>
</svg>
