<svg width="24" height="24" viewBox="0 0 24 24" fill="none" xmlns="http://www.w3.org/2000/svg">
<path d="M10.4 0C8.93672 0 7.73333 1.20338 7.73333 2.66667C7.73333 4.48573 8.74404 6.74403 9.80833 8.86667C8.97642 11.4709 8.03238 14.2617 6.825 16.6167C4.3538 17.5863 2.14998 18.307 0.825 19.375C0.804339 19.3961 0.784865 19.4184 0.766667 19.4417C0.282483 19.9368 0 20.611 0 21.3333C0 22.7966 1.20338 24 2.66667 24C3.38023 24 4.06896 23.7337 4.56667 23.225C4.58389 23.2118 4.60057 23.1979 4.61667 23.1833C5.59199 22.0187 6.74201 19.9061 7.76667 17.975C10.1282 17.046 12.6033 16.1008 14.9917 15.5333C16.7352 16.9385 19.2576 17.8667 21.3333 17.8667C22.7966 17.8667 24 16.6633 24 15.2C24 13.7367 22.7966 12.5333 21.3333 12.5333C19.6687 12.5333 17.2496 13.1276 15.4 13.75C13.9008 12.3426 12.5233 10.5848 11.5333 8.71667C12.2407 6.5376 13.0667 4.35726 13.0667 2.66667C13.0667 1.20338 11.8633 0 10.4 0ZM10.4 1.6C10.9986 1.6 11.4667 2.06809 11.4667 2.66667C11.4667 3.46705 11.0381 4.94067 10.5417 6.525C9.87836 4.98374 9.33333 3.50503 9.33333 2.66667C9.33333 2.06809 9.80142 1.6 10.4 1.6ZM10.8583 10.725C11.6604 12.0008 12.5997 13.1879 13.625 14.2417C12.0436 14.6741 10.4991 15.2282 8.975 15.8083C9.71114 14.1468 10.3005 12.4227 10.8583 10.725ZM21.3333 14.1333C21.9319 14.1333 22.4 14.6014 22.4 15.2C22.4 15.7986 21.9319 16.2667 21.3333 16.2667C20.1316 16.2667 18.4237 15.7242 17.0583 14.9667C18.6256 14.5235 20.3357 14.1333 21.3333 14.1333ZM5.41667 18.9083C4.66677 20.2469 3.92137 21.4963 3.4 22.125C3.2219 22.2953 2.98498 22.4 2.66667 22.4C2.06809 22.4 1.6 21.9319 1.6 21.3333C1.6 21.0517 1.71972 20.7719 1.88333 20.5917C2.5089 20.1076 3.86984 19.5274 5.41667 18.9083Z" fill="#2D67FC"/>
</svg>
