<svg width="239" height="19" viewBox="0 0 239 19" fill="none" xmlns="http://www.w3.org/2000/svg">
<path fill-rule="evenodd" clip-rule="evenodd" d="M151.797 0.186523H148.603V15.4865H140.16V0.186523H136.966V18.3688H151.797V0.186523Z" fill="white"/>
<path fill-rule="evenodd" clip-rule="evenodd" d="M23.2783 18.5597H26.4853V0.313477H23.2783V18.5597Z" fill="white"/>
<path fill-rule="evenodd" clip-rule="evenodd" d="M0 11.1575H20.2459V7.95166H0V11.1575Z" fill="white"/>
<path fill-rule="evenodd" clip-rule="evenodd" d="M34.5653 9.35837V3.23245H39.2312C41.6036 3.23245 43.011 4.30145 43.011 6.25653C43.011 8.15902 41.551 9.35837 39.2575 9.35837H34.5653ZM31.3594 18.5597H34.5652V12.1994H38.528L43.0624 18.5597H46.8422L41.9157 11.6518C44.471 10.9224 46.2694 9.12391 46.2694 6.12612C46.2694 2.60698 43.7667 0.313477 39.4918 0.313477H31.3594V18.5597Z" fill="white"/>
<path fill-rule="evenodd" clip-rule="evenodd" d="M61.2303 9.80083V3.23245H64.9575C67.3562 3.23245 68.894 4.3529 68.894 6.49091C68.894 8.44599 67.3814 9.80083 64.9575 9.80083H61.2303ZM58.0244 18.5597H61.2303V12.6945H64.8535C68.8677 12.6945 72.1524 10.5576 72.1524 6.46455C72.1524 2.73732 69.4668 0.313477 65.2182 0.313477H58.0244V18.5597Z" fill="white"/>
<path fill-rule="evenodd" clip-rule="evenodd" d="M83.569 0.313477C87.8439 0.313477 90.3466 2.60698 90.3466 6.12612C90.3466 9.12391 88.5481 10.9224 85.9928 11.6518L90.9194 18.5597H87.1407L83.7153 13.7567L83.7645 13.7098L80.594 9.35829H83.3346C85.6281 9.35829 87.0881 8.15895 87.0881 6.25646C87.0881 4.30138 85.6807 3.23238 83.3083 3.23238H78.6424V6.67949L78.6264 6.65663V18.498L78.6424 18.4831V18.5597H75.4365V0.313477H83.569Z" fill="white"/>
<path fill-rule="evenodd" clip-rule="evenodd" d="M103.041 15.9266C99.4176 15.9266 96.8371 12.9814 96.8371 9.43596C96.8371 5.83907 99.365 2.94532 102.988 2.94532C106.611 2.94532 109.192 5.89166 109.192 9.43596C109.192 13.0328 106.664 15.9266 103.041 15.9266ZM102.988 18.8717C108.593 18.8717 112.554 14.5705 112.554 9.43583C112.554 4.24858 108.644 0 103.041 0C97.4362 0 93.4746 4.30118 93.4746 9.43583C93.4746 14.6231 97.3836 18.8717 102.988 18.8717Z" fill="white"/>
<path fill-rule="evenodd" clip-rule="evenodd" d="M119.644 15.5127V3.10535H123.241C127.074 3.10535 129.575 5.73842 129.575 9.30901C129.575 12.9322 127.074 15.5127 123.241 15.5127H119.644ZM116.438 18.4328H123.241C128.976 18.4328 132.938 14.4449 132.938 9.30909C132.938 4.12298 128.976 0.186523 123.241 0.186523H116.438V18.4328Z" fill="white"/>
<path fill-rule="evenodd" clip-rule="evenodd" d="M165.024 18.8717C168.439 18.8717 170.525 17.6209 172.427 15.6395L170.368 13.5541C168.804 15.0141 167.37 15.9265 165.128 15.9265C161.636 15.9265 159.108 13.0076 159.108 9.43583C159.108 5.81265 161.636 2.9452 165.128 2.9452C167.214 2.9452 168.778 3.85757 170.238 5.21355L172.297 2.84115C170.551 1.17305 168.517 0 165.155 0C159.629 0 155.745 4.24858 155.745 9.43583C155.745 14.7271 159.707 18.8717 165.024 18.8717Z" fill="white"/>
<path fill-rule="evenodd" clip-rule="evenodd" d="M180.274 18.5597H183.506V3.28497H189.293V0.313477H174.487V3.28497H180.274V18.5597Z" fill="white"/>
<path fill-rule="evenodd" clip-rule="evenodd" d="M192.863 18.5597H196.069V0.313477H192.863V18.5597Z" fill="white"/>
<path fill-rule="evenodd" clip-rule="evenodd" d="M223.1 18.5597H226.254V5.57847L236.315 18.5597H239V0.313477H235.847V12.9289L226.071 0.313477H223.1V18.5597Z" fill="white"/>
<path fill-rule="evenodd" clip-rule="evenodd" d="M19.9678 18.5597H16.6453L16.6498 18.5483L10.4016 4.01438L10.3982 4.00637L4.13618 18.5597H0.939453L8.96786 0.183105H11.9394L19.9678 18.5597Z" fill="white"/>
<path fill-rule="evenodd" clip-rule="evenodd" d="M90.8771 18.5481L79.3124 2.2832L76.6416 3.89071L87.1727 18.5481H90.8771Z" fill="white"/>
<path fill-rule="evenodd" clip-rule="evenodd" d="M203.76 3.40483V15.4451H215.23V3.40483C211.407 3.40483 207.584 3.40483 203.76 3.40483ZM218.354 18.5687H200.636V0.28125H218.354C218.354 6.37744 218.354 12.4725 218.354 18.5687Z" fill="white"/>
</svg>
